TiroDevaHindi-Italic.ufo
<glyph name="dAnusvara" format="2">
  <unicode hex="0902"/>
  <outline>
    <contour>
      <point x="-21" y="828" type="line"/>
      <point x="-102" y="759" type="line"/>
      <point x="-44" y="690" type="line"/>
      <point x="37" y="757" type="line"/>
    </contour>
  </outline>
  <guideline angle="0" x="0" y="675"/>
</glyph>
<glyph name="dVocalicR" format="2">
  <advance width="811"/>
  <unicode hex="090B"/>
  <outline>
    <contour>
      <point x="417" y="-10" type="line"/>
      <point x="530" y="581" type="line"/>
      <point x="446" y="581" type="line"/>
      <point x="340" y="52" type="line"/>
      <point x="407" y="-10" type="line"/>
    </contour>
    <contour>
      <point x="376" y="238" type="line"/>
      <point x="392" y="221" type="line"/>
      <point x="436" y="354" type="line"/>
      <point x="59" y="141" type="line"/>
      <point x="112" y="76" type="line"/>
    </contour>
    <contour>
      <point x="417" y="339" type="line"/>
      <point x="315" y="433"/>
      <point x="292" y="470"/>
      <point x="233" y="470" type="curve" smooth="yes"/>
      <point x="191" y="470"/>
      <point x="131" y="442"/>
      <point x="67" y="417" type="curve"/>
      <point x="67" y="412" type="line"/>
      <point x="107" y="340" type="line"/>
      <point x="157" y="363"/>
      <point x="217" y="395"/>
      <point x="252" y="395" type="curve" smooth="yes"/>
      <point x="296" y="395"/>
      <point x="329" y="357"/>
      <point x="406" y="293" type="curve"/>
    </contour>
    <contour>
      <point x="551" y="22" type="line"/>
      <point x="701" y="44"/>
      <point x="756" y="100"/>
      <point x="756" y="186" type="curve" smooth="yes"/>
      <point x="756" y="235"/>
      <point x="733" y="277"/>
      <point x="692" y="329" type="curve"/>
      <point x="648" y="309" type="line"/>
      <point x="680" y="269"/>
      <point x="695" y="238"/>
      <point x="695" y="209" type="curve" smooth="yes"/>
      <point x="695" y="143"/>
      <point x="631" y="121"/>
      <point x="512" y="102" type="curve"/>
      <point x="511" y="97" type="line"/>
    </contour>
    <contour>
      <point x="533" y="274" type="curve" smooth="yes"/>
      <point x="598" y="274"/>
      <point x="641" y="289"/>
      <point x="681" y="306" type="curve" smooth="yes"/>
      <point x="722" y="323"/>
      <point x="746" y="358"/>
      <point x="746" y="385" type="curve" smooth="yes"/>
      <point x="746" y="430"/>
      <point x="684" y="468"/>
      <point x="644" y="468" type="curve" smooth="yes"/>
      <point x="619" y="468"/>
      <point x="610" y="457"/>
      <point x="610" y="438" type="curve" smooth="yes"/>
      <point x="610" y="408"/>
      <point x="617" y="382"/>
      <point x="637" y="342" type="curve"/>
      <point x="633" y="378" type="line"/>
      <point x="612" y="354"/>
      <point x="544" y="323"/>
      <point x="467" y="329" type="curve"/>
      <point x="458" y="281" type="line"/>
      <point x="484" y="275"/>
      <point x="510" y="274"/>
    </contour>
    <contour>
      <point x="896" y="545" type="line"/>
      <point x="898" y="555" type="line"/>
      <point x="867" y="620" type="line"/>
      <point x="34" y="620" type="line"/>
      <point x="32" y="610" type="line"/>
      <point x="63" y="545" type="line"/>
    </contour>
  </outline>
</glyph>
<glyph name="dE" format="2">
  <advance width="560"/>
  <unicode hex="090F"/>
  <outline>
    <contour>
      <point x="393" y="-166" type="line"/>
      <point x="434" y="-141"/>
      <point x="464" y="-112"/>
      <point x="464" y="-76" type="curve" smooth="yes"/>
      <point x="464" y="-37"/>
      <point x="427" y="0"/>
      <point x="289" y="103" type="curve" smooth="yes"/>
      <point x="194" y="175"/>
      <point x="171" y="201"/>
      <point x="171" y="238" type="curve" smooth="yes"/>
      <point x="171" y="287"/>
      <point x="207" y="444"/>
      <point x="233" y="572" type="curve"/>
      <point x="149" y="572" type="line"/>
      <point x="127" y="467"/>
      <point x="92" y="294"/>
      <point x="90" y="261" type="curve" smooth="yes"/>
      <point x="86" y="194"/>
      <point x="118" y="167"/>
      <point x="244" y="73" type="curve" smooth="yes"/>
      <point x="350" y="-6"/>
      <point x="378" y="-31"/>
      <point x="378" y="-55" type="curve" smooth="yes"/>
      <point x="378" y="-70"/>
      <point x="369" y="-84"/>
      <point x="344" y="-100" type="curve"/>
    </contour>
    <contour>
      <point x="363" y="158" type="line"/>
      <point x="438" y="204"/>
      <point x="469" y="229"/>
      <point x="492" y="348" type="curve" smooth="yes"/>
      <point x="501" y="396"/>
      <point x="520" y="504"/>
      <point x="533" y="572" type="curve"/>
      <point x="452" y="572" type="line"/>
      <point x="436" y="485"/>
      <point x="427" y="435"/>
      <point x="413" y="364" type="curve" smooth="yes"/>
      <point x="396" y="275"/>
      <point x="367" y="254"/>
      <point x="316" y="223" type="curve"/>
    </contour>
    <contour>
      <point x="645" y="545" type="line"/>
      <point x="647" y="555" type="line"/>
      <point x="616" y="620" type="line"/>
      <point x="34" y="620" type="line"/>
      <point x="32" y="610" type="line"/>
      <point x="63" y="545" type="line"/>
    </contour>
  </outline>
</glyph>
<glyph name="dTta" format="2">
  <advance width="539"/>
  <unicode hex="091F"/>
  <outline>
    <contour>
      <point x="624" y="545" type="line"/>
      <point x="626" y="555" type="line"/>
      <point x="595" y="620" type="line"/>
      <point x="34" y="620" type="line"/>
      <point x="32" y="610" type="line"/>
      <point x="63" y="545" type="line"/>
    </contour>
    <contour>
      <point x="393" y="580" type="line"/>
      <point x="365" y="435" type="line"/>
      <point x="284" y="435" type="line" smooth="yes"/>
      <point x="192" y="435"/>
      <point x="58" y="409"/>
      <point x="58" y="260" type="curve" smooth="yes"/>
      <point x="58" y="126"/>
      <point x="165" y="37"/>
      <point x="299" y="37" type="curve" smooth="yes"/>
      <point x="381" y="37"/>
      <point x="445" y="75"/>
      <point x="490" y="126" type="curve"/>
      <point x="439" y="191" type="line"/>
      <point x="388" y="144"/>
      <point x="325" y="111"/>
      <point x="257" y="111" type="curve" smooth="yes"/>
      <point x="182" y="111"/>
      <point x="124" y="139"/>
      <point x="124" y="222" type="curve" smooth="yes"/>
      <point x="124" y="304"/>
      <point x="192" y="360"/>
      <point x="288" y="360" type="curve" smooth="yes"/>
      <point x="421" y="360" type="line"/>
      <point x="435" y="368" type="line"/>
      <point x="445" y="419"/>
      <point x="465" y="530"/>
      <point x="474" y="580" type="curve"/>
    </contour>
  </outline>
  <guideline angle="0" x="0" y="37"/>
</glyph>
<glyph name="dTtha" format="2">
  <advance width="577"/>
  <unicode hex="0920"/>
  <outline>
    <contour>
      <point x="662" y="545" type="line"/>
      <point x="664" y="555" type="line"/>
      <point x="633" y="620" type="line"/>
      <point x="34" y="620" type="line"/>
      <point x="32" y="610" type="line"/>
      <point x="63" y="545" type="line"/>
    </contour>
    <contour>
      <point x="299" y="37" type="curve" smooth="yes"/>
      <point x="411" y="37"/>
      <point x="530" y="100"/>
      <point x="530" y="224" type="curve" smooth="yes"/>
      <point x="530" y="301"/>
      <point x="487" y="371"/>
      <point x="423" y="413" type="curve"/>
      <point x="397" y="375" type="line"/>
      <point x="431" y="360"/>
      <point x="456" y="314"/>
      <point x="456" y="266" type="curve" smooth="yes"/>
      <point x="456" y="178"/>
      <point x="373" y="108"/>
      <point x="258" y="108" type="curve" smooth="yes"/>
      <point x="173" y="108"/>
      <point x="120" y="151"/>
      <point x="120" y="228" type="curve" smooth="yes"/>
      <point x="120" y="323"/>
      <point x="220" y="363"/>
      <point x="380" y="363" type="curve" smooth="yes"/>
      <point x="432" y="363"/>
      <point x="443" y="374"/>
      <point x="455" y="438" type="curve" smooth="yes"/>
      <point x="468" y="508"/>
      <point x="475" y="546"/>
      <point x="481" y="576" type="curve"/>
      <point x="401" y="576" type="line"/>
      <point x="383" y="485" type="line" smooth="yes"/>
      <point x="374" y="441"/>
      <point x="369" y="438"/>
      <point x="342" y="438" type="curve" smooth="yes"/>
      <point x="120" y="438"/>
      <point x="52" y="367"/>
      <point x="52" y="261" type="curve" smooth="yes"/>
      <point x="52" y="147"/>
      <point x="148" y="37"/>
    </contour>
  </outline>
</glyph>
<glyph name="dTa" format="2">
  <advance width="573"/>
  <unicode hex="0924"/>
  <outline>
    <contour>
      <point x="172" y="-10" type="line"/>
      <point x="219" y="22" type="line"/>
      <point x="145" y="128"/>
      <point x="122" y="172"/>
      <point x="122" y="226" type="curve" smooth="yes"/>
      <point x="122" y="306"/>
      <point x="180" y="360"/>
      <point x="291" y="360" type="curve" smooth="yes"/>
      <point x="445" y="360" type="line"/>
      <point x="461" y="435" type="line"/>
      <point x="283" y="435" type="line" smooth="yes"/>
      <point x="179" y="435"/>
      <point x="53" y="405"/>
      <point x="53" y="271" type="curve" smooth="yes"/>
      <point x="53" y="188"/>
      <point x="101" y="96"/>
      <point x="162" y="-10" type="curve"/>
    </contour>
    <contour>
      <point x="435" y="-10" type="line"/>
      <point x="550" y="591" type="line"/>
      <point x="466" y="591" type="line"/>
      <point x="358" y="52" type="line"/>
      <point x="425" y="-10" type="line"/>
    </contour>
    <contour>
      <point x="658" y="545" type="line"/>
      <point x="660" y="555" type="line"/>
      <point x="629" y="620" type="line"/>
      <point x="34" y="620" type="line"/>
      <point x="32" y="610" type="line"/>
      <point x="63" y="545" type="line"/>
    </contour>
  </outline>
</glyph>
<glyph name="dRa" format="2">
  <advance width="394"/>
  <unicode hex="0930"/>
  <outline>
    <contour>
      <point x="270" y="-20" type="line"/>
      <point x="323" y="18" type="line"/>
      <point x="149" y="246" type="line"/>
      <point x="149" y="235" type="line"/>
      <point x="247" y="250"/>
      <point x="284" y="300"/>
      <point x="317" y="471" type="curve" smooth="yes"/>
      <point x="320" y="487"/>
      <point x="329" y="544"/>
      <point x="331" y="565" type="curve"/>
      <point x="248" y="565" type="line"/>
      <point x="245" y="543"/>
      <point x="243" y="523"/>
      <point x="235" y="482" type="curve" smooth="yes"/>
      <point x="228" y="446"/>
      <point x="216" y="391"/>
      <point x="201" y="358" type="curve"/>
      <point x="214" y="367" type="line"/>
      <point x="193" y="370"/>
      <point x="143" y="374"/>
      <point x="121" y="374" type="curve" smooth="yes"/>
      <point x="79" y="374"/>
      <point x="63" y="361"/>
      <point x="63" y="334" type="curve" smooth="yes"/>
      <point x="63" y="312"/>
      <point x="77" y="275"/>
      <point x="109" y="223" type="curve" smooth="yes"/>
      <point x="260" y="-20" type="line"/>
    </contour>
    <contour>
      <point x="479" y="545" type="line"/>
      <point x="481" y="555" type="line"/>
      <point x="450" y="620" type="line"/>
      <point x="34" y="620" type="line"/>
      <point x="32" y="610" type="line"/>
      <point x="63" y="545" type="line"/>
    </contour>
  </outline>
</glyph>
<glyph name="dLa" format="2">
  <advance width="686"/>
  <unicode hex="0932"/>
  <outline>
    <contour>
      <point x="213" y="-10" type="line"/>
      <point x="259" y="22" type="line"/>
      <point x="160" y="114"/>
      <point x="129" y="169"/>
      <point x="129" y="240" type="curve" smooth="yes"/>
      <point x="129" y="323"/>
      <point x="176" y="376"/>
      <point x="241" y="376" type="curve" smooth="yes"/>
      <point x="278" y="376"/>
      <point x="308" y="358"/>
      <point x="325" y="333" type="curve"/>
      <point x="350" y="365" type="line"/>
      <point x="323" y="407"/>
      <point x="278" y="450"/>
      <point x="211" y="450" type="curve" smooth="yes"/>
      <point x="117" y="450"/>
      <point x="55" y="373"/>
      <point x="55" y="279" type="curve" smooth="yes"/>
      <point x="55" y="185"/>
      <point x="115" y="95"/>
      <point x="203" y="-10" type="curve"/>
    </contour>
    <contour>
      <point x="338" y="224" type="line"/>
      <point x="408" y="330"/>
      <point x="451" y="374"/>
      <point x="503" y="374" type="curve" smooth="yes"/>
      <point x="518" y="374"/>
      <point x="532" y="369"/>
      <point x="543" y="365" type="curve"/>
      <point x="553" y="406" type="line"/>
      <point x="530" y="428"/>
      <point x="497" y="439"/>
      <point x="472" y="439" type="curve" smooth="yes"/>
      <point x="385" y="439"/>
      <point x="307" y="338"/>
      <point x="264" y="264" type="curve"/>
    </contour>
    <contour>
      <point x="548" y="-10" type="line"/>
      <point x="659" y="571" type="line"/>
      <point x="575" y="571" type="line"/>
      <point x="471" y="52" type="line"/>
      <point x="538" y="-10" type="line"/>
    </contour>
    <contour>
      <point x="771" y="545" type="line"/>
      <point x="773" y="555" type="line"/>
      <point x="742" y="620" type="line"/>
      <point x="34" y="620" type="line"/>
      <point x="32" y="610" type="line"/>
      <point x="63" y="545" type="line"/>
    </contour>
  </outline>
</glyph>
<glyph name="dLla" format="2">
  <advance width="728"/>
  <unicode hex="0933"/>
  <outline>
    <contour>
      <point x="503" y="55" type="curve" smooth="yes"/>
      <point x="609" y="55"/>
      <point x="687" y="144"/>
      <point x="687" y="259" type="curve" smooth="yes"/>
      <point x="687" y="351"/>
      <point x="640" y="432"/>
      <point x="533" y="432" type="curve" smooth="yes"/>
      <point x="439" y="432"/>
      <point x="397" y="373"/>
      <point x="324" y="252" type="curve" smooth="yes"/>
      <point x="284" y="187"/>
      <point x="248" y="121"/>
      <point x="176" y="121" type="curve" smooth="yes"/>
      <point x="125" y="121"/>
      <point x="98" y="154"/>
      <point x="98" y="202" type="curve" smooth="yes"/>
      <point x="98" y="280"/>
      <point x="170" y="377"/>
      <point x="261" y="377" type="curve" smooth="yes"/>
      <point x="303" y="377"/>
      <point x="336" y="355"/>
      <point x="369" y="304" type="curve"/>
      <point x="392" y="337" type="line"/>
      <point x="354" y="400"/>
      <point x="293" y="444"/>
      <point x="228" y="444" type="curve" smooth="yes"/>
      <point x="115" y="444"/>
      <point x="40" y="346"/>
      <point x="40" y="235" type="curve" smooth="yes"/>
      <point x="40" y="143"/>
      <point x="102" y="59"/>
      <point x="204" y="59" type="curve" smooth="yes"/>
      <point x="299" y="59"/>
      <point x="346" y="130"/>
      <point x="412" y="237" type="curve" smooth="yes"/>
      <point x="461" y="316"/>
      <point x="499" y="380"/>
      <point x="557" y="380" type="curve" smooth="yes"/>
      <point x="599" y="380"/>
      <point x="628" y="346"/>
      <point x="628" y="292" type="curve" smooth="yes"/>
      <point x="628" y="206"/>
      <point x="556" y="123"/>
      <point x="486" y="123" type="curve" smooth="yes"/>
      <point x="439" y="123"/>
      <point x="396" y="145"/>
      <point x="370" y="192" type="curve"/>
      <point x="347" y="159" type="line"/>
      <point x="396" y="83"/>
      <point x="443" y="55"/>
    </contour>
    <contour>
      <point x="813" y="545" type="line"/>
      <point x="815" y="555" type="line"/>
      <point x="783" y="620" type="line"/>
      <point x="33" y="620" type="line"/>
      <point x="31" y="610" type="line"/>
      <point x="63" y="545" type="line"/>
    </contour>
    <contour>
      <point x="573" y="402" type="line"/>
      <point x="607" y="581" type="line"/>
      <point x="526" y="581" type="line"/>
      <point x="492" y="402" type="line"/>
    </contour>
  </outline>
</glyph>
<glyph name="dVa" format="2">
  <advance width="597"/>
  <unicode hex="0935"/>
  <outline>
    <contour>
      <point x="236" y="133" type="curve" smooth="yes"/>
      <point x="301" y="133"/>
      <point x="366" y="161"/>
      <point x="433" y="208" type="curve"/>
      <point x="457" y="322" type="line"/>
      <point x="370" y="250"/>
      <point x="276" y="197"/>
      <point x="206" y="197" type="curve" smooth="yes"/>
      <point x="151" y="197"/>
      <point x="118" y="228"/>
      <point x="118" y="278" type="curve" smooth="yes"/>
      <point x="118" y="342"/>
      <point x="176" y="389"/>
      <point x="265" y="389" type="curve" smooth="yes"/>
      <point x="347" y="389"/>
      <point x="408" y="349"/>
      <point x="442" y="304" type="curve"/>
      <point x="456" y="349" type="line"/>
      <point x="417" y="404"/>
      <point x="349" y="467"/>
      <point x="246" y="467" type="curve" smooth="yes"/>
      <point x="148" y="467"/>
      <point x="52" y="406"/>
      <point x="52" y="308" type="curve" smooth="yes"/>
      <point x="52" y="223"/>
      <point x="114" y="133"/>
    </contour>
    <contour>
      <point x="459" y="-10" type="line"/>
      <point x="572" y="581" type="line"/>
      <point x="488" y="581" type="line"/>
      <point x="382" y="52" type="line"/>
      <point x="449" y="-10" type="line"/>
    </contour>
    <contour>
      <point x="682" y="545" type="line"/>
      <point x="684" y="555" type="line"/>
      <point x="653" y="620" type="line"/>
      <point x="34" y="620" type="line"/>
      <point x="32" y="610" type="line"/>
      <point x="63" y="545" type="line"/>
    </contour>
  </outline>
</glyph>
<glyph name="dSha" format="2">
  <advance width="708"/>
  <unicode hex="0936"/>
  <outline>
    <contour>
      <point x="157" y="177" type="curve" smooth="yes"/>
      <point x="269" y="177"/>
      <point x="465" y="267"/>
      <point x="465" y="436" type="curve" smooth="yes"/>
      <point x="465" y="539"/>
      <point x="368" y="612"/>
      <point x="298" y="612" type="curve" smooth="yes"/>
      <point x="226" y="612"/>
      <point x="139" y="565"/>
      <point x="139" y="476" type="curve" smooth="yes"/>
      <point x="139" y="409"/>
      <point x="198" y="342"/>
      <point x="310" y="298" type="curve"/>
      <point x="344" y="327" type="line"/>
      <point x="258" y="366"/>
      <point x="221" y="415"/>
      <point x="221" y="461" type="curve" smooth="yes"/>
      <point x="221" y="502"/>
      <point x="247" y="552"/>
      <point x="317" y="552" type="curve" smooth="yes"/>
      <point x="351" y="552"/>
      <point x="394" y="531"/>
      <point x="394" y="466" type="curve" smooth="yes"/>
      <point x="394" y="365"/>
      <point x="312" y="288"/>
      <point x="188" y="257" type="curve"/>
      <point x="158" y="280"/>
      <point x="121" y="302"/>
      <point x="84" y="302" type="curve" smooth="yes"/>
      <point x="54" y="302"/>
      <point x="44" y="289"/>
      <point x="44" y="269" type="curve" smooth="yes"/>
      <point x="44" y="232"/>
      <point x="94" y="177"/>
    </contour>
    <contour>
      <point x="315" y="-20" type="line"/>
      <point x="370" y="19" type="line"/>
      <point x="213" y="220" type="line"/>
      <point x="159" y="217" type="line"/>
      <point x="305" y="-20" type="line"/>
    </contour>
    <contour>
      <point x="570" y="-15" type="line"/>
      <point x="683" y="581" type="line"/>
      <point x="599" y="581" type="line"/>
      <point x="492" y="47" type="line"/>
      <point x="560" y="-15" type="line"/>
    </contour>
    <contour>
      <point x="203" y="545" type="line"/>
      <point x="314" y="594" type="line"/>
      <point x="408" y="545" type="line"/>
      <point x="793" y="545" type="line"/>
      <point x="795" y="555" type="line"/>
      <point x="764" y="620" type="line"/>
      <point x="34" y="620" type="line"/>
      <point x="32" y="610" type="line"/>
      <point x="63" y="545" type="line"/>
    </contour>
  </outline>
</glyph>
<glyph name="dSignOe" format="2">
  <unicode hex="093A"/>
  <outline>
    <contour>
      <point x="-20" y="608" type="line"/>
      <point x="6" y="746" type="line"/>
      <point x="-52" y="812" type="line"/>
      <point x="-62" y="812" type="line"/>
      <point x="-104" y="608" type="line"/>
    </contour>
  </outline>
</glyph>
<glyph name="dNukta" format="2">
  <unicode hex="093C"/>
  <outline>
    <contour>
      <point x="-131" y="-110" type="line"/>
      <point x="-192" y="-40" type="line"/>
      <point x="-270" y="-108" type="line"/>
      <point x="-209" y="-178" type="line"/>
    </contour>
  </outline>
</glyph>
<glyph name="dGrave" format="2">
  <unicode hex="0953"/>
  <outline>
    <contour>
      <point x="-129" y="853" type="line"/>
      <point x="22" y="673" type="line"/>
      <point x="60" y="705" type="line"/>
      <point x="-92" y="884" type="line"/>
    </contour>
  </outline>
</glyph>
<glyph name="dAcute" format="2">
  <unicode hex="0954"/>
  <outline>
    <contour>
      <point x="73" y="888" type="line"/>
      <point x="-149" y="709" type="line"/>
      <point x="-118" y="670" type="line"/>
      <point x="103" y="850" type="line"/>
    </contour>
  </outline>
</glyph>
<glyph name="dSignCandraELong" format="2">
  <unicode hex="0955"/>
  <outline>
    <contour>
      <point x="-199" y="919" type="line"/>
      <point x="-173" y="824"/>
      <point x="-117" y="759"/>
      <point x="-31" y="759" type="curve" smooth="yes"/>
      <point x="36" y="759"/>
      <point x="109" y="795"/>
      <point x="166" y="892" type="curve"/>
      <point x="105" y="946" type="line"/>
      <point x="75" y="890"/>
      <point x="21" y="825"/>
      <point x="-45" y="825" type="curve" smooth="yes"/>
      <point x="-88" y="825"/>
      <point x="-135" y="854"/>
      <point x="-164" y="936" type="curve"/>
    </contour>
    <contour>
      <point x="-209" y="722" type="line"/>
      <point x="-219" y="672" type="line"/>
      <point x="100" y="672" type="line"/>
      <point x="110" y="722" type="line"/>
    </contour>
  </outline>
</glyph>
<glyph name="dSignUe" format="2">
  <unicode hex="0956"/>
  <outline>
    <contour>
      <point x="-516" y="-80" type="line"/>
      <point x="-475" y="-140"/>
      <point x="-407" y="-184"/>
      <point x="-313" y="-184" type="curve" smooth="yes"/>
      <point x="-233" y="-184"/>
      <point x="-146" y="-159"/>
      <point x="-87" y="-91" type="curve"/>
      <point x="-144" y="-39" type="line"/>
      <point x="-177" y="-74"/>
      <point x="-241" y="-117"/>
      <point x="-327" y="-117" type="curve" smooth="yes"/>
      <point x="-381" y="-117"/>
      <point x="-440" y="-100"/>
      <point x="-486" y="-52" type="curve"/>
    </contour>
  </outline>
</glyph>
<glyph name="dSignUue" format="2">
  <unicode hex="0957"/>
  <outline>
    <contour>
      <point x="-539" y="-214" type="line"/>
      <point x="-500" y="-270"/>
      <point x="-431" y="-318"/>
      <point x="-324" y="-318" type="curve" smooth="yes"/>
      <point x="-249" y="-318"/>
      <point x="-172" y="-298"/>
      <point x="-113" y="-246" type="curve"/>
      <point x="-164" y="-191" type="line"/>
      <point x="-194" y="-217"/>
      <point x="-252" y="-252"/>
      <point x="-341" y="-252" type="curve" smooth="yes"/>
      <point x="-399" y="-252"/>
      <point x="-464" y="-235"/>
      <point x="-511" y="-187" type="curve"/>
    </contour>
    <contour>
      <point x="-516" y="-80" type="line"/>
      <point x="-475" y="-140"/>
      <point x="-407" y="-184"/>
      <point x="-313" y="-184" type="curve" smooth="yes"/>
      <point x="-233" y="-184"/>
      <point x="-147" y="-157"/>
      <point x="-87" y="-88" type="curve"/>
      <point x="-142" y="-39" type="line"/>
      <point x="-175" y="-74"/>
      <point x="-241" y="-117"/>
      <point x="-327" y="-117" type="curve" smooth="yes"/>
      <point x="-381" y="-117"/>
      <point x="-440" y="-100"/>
      <point x="-486" y="-52" type="curve"/>
    </contour>
  </outline>
</glyph>
<glyph name="Danda" format="2">
  <advance width="256"/>
  <unicode hex="0964"/>
  <outline>
    <contour>
      <point x="119" y="-15" type="line"/>
      <point x="233" y="570" type="line"/>
      <point x="169" y="630" type="line"/>
      <point x="159" y="630" type="line"/>
      <point x="45" y="45" type="line"/>
      <point x="109" y="-15" type="line"/>
    </contour>
  </outline>
</glyph>
<glyph name="dFour" format="2">
  <advance width="552"/>
  <unicode hex="096A"/>
  <outline>
    <contour>
      <point x="270" y="26" type="curve" smooth="yes"/>
      <point x="348" y="26"/>
      <point x="408" y="77"/>
      <point x="408" y="153" type="curve" smooth="yes"/>
      <point x="408" y="205"/>
      <point x="375" y="272"/>
      <point x="324" y="332" type="curve" smooth="yes"/>
      <point x="290" y="372"/>
      <point x="171" y="506"/>
      <point x="94" y="586" type="curve"/>
      <point x="43" y="544" type="line"/>
      <point x="162" y="440"/>
      <point x="203" y="395"/>
      <point x="288" y="299" type="curve" smooth="yes"/>
      <point x="336" y="245"/>
      <point x="345" y="205"/>
      <point x="345" y="182" type="curve" smooth="yes"/>
      <point x="345" y="128"/>
      <point x="295" y="90"/>
      <point x="245" y="90" type="curve" smooth="yes"/>
      <point x="205" y="90"/>
      <point x="183" y="114"/>
      <point x="183" y="144" type="curve" smooth="yes"/>
      <point x="183" y="181"/>
      <point x="216" y="216"/>
      <point x="313" y="297" type="curve" smooth="yes"/>
      <point x="452" y="413"/>
      <point x="574" y="501"/>
      <point x="590" y="513" type="curve"/>
      <point x="565" y="592" type="line"/>
      <point x="558" y="592" type="line"/>
      <point x="418" y="486"/>
      <point x="312" y="403"/>
      <point x="260" y="358" type="curve" smooth="yes"/>
      <point x="151" y="263"/>
      <point x="123" y="227"/>
      <point x="123" y="174" type="curve" smooth="yes"/>
      <point x="123" y="94"/>
      <point x="182" y="26"/>
    </contour>
  </outline>
</glyph>
<glyph name="dFive" format="2">
  <advance width="545"/>
  <unicode hex="096B"/>
  <outline>
    <contour>
      <point x="268" y="-169" type="line"/>
      <point x="322" y="-139" type="line"/>
      <point x="229" y="49" type="line" smooth="yes"/>
      <point x="183" y="141"/>
      <point x="149" y="159"/>
      <point x="131" y="159" type="curve" smooth="yes"/>
      <point x="101" y="159"/>
      <point x="83" y="110"/>
      <point x="83" y="84" type="curve" smooth="yes"/>
      <point x="83" y="35"/>
      <point x="140" y="9"/>
      <point x="214" y="9" type="curve" smooth="yes"/>
      <point x="319" y="9"/>
      <point x="422" y="76"/>
      <point x="459" y="262" type="curve" smooth="yes"/>
      <point x="513" y="528" type="line"/>
      <point x="449" y="575" type="line"/>
      <point x="439" y="575" type="line"/>
      <point x="390" y="294" type="line"/>
      <point x="363" y="138"/>
      <point x="278" y="80"/>
      <point x="212" y="76" type="curve"/>
      <point x="184" y="76" type="line"/>
      <point x="191" y="18" type="line"/>
      <point x="259" y="-169" type="line"/>
    </contour>
    <contour>
      <point x="277" y="206" type="curve" smooth="yes"/>
      <point x="324" y="206"/>
      <point x="355" y="218"/>
      <point x="394" y="251" type="curve"/>
      <point x="420" y="363" type="line"/>
      <point x="345" y="292"/>
      <point x="284" y="274"/>
      <point x="249" y="274" type="curve" smooth="yes"/>
      <point x="205" y="274"/>
      <point x="178" y="303"/>
      <point x="178" y="359" type="curve" smooth="yes"/>
      <point x="178" y="398"/>
      <point x="202" y="463"/>
      <point x="244" y="548" type="curve"/>
      <point x="179" y="602" type="line"/>
      <point x="169" y="602" type="line"/>
      <point x="134" y="522"/>
      <point x="105" y="455"/>
      <point x="105" y="401" type="curve" smooth="yes"/>
      <point x="105" y="309"/>
      <point x="181" y="206"/>
    </contour>
  </outline>
</glyph>
<glyph name="dEight" format="2">
  <advance width="570"/>
  <unicode hex="096E"/>
  <outline>
    <contour>
      <point x="184" y="452" type="line"/>
      <point x="122" y="387"/>
      <point x="79" y="326"/>
      <point x="79" y="260" type="curve" smooth="yes"/>
      <point x="79" y="163"/>
      <point x="178" y="77"/>
      <point x="280" y="77" type="curve" smooth="yes"/>
      <point x="351" y="77"/>
      <point x="402" y="110"/>
      <point x="443" y="110" type="curve" smooth="yes"/>
      <point x="462" y="110"/>
      <point x="474" y="100"/>
      <point x="474" y="83" type="curve" smooth="yes"/>
      <point x="474" y="47"/>
      <point x="428" y="4"/>
      <point x="367" y="-30" type="curve"/>
      <point x="427" y="-97" type="line"/>
      <point x="500" y="-56"/>
      <point x="531" y="-10"/>
      <point x="531" y="50" type="curve" smooth="yes"/>
      <point x="531" y="123"/>
      <point x="467" y="185"/>
      <point x="409" y="185" type="curve" smooth="yes"/>
      <point x="359" y="185"/>
      <point x="302" y="151"/>
      <point x="242" y="151" type="curve" smooth="yes"/>
      <point x="194" y="151"/>
      <point x="157" y="167"/>
      <point x="157" y="227" type="curve" smooth="yes"/>
      <point x="157" y="292"/>
      <point x="222" y="384"/>
      <point x="299" y="452" type="curve"/>
    </contour>
    <contour>
      <point x="540" y="435" type="line"/>
      <point x="542" y="445" type="line"/>
      <point x="511" y="510" type="line"/>
      <point x="50" y="510" type="line"/>
      <point x="48" y="500" type="line"/>
      <point x="79" y="435" type="line"/>
    </contour>
  </outline>
</glyph>
<glyph name="dNine" format="2">
  <advance width="551"/>
  <unicode hex="096F"/>
  <outline>
    <contour>
      <point x="425" y="-157" type="line"/>
      <point x="491" y="-118"/>
      <point x="529" y="-73"/>
      <point x="529" y="-12" type="curve" smooth="yes"/>
      <point x="529" y="60"/>
      <point x="467" y="125"/>
      <point x="407" y="125" type="curve" smooth="yes"/>
      <point x="356" y="125"/>
      <point x="300" y="91"/>
      <point x="240" y="91" type="curve" smooth="yes"/>
      <point x="192" y="91"/>
      <point x="155" y="109"/>
      <point x="155" y="161" type="curve" smooth="yes"/>
      <point x="155" y="213"/>
      <point x="201" y="292"/>
      <point x="431" y="304" type="curve"/>
      <point x="405" y="380" type="line"/>
      <point x="228" y="366"/>
      <point x="88" y="311"/>
      <point x="88" y="190" type="curve" smooth="yes"/>
      <point x="88" y="95"/>
      <point x="182" y="15"/>
      <point x="282" y="15" type="curve" smooth="yes"/>
      <point x="343" y="15"/>
      <point x="402" y="50"/>
      <point x="441" y="50" type="curve" smooth="yes"/>
      <point x="460" y="50"/>
      <point x="473" y="40"/>
      <point x="473" y="22" type="curve" smooth="yes"/>
      <point x="473" y="-19"/>
      <point x="425" y="-53"/>
      <point x="365" y="-90" type="curve"/>
    </contour>
    <contour>
      <point x="238" y="344" type="line"/>
      <point x="216" y="347"/>
      <point x="179" y="373"/>
      <point x="179" y="420" type="curve" smooth="yes"/>
      <point x="179" y="491"/>
      <point x="264" y="511"/>
      <point x="339" y="511" type="curve" smooth="yes"/>
      <point x="373" y="511"/>
      <point x="411" y="507"/>
      <point x="434" y="503" type="curve"/>
      <point x="421" y="585" type="line"/>
      <point x="393" y="590"/>
      <point x="363" y="593"/>
      <point x="330" y="593" type="curve" smooth="yes"/>
      <point x="186" y="593"/>
      <point x="108" y="535"/>
      <point x="108" y="455" type="curve" smooth="yes"/>
      <point x="108" y="405"/>
      <point x="139" y="353"/>
      <point x="190" y="307" type="curve"/>
    </contour>
  </outline>
</glyph>
<glyph name="dDdaMarwari" format="2">
  <advance width="509"/>
  <unicode hex="0978"/>
  <outline>
    <contour>
      <point x="292" y="-10" type="line"/>
      <point x="364" y="36"/>
      <point x="463" y="101"/>
      <point x="463" y="213" type="curve" smooth="yes"/>
      <point x="463" y="297"/>
      <point x="397" y="404"/>
      <point x="279" y="404" type="curve" smooth="yes"/>
      <point x="242" y="404"/>
      <point x="200" y="395"/>
      <point x="163" y="388" type="curve" smooth="yes"/>
      <point x="91" y="374"/>
      <point x="68" y="362"/>
      <point x="68" y="331" type="curve" smooth="yes"/>
      <point x="68" y="284"/>
      <point x="139" y="211"/>
      <point x="179" y="211" type="curve" smooth="yes"/>
      <point x="192" y="211"/>
      <point x="203" y="219"/>
      <point x="206" y="236" type="curve" smooth="yes"/>
      <point x="271" y="581" type="line"/>
      <point x="189" y="581" type="line"/>
      <point x="147" y="370" type="line"/>
      <point x="182" y="296" type="line"/>
      <point x="239" y="321"/>
      <point x="281" y="329"/>
      <point x="314" y="329" type="curve" smooth="yes"/>
      <point x="368" y="329"/>
      <point x="405" y="298"/>
      <point x="405" y="249" type="curve" smooth="yes"/>
      <point x="405" y="154"/>
      <point x="286" y="89"/>
      <point x="225" y="49" type="curve"/>
      <point x="282" y="-10" type="line"/>
    </contour>
    <contour>
      <point x="594" y="545" type="line"/>
      <point x="596" y="555" type="line"/>
      <point x="565" y="620" type="line"/>
      <point x="34" y="620" type="line"/>
      <point x="32" y="610" type="line"/>
      <point x="63" y="545" type="line"/>
    </contour>
  </outline>
</glyph>
<glyph name="dJjya" format="2">
  <advance width="582"/>
  <unicode hex="097A"/>
  <outline>
    <contour>
      <point x="667" y="545" type="line"/>
      <point x="669" y="555" type="line"/>
      <point x="638" y="620" type="line"/>
      <point x="34" y="620" type="line"/>
      <point x="32" y="610" type="line"/>
      <point x="63" y="545" type="line"/>
    </contour>
    <contour>
      <point x="418" y="251" type="line"/>
      <point x="265" y="558" type="line"/>
      <point x="235" y="523" type="line"/>
      <point x="385" y="223" type="line"/>
    </contour>
    <contour>
      <point x="212" y="561" type="line"/>
      <point x="228" y="528"/>
      <point x="235" y="500"/>
      <point x="235" y="481" type="curve" smooth="yes"/>
      <point x="235" y="427"/>
      <point x="183" y="398"/>
      <point x="63" y="370" type="curve"/>
      <point x="62" y="248"/>
      <point x="149" y="131"/>
      <point x="277" y="131" type="curve" smooth="yes"/>
      <point x="318" y="131"/>
      <point x="370" y="142"/>
      <point x="420" y="180" type="curve"/>
      <point x="432" y="278" type="line"/>
      <point x="363" y="223"/>
      <point x="290" y="194"/>
      <point x="239" y="194" type="curve" smooth="yes"/>
      <point x="171" y="194"/>
      <point x="129" y="241"/>
      <point x="138" y="304" type="curve"/>
      <point x="258" y="336"/>
      <point x="294" y="387"/>
      <point x="294" y="447" type="curve" smooth="yes"/>
      <point x="294" y="478"/>
      <point x="284" y="515"/>
      <point x="265" y="562" type="curve"/>
    </contour>
    <contour>
      <point x="478" y="581" type="line"/>
      <point x="372" y="52" type="line"/>
      <point x="439" y="-10" type="line"/>
      <point x="449" y="-10" type="line"/>
      <point x="562" y="581" type="line"/>
    </contour>
  </outline>
</glyph>
<glyph name="dGga" format="2">
  <advance width="583"/>
  <unicode hex="097B"/>
  <outline>
    <contour>
      <point x="190" y="180" type="curve" smooth="yes"/>
      <point x="205" y="180"/>
      <point x="215" y="188"/>
      <point x="218" y="205" type="curve" smooth="yes"/>
      <point x="289" y="581" type="line"/>
      <point x="207" y="581" type="line"/>
      <point x="163" y="357" type="line"/>
      <point x="99" y="357" type="line" smooth="yes"/>
      <point x="78" y="357"/>
      <point x="68" y="343"/>
      <point x="68" y="326" type="curve" smooth="yes"/>
      <point x="68" y="279"/>
      <point x="149" y="180"/>
    </contour>
    <contour>
      <point x="446" y="0" type="line"/>
      <point x="448" y="10" type="line"/>
      <point x="433" y="57" type="line"/>
      <point x="56" y="57" type="line"/>
      <point x="54" y="47" type="line"/>
      <point x="79" y="0" type="line"/>
    </contour>
    <contour>
      <point x="447" y="0" type="line"/>
      <point x="558" y="581" type="line"/>
      <point x="475" y="581" type="line"/>
      <point x="366" y="41" type="line"/>
      <point x="437" y="0" type="line"/>
    </contour>
    <contour>
      <point x="668" y="545" type="line"/>
      <point x="670" y="555" type="line"/>
      <point x="639" y="620" type="line"/>
      <point x="34" y="620" type="line"/>
      <point x="32" y="610" type="line"/>
      <point x="63" y="545" type="line"/>
    </contour>
  </outline>
  <guideline angle="90" x="53" y="0"/>
</glyph>
<glyph name="dJja" format="2">
  <advance width="730"/>
  <unicode hex="097C"/>
  <outline>
    <contour>
      <point x="312" y="109" type="curve" smooth="yes"/>
      <point x="395" y="109"/>
      <point x="457" y="152"/>
      <point x="457" y="239" type="curve" smooth="yes"/>
      <point x="457" y="284"/>
      <point x="429" y="332"/>
      <point x="385" y="385" type="curve"/>
      <point x="306" y="375" type="line"/>
      <point x="359" y="350"/>
      <point x="385" y="314"/>
      <point x="385" y="277" type="curve" smooth="yes"/>
      <point x="385" y="224"/>
      <point x="346" y="190"/>
      <point x="286" y="190" type="curve" smooth="yes"/>
      <point x="198" y="190"/>
      <point x="138" y="285"/>
      <point x="97" y="425" type="curve"/>
      <point x="55" y="408" type="line"/>
      <point x="98" y="254"/>
      <point x="176" y="109"/>
    </contour>
    <contour>
      <point x="591" y="0" type="line"/>
      <point x="593" y="10" type="line"/>
      <point x="578" y="57" type="line"/>
      <point x="40" y="57" type="line"/>
      <point x="38" y="47" type="line"/>
      <point x="63" y="0" type="line"/>
    </contour>
    <contour>
      <point x="624" y="369" type="line"/>
      <point x="640" y="444" type="line"/>
      <point x="283" y="444" type="line"/>
      <point x="281" y="433" type="line"/>
      <point x="306" y="375" type="line"/>
      <point x="385" y="369" type="line"/>
    </contour>
    <contour>
      <point x="594" y="0" type="line"/>
      <point x="705" y="581" type="line"/>
      <point x="621" y="581" type="line"/>
      <point x="515" y="52" type="line"/>
      <point x="584" y="0" type="line"/>
    </contour>
    <contour>
      <point x="815" y="545" type="line"/>
      <point x="817" y="555" type="line"/>
      <point x="786" y="620" type="line"/>
      <point x="34" y="620" type="line"/>
      <point x="32" y="610" type="line"/>
      <point x="63" y="545" type="line"/>
    </contour>
  </outline>
  <guideline angle="90" x="17" y="0"/>
</glyph>
<glyph name="dGlottalStop" format="2">
  <advance width="423"/>
  <unicode hex="097D"/>
  <outline>
    <contour>
      <point x="123" y="53" type="line"/>
      <point x="192" y="-10" type="line"/>
      <point x="202" y="-10" type="line"/>
      <point x="245" y="231" type="line" smooth="yes"/>
      <point x="253" y="279"/>
      <point x="271" y="286"/>
      <point x="320" y="322" type="curve" smooth="yes"/>
      <point x="372" y="360"/>
      <point x="429" y="395"/>
      <point x="429" y="469" type="curve" smooth="yes"/>
      <point x="429" y="527"/>
      <point x="393" y="633"/>
      <point x="288" y="633" type="curve" smooth="yes"/>
      <point x="232" y="633"/>
      <point x="173" y="611"/>
      <point x="125" y="586" type="curve"/>
      <point x="154" y="511" type="line"/>
      <point x="202" y="537"/>
      <point x="268" y="561"/>
      <point x="315" y="561" type="curve" smooth="yes"/>
      <point x="359" y="561"/>
      <point x="372" y="537"/>
      <point x="372" y="511" type="curve" smooth="yes"/>
      <point x="372" y="458"/>
      <point x="325" y="425"/>
      <point x="267" y="385" type="curve" smooth="yes"/>
      <point x="220" y="352"/>
      <point x="181" y="324"/>
      <point x="168" y="264" type="curve" smooth="yes"/>
    </contour>
  </outline>
</glyph>
<glyph name="dDdda" format="2">
  <advance width="577"/>
  <unicode hex="097E"/>
  <outline>
    <contour>
      <point x="497" y="-77" type="line"/>
      <point x="499" y="-67" type="line"/>
      <point x="473" y="-20" type="line"/>
      <point x="24" y="-20" type="line"/>
      <point x="22" y="-30" type="line"/>
      <point x="48" y="-77" type="line"/>
    </contour>
    <contour>
      <point x="662" y="545" type="line"/>
      <point x="664" y="555" type="line"/>
      <point x="632" y="620" type="line"/>
      <point x="33" y="620" type="line"/>
      <point x="31" y="610" type="line"/>
      <point x="63" y="545" type="line"/>
    </contour>
    <contour>
      <point x="328" y="27" type="curve" smooth="yes"/>
      <point x="444" y="27"/>
      <point x="518" y="86"/>
      <point x="518" y="169" type="curve" smooth="yes"/>
      <point x="518" y="241"/>
      <point x="459" y="313"/>
      <point x="408" y="313" type="curve" smooth="yes"/>
      <point x="370" y="313"/>
      <point x="267" y="288"/>
      <point x="244" y="288" type="curve" smooth="yes"/>
      <point x="223" y="288"/>
      <point x="203" y="310"/>
      <point x="203" y="336" type="curve" smooth="yes"/>
      <point x="203" y="376"/>
      <point x="229" y="395"/>
      <point x="285" y="395" type="curve" smooth="yes"/>
      <point x="488" y="395" type="line"/>
      <point x="502" y="403" type="line"/>
      <point x="512" y="455"/>
      <point x="525" y="527"/>
      <point x="535" y="581" type="curve"/>
      <point x="454" y="581" type="line"/>
      <point x="432" y="470" type="line"/>
      <point x="282" y="470" type="line" smooth="yes"/>
      <point x="180" y="470"/>
      <point x="137" y="429"/>
      <point x="137" y="369" type="curve" smooth="yes"/>
      <point x="137" y="297"/>
      <point x="203" y="216"/>
      <point x="263" y="216" type="curve" smooth="yes"/>
      <point x="297" y="216"/>
      <point x="387" y="240"/>
      <point x="426" y="240" type="curve" smooth="yes"/>
      <point x="447" y="240"/>
      <point x="458" y="226"/>
      <point x="458" y="208" type="curve" smooth="yes"/>
      <point x="458" y="176"/>
      <point x="428" y="102"/>
      <point x="304" y="102" type="curve" smooth="yes"/>
      <point x="165" y="102"/>
      <point x="105" y="195"/>
      <point x="71" y="301" type="curve"/>
      <point x="32" y="280" type="line"/>
      <point x="77" y="117"/>
      <point x="179" y="27"/>
    </contour>
  </outline>
  <guideline angle="90" x="536" y="0"/>
</glyph>
<glyph name="dBba" format="2">
  <advance width="602"/>
  <unicode hex="097F"/>
  <outline>
    <contour>
      <point x="460" y="0" type="line"/>
      <point x="462" y="10" type="line"/>
      <point x="446" y="57" type="line"/>
      <point x="33" y="57" type="line"/>
      <point x="31" y="47" type="line"/>
      <point x="57" y="0" type="line"/>
    </contour>
    <contour>
      <point x="466" y="0" type="line"/>
      <point x="579" y="591" type="line"/>
      <point x="495" y="591" type="line"/>
      <point x="447" y="354" type="line"/>
      <point x="420" y="354" type="line"/>
      <point x="388" y="199" type="line"/>
      <point x="415" y="199" type="line"/>
      <point x="386" y="52" type="line"/>
      <point x="456" y="0" type="line"/>
    </contour>
    <contour>
      <point x="687" y="545" type="line"/>
      <point x="689" y="555" type="line"/>
      <point x="657" y="620" type="line"/>
      <point x="33" y="620" type="line"/>
      <point x="31" y="610" type="line"/>
      <point x="63" y="545" type="line"/>
    </contour>
    <contour>
      <point x="246" y="133" type="curve" smooth="yes"/>
      <point x="359" y="133"/>
      <point x="453" y="195"/>
      <point x="453" y="308" type="curve" smooth="yes"/>
      <point x="453" y="408"/>
      <point x="359" y="472"/>
      <point x="259" y="472" type="curve" smooth="yes"/>
      <point x="140" y="472"/>
      <point x="53" y="402"/>
      <point x="53" y="303" type="curve" smooth="yes"/>
      <point x="53" y="216"/>
      <point x="132" y="133"/>
    </contour>
    <contour>
      <point x="221" y="197" type="curve" smooth="yes"/>
      <point x="159" y="197"/>
      <point x="118" y="228"/>
      <point x="118" y="276" type="curve" smooth="yes"/>
      <point x="118" y="348"/>
      <point x="207" y="399"/>
      <point x="292" y="399" type="curve" smooth="yes"/>
      <point x="352" y="399"/>
      <point x="399" y="379"/>
      <point x="399" y="328" type="curve" smooth="yes"/>
      <point x="399" y="259"/>
      <point x="309" y="197"/>
    </contour>
    <contour>
      <point x="340" y="207" type="line"/>
      <point x="213" y="417" type="line"/>
      <point x="172" y="402" type="line"/>
      <point x="307" y="178" type="line"/>
    </contour>
  </outline>
  <guideline angle="90" x="41" y="0"/>
</glyph>
<glyph name="niFractionOneQuarter" format="2">
  <advance width="256"/>
  <unicode hex="A830"/>
  <outline>
    <contour>
      <point x="121" y="-5" type="line"/>
      <point x="233" y="568" type="line"/>
      <point x="168" y="628" type="line"/>
      <point x="158" y="628" type="line"/>
      <point x="47" y="55" type="line"/>
      <point x="111" y="-5" type="line"/>
    </contour>
  </outline>
</glyph>
<glyph name="niFractionOneHalf" format="2">
  <advance width="462"/>
  <unicode hex="A831"/>
  <outline>
    <contour>
      <point x="121" y="-5" type="line"/>
      <point x="233" y="568" type="line"/>
      <point x="168" y="628" type="line"/>
      <point x="158" y="628" type="line"/>
      <point x="47" y="55" type="line"/>
      <point x="111" y="-5" type="line"/>
    </contour>
    <contour>
      <point x="327" y="-5" type="line"/>
      <point x="439" y="568" type="line"/>
      <point x="374" y="628" type="line"/>
      <point x="364" y="628" type="line"/>
      <point x="253" y="55" type="line"/>
      <point x="317" y="-5" type="line"/>
    </contour>
  </outline>
</glyph>
<glyph name="niFractionThreeQuarters" format="2">
  <advance width="668"/>
  <unicode hex="A832"/>
  <outline>
    <contour>
      <point x="121" y="-5" type="line"/>
      <point x="233" y="568" type="line"/>
      <point x="168" y="628" type="line"/>
      <point x="158" y="628" type="line"/>
      <point x="47" y="55" type="line"/>
      <point x="111" y="-5" type="line"/>
    </contour>
    <contour>
      <point x="327" y="-5" type="line"/>
      <point x="439" y="568" type="line"/>
      <point x="374" y="628" type="line"/>
      <point x="364" y="628" type="line"/>
      <point x="253" y="55" type="line"/>
      <point x="317" y="-5" type="line"/>
    </contour>
    <contour>
      <point x="533" y="-5" type="line"/>
      <point x="645" y="568" type="line"/>
      <point x="580" y="628" type="line"/>
      <point x="570" y="628" type="line"/>
      <point x="459" y="55" type="line"/>
      <point x="523" y="-5" type="line"/>
    </contour>
  </outline>
  <guideline angle="0" x="0" y="383"/>
</glyph>
<glyph name="niFractionOneSixteenth" format="2">
  <advance width="628"/>
  <unicode hex="A833"/>
  <outline>
    <contour>
      <point x="644" y="540" type="line"/>
      <point x="597" y="602" type="line"/>
      <point x="88" y="499" type="line"/>
      <point x="86" y="489" type="line"/>
      <point x="134" y="426" type="line"/>
      <point x="642" y="530" type="line"/>
    </contour>
  </outline>
</glyph>
<glyph name="niFractionOneEighth" format="2">
  <advance width="628"/>
  <unicode hex="A834"/>
  <outline>
    <contour>
      <point x="644" y="540" type="line"/>
      <point x="596" y="602" type="line"/>
      <point x="88" y="499" type="line"/>
      <point x="86" y="489" type="line"/>
      <point x="134" y="426" type="line"/>
      <point x="642" y="530" type="line"/>
    </contour>
    <contour>
      <point x="603" y="331" type="line"/>
      <point x="556" y="393" type="line"/>
      <point x="47" y="290" type="line"/>
      <point x="45" y="280" type="line"/>
      <point x="93" y="217" type="line"/>
      <point x="601" y="321" type="line"/>
    </contour>
  </outline>
  <guideline angle="0" x="0" y="305"/>
</glyph>
<glyph name="niFractionThreeSixteenths" format="2">
  <advance width="628"/>
  <unicode hex="A835"/>
  <outline>
    <contour>
      <point x="644" y="540" type="line"/>
      <point x="597" y="602" type="line"/>
      <point x="88" y="499" type="line"/>
      <point x="86" y="489" type="line"/>
      <point x="134" y="426" type="line"/>
      <point x="642" y="530" type="line"/>
    </contour>
    <contour>
      <point x="563" y="122" type="line"/>
      <point x="516" y="184" type="line"/>
      <point x="7" y="81" type="line"/>
      <point x="5" y="71" type="line"/>
      <point x="53" y="8" type="line"/>
      <point x="561" y="112" type="line"/>
    </contour>
    <contour>
      <point x="604" y="331" type="line"/>
      <point x="556" y="393" type="line"/>
      <point x="48" y="290" type="line"/>
      <point x="46" y="280" type="line"/>
      <point x="94" y="217" type="line"/>
      <point x="602" y="321" type="line"/>
    </contour>
  </outline>
  <guideline angle="0" x="0" y="305"/>
</glyph>
<glyph name="niQuarterMark" format="2">
  <advance width="459"/>
  <unicode hex="A836"/>
  <outline>
    <contour>
      <point x="237" y="454" type="curve" smooth="yes"/>
      <point x="149" y="454"/>
      <point x="67" y="385"/>
      <point x="67" y="289" type="curve" smooth="yes"/>
      <point x="67" y="196"/>
      <point x="143" y="121"/>
      <point x="235" y="121" type="curve" smooth="yes"/>
      <point x="322" y="121"/>
      <point x="406" y="189"/>
      <point x="406" y="282" type="curve" smooth="yes"/>
      <point x="406" y="369"/>
      <point x="334" y="454"/>
    </contour>
    <contour>
      <point x="280" y="387" type="curve" smooth="yes"/>
      <point x="321" y="387"/>
      <point x="339" y="361"/>
      <point x="339" y="326" type="curve" smooth="yes"/>
      <point x="339" y="253"/>
      <point x="262" y="188"/>
      <point x="195" y="188" type="curve" smooth="yes"/>
      <point x="150" y="188"/>
      <point x="129" y="217"/>
      <point x="129" y="250" type="curve" smooth="yes"/>
      <point x="129" y="317"/>
      <point x="212" y="387"/>
    </contour>
  </outline>
</glyph>
<glyph name="niPlaceholderMark" format="2">
  <advance width="487"/>
  <unicode hex="A837"/>
  <outline>
    <contour>
      <point x="281" y="383" type="line"/>
      <point x="289" y="414" type="line"/>
      <point x="370" y="445"/>
      <point x="451" y="483"/>
      <point x="515" y="538" type="curve"/>
      <point x="487" y="620" type="line"/>
      <point x="480" y="620" type="line"/>
      <point x="379" y="536"/>
      <point x="339" y="503"/>
      <point x="178" y="417" type="curve" smooth="yes"/>
      <point x="88" y="368"/>
      <point x="60" y="312"/>
      <point x="60" y="257" type="curve"/>
    </contour>
    <contour>
      <point x="60" y="258" type="line"/>
      <point x="60" y="165"/>
      <point x="136" y="90"/>
      <point x="228" y="90" type="curve" smooth="yes"/>
      <point x="315" y="90"/>
      <point x="399" y="158"/>
      <point x="399" y="251" type="curve" smooth="yes"/>
      <point x="399" y="338"/>
      <point x="327" y="423"/>
      <point x="230" y="423" type="curve"/>
    </contour>
    <contour>
      <point x="273" y="356" type="curve" smooth="yes"/>
      <point x="314" y="356"/>
      <point x="332" y="330"/>
      <point x="332" y="295" type="curve" smooth="yes"/>
      <point x="332" y="222"/>
      <point x="255" y="157"/>
      <point x="188" y="157" type="curve" smooth="yes"/>
      <point x="143" y="157"/>
      <point x="122" y="186"/>
      <point x="122" y="219" type="curve" smooth="yes"/>
      <point x="122" y="286"/>
      <point x="205" y="356"/>
    </contour>
  </outline>
</glyph>
<glyph name="niRupeeMark" format="2">
  <advance width="195"/>
  <unicode hex="A838"/>
  <outline>
    <contour>
      <point x="143" y="628" type="line"/>
      <point x="132" y="628" type="line"/>
      <point x="118" y="455"/>
      <point x="99" y="321"/>
      <point x="82" y="234" type="curve" smooth="yes"/>
      <point x="51" y="73"/>
      <point x="15" y="6"/>
      <point x="-19" y="-32" type="curve" smooth="yes"/>
      <point x="-90" y="-111"/>
      <point x="-208" y="-136"/>
      <point x="-382" y="-139" type="curve"/>
      <point x="-384" y="-147" type="line"/>
      <point x="-359" y="-221" type="line"/>
      <point x="-162" y="-216"/>
      <point x="-40" y="-173"/>
      <point x="35" y="-82" type="curve" smooth="yes"/>
      <point x="78" y="-29"/>
      <point x="109" y="49"/>
      <point x="137" y="192" type="curve" smooth="yes"/>
      <point x="157" y="296"/>
      <point x="171" y="423"/>
      <point x="183" y="590" type="curve"/>
    </contour>
  </outline>
</glyph>
<glyph name="niQuantityMark" format="2">
  <advance width="326"/>
  <unicode hex="A839"/>
  <outline>
    <contour>
      <point x="351" y="534" type="line"/>
      <point x="328" y="608" type="line"/>
      <point x="198" y="598"/>
      <point x="119" y="560"/>
      <point x="87" y="396" type="curve" smooth="yes"/>
      <point x="67" y="291"/>
      <point x="72" y="159"/>
      <point x="57" y="76" type="curve" smooth="yes"/>
      <point x="34" y="-51"/>
      <point x="-64" y="-131"/>
      <point x="-383" y="-139" type="curve"/>
      <point x="-385" y="-147" type="line"/>
      <point x="-359" y="-221" type="line"/>
      <point x="-34" y="-208"/>
      <point x="83" y="-106"/>
      <point x="110" y="45" type="curve" smooth="yes"/>
      <point x="128" y="143"/>
      <point x="120" y="272"/>
      <point x="139" y="368" type="curve" smooth="yes"/>
      <point x="161" y="480"/>
      <point x="213" y="512"/>
      <point x="349" y="526" type="curve"/>
    </contour>
  </outline>
</glyph>
<glyph name="dOmJain" format="2">
  <advance width="597"/>
  <unicode hex="A8FD"/>
  <outline>
    <contour>
      <point x="400" y="124" type="line" smooth="yes"/>
      <point x="384" y="40"/>
      <point x="334" y="12"/>
      <point x="268" y="12" type="curve" smooth="yes"/>
      <point x="169" y="12"/>
      <point x="96" y="74"/>
      <point x="59" y="124" type="curve"/>
      <point x="28" y="100" type="line"/>
      <point x="77" y="19"/>
      <point x="178" y="-61"/>
      <point x="287" y="-61" type="curve" smooth="yes"/>
      <point x="408" y="-61"/>
      <point x="460" y="6"/>
      <point x="479" y="105" type="curve" smooth="yes"/>
      <point x="584" y="644" type="line" smooth="yes"/>
      <point x="599" y="723"/>
      <point x="629" y="764"/>
      <point x="694" y="764" type="curve" smooth="yes"/>
      <point x="714" y="764"/>
      <point x="734" y="760"/>
      <point x="754" y="754" type="curve"/>
      <point x="757" y="763" type="line"/>
      <point x="731" y="825" type="line"/>
      <point x="719" y="832"/>
      <point x="700" y="837"/>
      <point x="680" y="837" type="curve" smooth="yes"/>
      <point x="587" y="837"/>
      <point x="525" y="764"/>
      <point x="504" y="658" type="curve" smooth="yes"/>
    </contour>
    <contour>
      <point x="185" y="825" type="line"/>
      <point x="210" y="732"/>
      <point x="272" y="672"/>
      <point x="353" y="672" type="curve" smooth="yes"/>
      <point x="416" y="672"/>
      <point x="483" y="705"/>
      <point x="537" y="801" type="curve"/>
      <point x="476" y="854" type="line"/>
      <point x="452" y="806"/>
      <point x="408" y="737"/>
      <point x="336" y="737" type="curve" smooth="yes"/>
      <point x="296" y="737"/>
      <point x="251" y="761"/>
      <point x="223" y="843" type="curve"/>
    </contour>
    <contour>
      <point x="474" y="365" type="line"/>
      <point x="358" y="366"/>
      <point x="206" y="368"/>
      <point x="167" y="368" type="curve" smooth="yes"/>
      <point x="110" y="368"/>
      <point x="85" y="363"/>
      <point x="85" y="321" type="curve" smooth="yes"/>
      <point x="85" y="273"/>
      <point x="136" y="198"/>
      <point x="183" y="198" type="curve" smooth="yes"/>
      <point x="212" y="198"/>
      <point x="222" y="219"/>
      <point x="236" y="291" type="curve"/>
      <point x="460" y="291" type="line"/>
    </contour>
    <contour>
      <point x="542" y="620" type="line"/>
      <point x="121" y="620" type="line"/>
      <point x="120" y="610" type="line"/>
      <point x="151" y="545" type="line"/>
      <point x="528" y="545" type="line"/>
    </contour>
    <contour>
      <point x="362" y="915" type="line"/>
      <point x="291" y="853" type="line"/>
      <point x="344" y="790" type="line"/>
      <point x="417" y="851" type="line"/>
    </contour>
  </outline>
  <guideline angle="90" x="69" y="0"/>
</glyph>
<glyph name="dSignAy" format="2">
  <unicode hex="A8FF"/>
  <outline>
    <contour>
      <point x="-22" y="608" type="line"/>
      <point x="10" y="656"/>
      <point x="31" y="704"/>
      <point x="31" y="742" type="curve" smooth="yes"/>
      <point x="31" y="790"/>
      <point x="5" y="819"/>
      <point x="-30" y="846" type="curve" smooth="yes"/>
      <point x="-81" y="885"/>
      <point x="-119" y="901"/>
      <point x="-119" y="944" type="curve" smooth="yes"/>
      <point x="-119" y="959"/>
      <point x="-115" y="971"/>
      <point x="-111" y="980" type="curve"/>
      <point x="-143" y="988" type="line"/>
      <point x="-158" y="958"/>
      <point x="-173" y="923"/>
      <point x="-173" y="889" type="curve" smooth="yes"/>
      <point x="-173" y="836"/>
      <point x="-140" y="812"/>
      <point x="-93" y="780" type="curve" smooth="yes"/>
      <point x="-57" y="755"/>
      <point x="-27" y="731"/>
      <point x="-27" y="688" type="curve" smooth="yes"/>
      <point x="-27" y="668"/>
      <point x="-37" y="638"/>
      <point x="-57" y="608" type="curve"/>
    </contour>
    <contour>
      <point x="-66" y="608" type="line"/>
      <point x="-54" y="708"/>
      <point x="-83" y="759"/>
      <point x="-172" y="759" type="curve" smooth="yes"/>
      <point x="-202" y="759"/>
      <point x="-246" y="753"/>
      <point x="-273" y="753" type="curve" smooth="yes"/>
      <point x="-320" y="753"/>
      <point x="-335" y="772"/>
      <point x="-339" y="821" type="curve"/>
      <point x="-375" y="811" type="line"/>
      <point x="-372" y="733"/>
      <point x="-360" y="674"/>
      <point x="-274" y="674" type="curve" smooth="yes"/>
      <point x="-244" y="674"/>
      <point x="-205" y="681"/>
      <point x="-175" y="681" type="curve" smooth="yes"/>
      <point x="-133" y="681"/>
      <point x="-93" y="667"/>
      <point x="-99" y="609" type="curve"/>
      <point x="-99" y="608" type="line"/>
    </contour>
  </outline>
</glyph>
<glyph name="dB.half2" format="2">
  <advance width="334"/>
  <outline>
    <contour>
      <point x="250" y="128" type="curve" smooth="yes"/>
      <point x="320" y="128"/>
      <point x="389" y="155"/>
      <point x="459" y="219" type="curve"/>
      <point x="415" y="283" type="line"/>
      <point x="354" y="229"/>
      <point x="289" y="192"/>
      <point x="226" y="192" type="curve" smooth="yes"/>
      <point x="175" y="192"/>
      <point x="117" y="217"/>
      <point x="117" y="278" type="curve" smooth="yes"/>
      <point x="117" y="350"/>
      <point x="196" y="394"/>
      <point x="275" y="394" type="curve" smooth="yes"/>
      <point x="335" y="394"/>
      <point x="387" y="369"/>
      <point x="425" y="336" type="curve"/>
      <point x="451" y="366" type="line"/>
      <point x="405" y="427"/>
      <point x="336" y="467"/>
      <point x="250" y="467" type="curve" smooth="yes"/>
      <point x="141" y="467"/>
      <point x="52" y="393"/>
      <point x="52" y="307" type="curve" smooth="yes"/>
      <point x="52" y="227"/>
      <point x="117" y="128"/>
    </contour>
    <contour>
      <point x="354" y="179" type="line"/>
      <point x="207" y="422" type="line"/>
      <point x="167" y="401" type="line"/>
      <point x="306" y="171" type="line"/>
    </contour>
    <contour>
      <point x="471" y="545" type="line"/>
      <point x="473" y="555" type="line"/>
      <point x="442" y="620" type="line"/>
      <point x="34" y="620" type="line"/>
      <point x="32" y="610" type="line"/>
      <point x="63" y="545" type="line"/>
    </contour>
  </outline>
</glyph>
<glyph name="dBBha" format="2">
  <advance width="987"/>
  <outline>
    <component base="dBha" xOffset="271"/>
    <contour>
      <point x="436" y="545" type="line"/>
      <point x="480" y="620" type="line"/>
      <point x="34" y="620" type="line"/>
      <point x="32" y="610" type="line"/>
      <point x="63" y="545" type="line"/>
    </contour>
    <contour>
      <point x="245" y="98" type="curve" smooth="yes"/>
      <point x="350" y="98"/>
      <point x="452" y="154"/>
      <point x="452" y="267" type="curve" smooth="yes"/>
      <point x="452" y="366"/>
      <point x="373" y="437"/>
      <point x="252" y="437" type="curve" smooth="yes"/>
      <point x="131" y="437"/>
      <point x="46" y="366"/>
      <point x="46" y="268" type="curve" smooth="yes"/>
      <point x="46" y="177"/>
      <point x="120" y="98"/>
    </contour>
    <contour>
      <point x="214" y="162" type="curve" smooth="yes"/>
      <point x="152" y="162"/>
      <point x="110" y="193"/>
      <point x="110" y="242" type="curve" smooth="yes"/>
      <point x="110" y="313"/>
      <point x="199" y="364"/>
      <point x="289" y="364" type="curve" smooth="yes"/>
      <point x="345" y="364"/>
      <point x="392" y="344"/>
      <point x="392" y="294" type="curve" smooth="yes"/>
      <point x="392" y="226"/>
      <point x="304" y="162"/>
    </contour>
    <contour>
      <point x="333" y="172" type="line"/>
      <point x="206" y="382" type="line"/>
      <point x="165" y="367" type="line"/>
      <point x="300" y="143" type="line"/>
    </contour>
  </outline>
</glyph>
<glyph name="dBDha" format="2">
  <advance width="911"/>
  <outline>
    <component base="dDha" xOffset="257"/>
    <contour>
      <point x="424" y="545" type="line"/>
      <point x="480" y="620" type="line"/>
      <point x="34" y="620" type="line"/>
      <point x="32" y="610" type="line"/>
      <point x="63" y="545" type="line"/>
    </contour>
    <contour>
      <point x="52" y="306" type="curve" smooth="yes"/>
      <point x="52" y="229"/>
      <point x="112" y="128"/>
      <point x="251" y="128" type="curve" smooth="yes"/>
      <point x="359" y="128"/>
      <point x="450" y="189"/>
      <point x="450" y="292" type="curve" smooth="yes"/>
      <point x="450" y="375"/>
      <point x="402" y="467"/>
      <point x="256" y="467" type="curve" smooth="yes"/>
      <point x="140" y="467"/>
      <point x="52" y="399"/>
    </contour>
    <contour>
      <point x="345" y="192" type="line"/>
      <point x="208" y="419" type="line"/>
      <point x="169" y="400" type="line"/>
      <point x="305" y="174" type="line"/>
    </contour>
    <contour>
      <point x="394" y="322" type="curve" smooth="yes"/>
      <point x="394" y="252"/>
      <point x="307" y="192"/>
      <point x="220" y="192" type="curve" smooth="yes"/>
      <point x="156" y="192"/>
      <point x="116" y="224"/>
      <point x="116" y="271" type="curve" smooth="yes"/>
      <point x="116" y="341"/>
      <point x="202" y="394"/>
      <point x="292" y="394" type="curve" smooth="yes"/>
      <point x="352" y="394"/>
      <point x="394" y="371"/>
    </contour>
  </outline>
</glyph>
<glyph name="dBb.half" format="2">
  <advance width="342"/>
  <outline>
    <contour>
      <point x="31" y="47" type="line"/>
      <point x="57" y="0" type="line"/>
      <point x="395" y="0" type="line"/>
      <point x="397" y="10" type="line"/>
      <point x="371" y="57" type="line"/>
      <point x="33" y="57" type="line"/>
    </contour>
    <contour>
      <point x="499" y="545" type="line"/>
      <point x="501" y="555" type="line"/>
      <point x="470" y="620" type="line"/>
      <point x="34" y="620" type="line"/>
      <point x="32" y="610" type="line"/>
      <point x="63" y="545" type="line"/>
    </contour>
    <contour>
      <point x="254" y="133" type="curve" smooth="yes"/>
      <point x="359" y="133"/>
      <point x="459" y="195"/>
      <point x="459" y="300" type="curve" smooth="yes"/>
      <point x="459" y="401"/>
      <point x="367" y="472"/>
      <point x="253" y="472" type="curve" smooth="yes"/>
      <point x="148" y="472"/>
      <point x="53" y="411"/>
      <point x="53" y="312" type="curve" smooth="yes"/>
      <point x="53" y="225"/>
      <point x="127" y="133"/>
    </contour>
    <contour>
      <point x="222" y="197" type="curve" smooth="yes"/>
      <point x="159" y="197"/>
      <point x="117" y="230"/>
      <point x="117" y="278" type="curve" smooth="yes"/>
      <point x="117" y="347"/>
      <point x="202" y="399"/>
      <point x="294" y="399" type="curve" smooth="yes"/>
      <point x="351" y="399"/>
      <point x="399" y="379"/>
      <point x="399" y="328" type="curve" smooth="yes"/>
      <point x="399" y="258"/>
      <point x="308" y="197"/>
    </contour>
    <contour>
      <point x="340" y="207" type="line"/>
      <point x="213" y="417" type="line"/>
      <point x="172" y="402" type="line"/>
      <point x="307" y="178" type="line"/>
    </contour>
  </outline>
  <guideline angle="90" x="41" y="0"/>
</glyph>
<glyph name="dBb.half2" format="2">
  <advance width="334"/>
  <outline>
    <contour>
      <point x="31" y="47" type="line"/>
      <point x="57" y="0" type="line"/>
      <point x="395" y="0" type="line"/>
      <point x="397" y="10" type="line"/>
      <point x="371" y="57" type="line"/>
      <point x="33" y="57" type="line"/>
    </contour>
    <contour>
      <point x="415" y="283" type="line"/>
      <point x="347" y="228"/>
      <point x="286" y="192"/>
      <point x="218" y="192" type="curve" smooth="yes"/>
      <point x="167" y="192"/>
      <point x="116" y="216"/>
      <point x="116" y="271" type="curve" smooth="yes"/>
      <point x="116" y="347"/>
      <point x="194" y="394"/>
      <point x="271" y="394" type="curve" smooth="yes"/>
      <point x="329" y="394"/>
      <point x="385" y="370"/>
      <point x="424" y="336" type="curve"/>
      <point x="452" y="368" type="line"/>
      <point x="416" y="422"/>
      <point x="339" y="467"/>
      <point x="262" y="467" type="curve" smooth="yes"/>
      <point x="151" y="467"/>
      <point x="52" y="406"/>
      <point x="52" y="306" type="curve" smooth="yes"/>
      <point x="52" y="229"/>
      <point x="111" y="128"/>
      <point x="244" y="128" type="curve" smooth="yes"/>
      <point x="302" y="128"/>
      <point x="371" y="144"/>
      <point x="458" y="219" type="curve"/>
    </contour>
    <contour>
      <point x="471" y="545" type="line"/>
      <point x="473" y="555" type="line"/>
      <point x="441" y="620" type="line"/>
      <point x="33" y="620" type="line"/>
      <point x="31" y="610" type="line"/>
      <point x="63" y="545" type="line"/>
    </contour>
    <contour>
      <point x="332" y="215" type="line"/>
      <point x="223" y="396" type="line"/>
      <point x="180" y="378" type="line"/>
      <point x="291" y="195" type="line"/>
    </contour>
  </outline>
  <guideline angle="90" x="41" y="0"/>
</glyph>
<glyph name="dBhRYa" format="2">
  <advance width="1041"/>
  <outline>
    <contour>
      <point x="602" y="232" type="line"/>
      <point x="583" y="308" type="line"/>
      <point x="248" y="59" type="line"/>
      <point x="304" y="4" type="line"/>
    </contour>
    <contour>
      <point x="903" y="-10" type="line"/>
      <point x="1018" y="591" type="line"/>
      <point x="934" y="591" type="line"/>
      <point x="825" y="52" type="line"/>
      <point x="893" y="-10" type="line"/>
    </contour>
    <contour>
      <point x="1126" y="545" type="line"/>
      <point x="1128" y="555" type="line"/>
      <point x="1096" y="620" type="line"/>
      <point x="430" y="620" type="line"/>
      <point x="428" y="610" type="line"/>
      <point x="460" y="545" type="line"/>
    </contour>
    <contour>
      <point x="728" y="136" type="curve" smooth="yes"/>
      <point x="769" y="136"/>
      <point x="823" y="151"/>
      <point x="880" y="193" type="curve"/>
      <point x="897" y="296" type="line"/>
      <point x="815" y="231"/>
      <point x="755" y="199"/>
      <point x="701" y="199" type="curve" smooth="yes"/>
      <point x="636" y="199"/>
      <point x="594" y="235"/>
      <point x="594" y="286" type="curve" smooth="yes"/>
      <point x="594" y="292"/>
      <point x="594" y="297"/>
      <point x="595" y="303" type="curve"/>
      <point x="711" y="334"/>
      <point x="758" y="369"/>
      <point x="758" y="441" type="curve" smooth="yes"/>
      <point x="758" y="474"/>
      <point x="746" y="514"/>
      <point x="727" y="562" type="curve"/>
      <point x="670" y="563" type="line"/>
      <point x="686" y="528"/>
      <point x="692" y="499"/>
      <point x="692" y="477" type="curve" smooth="yes"/>
      <point x="692" y="424"/>
      <point x="640" y="399"/>
      <point x="521" y="371" type="curve"/>
      <point x="519" y="239"/>
      <point x="605" y="136"/>
    </contour>
    <contour>
      <point x="282" y="159" type="curve" smooth="yes"/>
      <point x="308" y="159"/>
      <point x="315" y="183"/>
      <point x="343" y="271" type="curve" smooth="yes"/>
      <point x="373" y="373"/>
      <point x="385" y="418"/>
      <point x="385" y="450" type="curve" smooth="yes"/>
      <point x="385" y="534"/>
      <point x="320" y="633"/>
      <point x="225" y="633" type="curve" smooth="yes"/>
      <point x="167" y="633"/>
      <point x="106" y="601"/>
      <point x="106" y="526" type="curve" smooth="yes"/>
      <point x="106" y="474"/>
      <point x="138" y="422"/>
      <point x="208" y="422" type="curve" smooth="yes"/>
      <point x="215" y="422"/>
      <point x="224" y="423"/>
      <point x="228" y="424" type="curve"/>
      <point x="230" y="435" type="line"/>
      <point x="203" y="449"/>
      <point x="179" y="471"/>
      <point x="179" y="501" type="curve" smooth="yes"/>
      <point x="179" y="539"/>
      <point x="213" y="563"/>
      <point x="252" y="563" type="curve" smooth="yes"/>
      <point x="289" y="563"/>
      <point x="312" y="547"/>
      <point x="312" y="492" type="curve" smooth="yes"/>
      <point x="312" y="433"/>
      <point x="287" y="370"/>
      <point x="249" y="254" type="curve"/>
      <point x="557" y="254" type="line"/>
      <point x="571" y="328" type="line"/>
      <point x="201" y="328" type="line" smooth="yes"/>
      <point x="180" y="328"/>
      <point x="171" y="316"/>
      <point x="171" y="300" type="curve" smooth="yes"/>
      <point x="171" y="258"/>
      <point x="240" y="159"/>
    </contour>
  </outline>
</glyph>
<glyph name="dC.half" format="2">
  <advance width="436"/>
  <outline>
    <contour>
      <point x="206" y="370" type="line"/>
      <point x="388" y="392" type="line"/>
      <point x="426" y="373" type="line"/>
      <point x="440" y="373"/>
      <point x="446" y="373"/>
      <point x="468" y="372" type="curve"/>
      <point x="470" y="382" type="line"/>
      <point x="439" y="446" type="line"/>
      <point x="65" y="446" type="line"/>
      <point x="63" y="436" type="line"/>
      <point x="95" y="370" type="line"/>
    </contour>
    <contour>
      <point x="593" y="545" type="line"/>
      <point x="595" y="555" type="line"/>
      <point x="564" y="620" type="line"/>
      <point x="34" y="620" type="line"/>
      <point x="32" y="610" type="line"/>
      <point x="63" y="545" type="line"/>
    </contour>
    <contour>
      <point x="348" y="128" type="curve" smooth="yes"/>
      <point x="404" y="128"/>
      <point x="473" y="153"/>
      <point x="547" y="220" type="curve"/>
      <point x="516" y="289" type="line"/>
      <point x="409" y="205"/>
      <point x="349" y="192"/>
      <point x="304" y="192" type="curve" smooth="yes"/>
      <point x="261" y="192"/>
      <point x="224" y="211"/>
      <point x="224" y="262" type="curve" smooth="yes"/>
      <point x="224" y="364"/>
      <point x="329" y="373"/>
      <point x="426" y="373" type="curve"/>
      <point x="433" y="408" type="line"/>
      <point x="222" y="408" type="line"/>
      <point x="170" y="365"/>
      <point x="158" y="329"/>
      <point x="158" y="289" type="curve" smooth="yes"/>
      <point x="158" y="216"/>
      <point x="226" y="128"/>
    </contour>
  </outline>
</glyph>
<glyph name="dChYa" format="2">
  <advance width="1228"/>
  <outline>
    <component base="dCh.halfalt"/>
    <contour>
      <point x="919" y="75" type="curve" smooth="yes"/>
      <point x="959" y="75"/>
      <point x="988" y="85"/>
      <point x="1021" y="105" type="curve"/>
      <point x="1036" y="97" type="line"/>
      <point x="1060" y="220" type="line"/>
      <point x="1000" y="171"/>
      <point x="935" y="138"/>
      <point x="893" y="138" type="curve" smooth="yes"/>
      <point x="842" y="138"/>
      <point x="811" y="177"/>
      <point x="819" y="214" type="curve"/>
      <point x="776" y="197" type="line"/>
      <point x="921" y="232"/>
      <point x="971" y="274"/>
      <point x="971" y="336" type="curve" smooth="yes"/>
      <point x="971" y="391"/>
      <point x="926" y="478"/>
      <point x="819" y="478" type="curve" smooth="yes"/>
      <point x="618" y="478" type="line"/>
      <point x="662" y="405" type="line"/>
      <point x="837" y="405" type="line" smooth="yes"/>
      <point x="897" y="405"/>
      <point x="907" y="388"/>
      <point x="907" y="368" type="curve" smooth="yes"/>
      <point x="907" y="329"/>
      <point x="853" y="302"/>
      <point x="744" y="274" type="curve"/>
      <point x="743" y="172"/>
      <point x="818" y="75"/>
    </contour>
    <contour>
      <point x="1083" y="-45" type="line"/>
      <point x="1199" y="561" type="line"/>
      <point x="1115" y="561" type="line"/>
      <point x="1005" y="17" type="line"/>
      <point x="1073" y="-45" type="line"/>
    </contour>
    <contour>
      <point x="1313" y="545" type="line"/>
      <point x="1315" y="555" type="line"/>
      <point x="1284" y="620" type="line"/>
      <point x="663" y="620" type="line"/>
      <point x="661" y="610" type="line"/>
      <point x="692" y="545" type="line"/>
    </contour>
  </outline>
</glyph>
<glyph name="dDDha" format="2">
  <advance width="640"/>
  <outline>
    <contour>
      <point x="142" y="41" type="line"/>
      <point x="99" y="56"/>
      <point x="84" y="78"/>
      <point x="84" y="104" type="curve" smooth="yes"/>
      <point x="84" y="138"/>
      <point x="108" y="156"/>
      <point x="108" y="190" type="curve" smooth="yes"/>
      <point x="108" y="220"/>
      <point x="89" y="248"/>
      <point x="33" y="271" type="curve"/>
      <point x="27" y="264" type="line"/>
      <point x="35" y="252"/>
      <point x="37" y="237"/>
      <point x="37" y="229" type="curve" smooth="yes"/>
      <point x="37" y="199"/>
      <point x="5" y="154"/>
      <point x="5" y="115" type="curve" smooth="yes"/>
      <point x="5" y="60"/>
      <point x="68" y="29"/>
      <point x="107" y="12" type="curve"/>
    </contour>
    <contour>
      <point x="244" y="-140" type="curve" smooth="yes"/>
      <point x="313" y="-140"/>
      <point x="411" y="-107"/>
      <point x="479" y="71" type="curve"/>
      <point x="411" y="110" type="line"/>
      <point x="371" y="-23"/>
      <point x="275" y="-86"/>
      <point x="208" y="-86" type="curve" smooth="yes"/>
      <point x="182" y="-86"/>
      <point x="164" y="-74"/>
      <point x="164" y="-49" type="curve" smooth="yes"/>
      <point x="164" y="-16"/>
      <point x="190" y="13"/>
      <point x="251" y="33" type="curve"/>
      <point x="203" y="93" type="line"/>
      <point x="131" y="66"/>
      <point x="89" y="34"/>
      <point x="89" y="-22" type="curve" smooth="yes"/>
      <point x="89" y="-91"/>
      <point x="174" y="-140"/>
    </contour>
    <contour>
      <point x="725" y="545" type="line"/>
      <point x="727" y="555" type="line"/>
      <point x="696" y="620" type="line"/>
      <point x="34" y="620" type="line"/>
      <point x="32" y="610" type="line"/>
      <point x="63" y="545" type="line"/>
    </contour>
    <contour>
      <point x="557" y="-165" type="line"/>
      <point x="611" y="-134" type="line"/>
      <point x="465" y="167" type="line"/>
      <point x="429" y="144"/>
      <point x="397" y="132"/>
      <point x="352" y="132" type="curve" smooth="yes"/>
      <point x="289" y="132"/>
      <point x="238" y="173"/>
      <point x="238" y="245" type="curve" smooth="yes"/>
      <point x="238" y="338"/>
      <point x="303" y="376"/>
      <point x="402" y="376" type="curve" smooth="yes"/>
      <point x="543" y="376" type="line"/>
      <point x="556" y="384" type="line"/>
      <point x="567" y="436"/>
      <point x="580" y="508"/>
      <point x="593" y="580" type="curve"/>
      <point x="512" y="580" type="line"/>
      <point x="487" y="451" type="line"/>
      <point x="393" y="451" type="line" smooth="yes"/>
      <point x="266" y="451"/>
      <point x="171" y="416"/>
      <point x="171" y="290" type="curve" smooth="yes"/>
      <point x="171" y="166"/>
      <point x="262" y="65"/>
      <point x="405" y="65" type="curve" smooth="yes"/>
      <point x="491" y="65"/>
      <point x="561" y="117"/>
      <point x="561" y="168" type="curve" smooth="yes"/>
      <point x="561" y="212"/>
      <point x="495" y="254"/>
      <point x="453" y="254" type="curve" smooth="yes"/>
      <point x="428" y="254"/>
      <point x="415" y="242"/>
      <point x="415" y="209" type="curve" smooth="yes"/>
      <point x="415" y="190"/>
      <point x="423" y="153"/>
      <point x="451" y="82" type="curve" smooth="yes"/>
      <point x="548" y="-165" type="line"/>
    </contour>
  </outline>
</glyph>
<glyph name="dDGRa" format="2">
  <advance width="517"/>
  <outline>
    <contour>
      <point x="369" y="-7" type="line"/>
      <point x="339" y="62" type="line"/>
      <point x="149" y="-126" type="line"/>
      <point x="218" y="-168" type="line"/>
    </contour>
    <contour>
      <point x="602" y="545" type="line"/>
      <point x="604" y="555" type="line"/>
      <point x="573" y="620" type="line"/>
      <point x="34" y="620" type="line"/>
      <point x="32" y="610" type="line"/>
      <point x="63" y="545" type="line"/>
    </contour>
    <contour>
      <point x="449" y="-221" type="line"/>
      <point x="370" y="171" type="line"/>
      <point x="314" y="139"/>
      <point x="300" y="129"/>
      <point x="245" y="129" type="curve" smooth="yes"/>
      <point x="184" y="129"/>
      <point x="130" y="169"/>
      <point x="130" y="247" type="curve" smooth="yes"/>
      <point x="130" y="334"/>
      <point x="197" y="374"/>
      <point x="286" y="374" type="curve" smooth="yes"/>
      <point x="435" y="374" type="line"/>
      <point x="448" y="382" type="line"/>
      <point x="457" y="429"/>
      <point x="469" y="495"/>
      <point x="485" y="580" type="curve"/>
      <point x="404" y="580" type="line"/>
      <point x="378" y="449" type="line"/>
      <point x="275" y="449" type="line" smooth="yes"/>
      <point x="149" y="449"/>
      <point x="63" y="413"/>
      <point x="63" y="284" type="curve" smooth="yes"/>
      <point x="63" y="163"/>
      <point x="170" y="62"/>
      <point x="291" y="62" type="curve" smooth="yes"/>
      <point x="389" y="62"/>
      <point x="456" y="116"/>
      <point x="456" y="163" type="curve" smooth="yes"/>
      <point x="456" y="207"/>
      <point x="381" y="252"/>
      <point x="343" y="252" type="curve" smooth="yes"/>
      <point x="318" y="252"/>
      <point x="308" y="239"/>
      <point x="308" y="209" type="curve" smooth="yes"/>
      <point x="308" y="189"/>
      <point x="313" y="143"/>
      <point x="320" y="96" type="curve" smooth="yes"/>
      <point x="361" y="-196" type="line"/>
      <point x="439" y="-224" type="line"/>
    </contour>
    <contour>
      <point x="85" y="-139" type="curve" smooth="yes"/>
      <point x="100" y="-139"/>
      <point x="110" y="-131"/>
      <point x="113" y="-114" type="curve" smooth="yes"/>
      <point x="161" y="138" type="line"/>
      <point x="102" y="200" type="line"/>
      <point x="64" y="17" type="line"/>
      <point x="5" y="17" type="line" smooth="yes"/>
      <point x="-16" y="17"/>
      <point x="-25" y="3"/>
      <point x="-25" y="-14" type="curve" smooth="yes"/>
      <point x="-25" y="-56"/>
      <point x="44" y="-139"/>
    </contour>
  </outline>
</glyph>
<glyph name="dDYa" format="2">
  <advance width="658"/>
  <outline>
    <contour>
      <point x="288" y="5" type="curve" smooth="yes"/>
      <point x="350" y="5"/>
      <point x="393" y="21"/>
      <point x="465" y="63" type="curve"/>
      <point x="485" y="165" type="line"/>
      <point x="382" y="98"/>
      <point x="319" y="70"/>
      <point x="261" y="70" type="curve" smooth="yes"/>
      <point x="202" y="70"/>
      <point x="180" y="96"/>
      <point x="180" y="122" type="curve" smooth="yes"/>
      <point x="180" y="152"/>
      <point x="206" y="187"/>
      <point x="293" y="204" type="curve"/>
      <point x="220" y="254" type="line"/>
      <point x="161" y="259"/>
      <point x="138" y="294"/>
      <point x="138" y="327" type="curve" smooth="yes"/>
      <point x="138" y="366"/>
      <point x="165" y="385"/>
      <point x="213" y="385" type="curve" smooth="yes"/>
      <point x="387" y="385" type="line"/>
      <point x="401" y="393" type="line"/>
      <point x="411" y="445"/>
      <point x="424" y="517"/>
      <point x="433" y="571" type="curve"/>
      <point x="352" y="571" type="line"/>
      <point x="331" y="460" type="line"/>
      <point x="203" y="460" type="line" smooth="yes"/>
      <point x="109" y="460"/>
      <point x="73" y="422"/>
      <point x="73" y="363" type="curve" smooth="yes"/>
      <point x="73" y="312"/>
      <point x="103" y="240"/>
      <point x="177" y="209" type="curve"/>
      <point x="219" y="202" type="line"/>
      <point x="244" y="198"/>
      <point x="267" y="196"/>
      <point x="297" y="196" type="curve" smooth="yes"/>
      <point x="379" y="196"/>
      <point x="385" y="216"/>
      <point x="385" y="232" type="curve" smooth="yes"/>
      <point x="385" y="247"/>
      <point x="371" y="283"/>
      <point x="347" y="283" type="curve" smooth="yes"/>
      <point x="227" y="283"/>
      <point x="114" y="240"/>
      <point x="114" y="155" type="curve" smooth="yes"/>
      <point x="114" y="91"/>
      <point x="176" y="5"/>
    </contour>
    <contour>
      <point x="511" y="-60" type="line"/>
      <point x="631" y="571" type="line"/>
      <point x="547" y="571" type="line"/>
      <point x="433" y="2" type="line"/>
      <point x="501" y="-60" type="line"/>
    </contour>
    <contour>
      <point x="743" y="545" type="line"/>
      <point x="745" y="555" type="line"/>
      <point x="714" y="620" type="line"/>
      <point x="34" y="620" type="line"/>
      <point x="32" y="610" type="line"/>
      <point x="63" y="545" type="line"/>
    </contour>
  </outline>
</glyph>
<glyph name="dDdDdha" format="2">
  <advance width="540"/>
  <outline>
    <contour>
      <point x="307" y="80" type="curve" smooth="yes"/>
      <point x="436" y="80"/>
      <point x="484" y="139"/>
      <point x="484" y="202" type="curve" smooth="yes"/>
      <point x="484" y="268"/>
      <point x="421" y="335"/>
      <point x="372" y="335" type="curve" smooth="yes"/>
      <point x="340" y="335"/>
      <point x="248" y="313"/>
      <point x="224" y="313" type="curve" smooth="yes"/>
      <point x="206" y="313"/>
      <point x="189" y="331"/>
      <point x="189" y="357" type="curve" smooth="yes"/>
      <point x="189" y="395"/>
      <point x="215" y="410"/>
      <point x="263" y="410" type="curve" smooth="yes"/>
      <point x="454" y="410" type="line"/>
      <point x="468" y="418" type="line"/>
      <point x="478" y="469"/>
      <point x="488" y="523"/>
      <point x="499" y="583" type="curve"/>
      <point x="419" y="583" type="line"/>
      <point x="399" y="482" type="line"/>
      <point x="252" y="482" type="line" smooth="yes"/>
      <point x="158" y="482"/>
      <point x="124" y="447"/>
      <point x="124" y="388" type="curve" smooth="yes"/>
      <point x="124" y="319"/>
      <point x="197" y="243"/>
      <point x="255" y="243" type="curve" smooth="yes"/>
      <point x="289" y="243"/>
      <point x="358" y="264"/>
      <point x="394" y="264" type="curve" smooth="yes"/>
      <point x="413" y="264"/>
      <point x="422" y="255"/>
      <point x="422" y="237" type="curve" smooth="yes"/>
      <point x="422" y="201"/>
      <point x="393" y="152"/>
      <point x="290" y="152" type="curve" smooth="yes"/>
      <point x="163" y="152"/>
      <point x="111" y="210"/>
      <point x="79" y="298" type="curve"/>
      <point x="40" y="279" type="line"/>
      <point x="78" y="161"/>
      <point x="169" y="80"/>
    </contour>
    <contour>
      <point x="241" y="-348" type="curve" smooth="yes"/>
      <point x="330" y="-348"/>
      <point x="398" y="-300"/>
      <point x="398" y="-221" type="curve" smooth="yes"/>
      <point x="398" y="-148"/>
      <point x="346" y="-95"/>
      <point x="274" y="-95" type="curve" smooth="yes"/>
      <point x="206" y="-95"/>
      <point x="162" y="-137"/>
      <point x="162" y="-214" type="curve" smooth="yes"/>
      <point x="162" y="-238"/>
      <point x="167" y="-264"/>
      <point x="172" y="-284" type="curve"/>
      <point x="209" y="-291" type="line"/>
      <point x="206" y="-282"/>
      <point x="206" y="-275"/>
      <point x="206" y="-273" type="curve"/>
      <point x="206" y="-206"/>
      <point x="243" y="-157"/>
      <point x="300" y="-157" type="curve" smooth="yes"/>
      <point x="328" y="-157"/>
      <point x="350" y="-172"/>
      <point x="350" y="-202" type="curve" smooth="yes"/>
      <point x="350" y="-240"/>
      <point x="306" y="-279"/>
      <point x="219" y="-279" type="curve" smooth="yes"/>
      <point x="137" y="-279"/>
      <point x="69" y="-241"/>
      <point x="69" y="-159" type="curve" smooth="yes"/>
      <point x="69" y="-91"/>
      <point x="120" y="-39"/>
      <point x="210" y="-39" type="curve" smooth="yes"/>
      <point x="366" y="-39" type="line"/>
      <point x="379" y="-31" type="line"/>
      <point x="388" y="12"/>
      <point x="401" y="88"/>
      <point x="410" y="136" type="curve"/>
      <point x="330" y="117" type="line"/>
      <point x="313" y="29" type="line"/>
      <point x="200" y="29" type="line" smooth="yes"/>
      <point x="102" y="29"/>
      <point x="7" y="2"/>
      <point x="7" y="-122" type="curve" smooth="yes"/>
      <point x="7" y="-241"/>
      <point x="111" y="-348"/>
    </contour>
    <contour>
      <point x="625" y="545" type="line"/>
      <point x="627" y="555" type="line"/>
      <point x="596" y="620" type="line"/>
      <point x="34" y="620" type="line"/>
      <point x="32" y="610" type="line"/>
      <point x="63" y="545" type="line"/>
    </contour>
  </outline>
  <guideline angle="0" x="0" y="-348"/>
  <guideline angle="90" x="436" y="0"/>
</glyph>
<glyph name="dDdYa" format="2">
  <advance width="1058"/>
  <outline>
    <contour>
      <point x="505" y="424" type="line"/>
      <point x="512" y="462"/>
      <point x="527" y="543"/>
      <point x="535" y="581" type="curve"/>
      <point x="454" y="581" type="line"/>
      <point x="423" y="424" type="line"/>
    </contour>
    <contour>
      <point x="1143" y="545" type="line"/>
      <point x="1145" y="555" type="line"/>
      <point x="1113" y="620" type="line"/>
      <point x="33" y="620" type="line"/>
      <point x="31" y="610" type="line"/>
      <point x="63" y="545" type="line"/>
    </contour>
    <contour>
      <point x="913" y="-45" type="line"/>
      <point x="1033" y="581" type="line"/>
      <point x="949" y="581" type="line"/>
      <point x="835" y="17" type="line"/>
      <point x="903" y="-45" type="line"/>
    </contour>
    <contour>
      <point x="718" y="118" type="curve" smooth="yes"/>
      <point x="671" y="118"/>
      <point x="639" y="150"/>
      <point x="643" y="190" type="curve"/>
      <point x="761" y="219"/>
      <point x="796" y="259"/>
      <point x="796" y="321" type="curve" smooth="yes"/>
      <point x="796" y="375"/>
      <point x="755" y="460"/>
      <point x="644" y="460" type="curve" smooth="yes"/>
      <point x="270" y="460" type="line" smooth="yes"/>
      <point x="178" y="460"/>
      <point x="135" y="419"/>
      <point x="135" y="359" type="curve" smooth="yes"/>
      <point x="135" y="280"/>
      <point x="201" y="199"/>
      <point x="261" y="199" type="curve" smooth="yes"/>
      <point x="295" y="199"/>
      <point x="385" y="223"/>
      <point x="424" y="223" type="curve" smooth="yes"/>
      <point x="445" y="223"/>
      <point x="456" y="209"/>
      <point x="456" y="191" type="curve" smooth="yes"/>
      <point x="456" y="159"/>
      <point x="426" y="82"/>
      <point x="302" y="82" type="curve" smooth="yes"/>
      <point x="163" y="82"/>
      <point x="103" y="175"/>
      <point x="69" y="281" type="curve"/>
      <point x="30" y="260" type="line"/>
      <point x="75" y="97"/>
      <point x="177" y="7"/>
      <point x="326" y="7" type="curve" smooth="yes"/>
      <point x="442" y="7"/>
      <point x="516" y="70"/>
      <point x="516" y="156" type="curve" smooth="yes"/>
      <point x="516" y="228"/>
      <point x="457" y="298"/>
      <point x="406" y="298" type="curve" smooth="yes"/>
      <point x="368" y="298"/>
      <point x="265" y="273"/>
      <point x="242" y="273" type="curve" smooth="yes"/>
      <point x="221" y="273"/>
      <point x="200" y="293"/>
      <point x="200" y="326" type="curve" smooth="yes"/>
      <point x="200" y="366"/>
      <point x="227" y="385"/>
      <point x="283" y="385" type="curve" smooth="yes"/>
      <point x="665" y="385" type="line" smooth="yes"/>
      <point x="722" y="385"/>
      <point x="732" y="370"/>
      <point x="732" y="354" type="curve" smooth="yes"/>
      <point x="732" y="313"/>
      <point x="679" y="281"/>
      <point x="570" y="254" type="curve"/>
      <point x="568" y="142"/>
      <point x="645" y="55"/>
      <point x="746" y="55" type="curve" smooth="yes"/>
      <point x="781" y="55"/>
      <point x="817" y="65"/>
      <point x="847" y="85" type="curve"/>
      <point x="863" y="77" type="line"/>
      <point x="885" y="194" type="line"/>
      <point x="822" y="145"/>
      <point x="761" y="118"/>
    </contour>
  </outline>
</glyph>
<glyph name="dEight.ss04" format="2">
  <advance width="507"/>
  <outline>
    <contour>
      <point x="400" y="182" type="line"/>
      <point x="332" y="115"/>
      <point x="267" y="87"/>
      <point x="212" y="87" type="curve" smooth="yes"/>
      <point x="148" y="87"/>
      <point x="111" y="122"/>
      <point x="111" y="165" type="curve" smooth="yes"/>
      <point x="111" y="238"/>
      <point x="229" y="334"/>
      <point x="450" y="512" type="curve"/>
      <point x="421" y="594" type="line"/>
      <point x="414" y="594" type="line"/>
      <point x="152" y="388"/>
      <point x="42" y="283"/>
      <point x="42" y="197" type="curve" smooth="yes"/>
      <point x="42" y="128"/>
      <point x="108" y="21"/>
      <point x="238" y="21" type="curve" smooth="yes"/>
      <point x="313" y="21"/>
      <point x="388" y="51"/>
      <point x="454" y="114" type="curve"/>
    </contour>
  </outline>
</glyph>
<glyph name="dEight.sups" format="2">
  <advance width="498"/>
  <outline>
    <contour>
      <point x="415" y="227" type="line"/>
      <point x="472" y="258"/>
      <point x="504" y="294"/>
      <point x="504" y="335" type="curve" smooth="yes"/>
      <point x="504" y="388"/>
      <point x="451" y="437"/>
      <point x="405" y="437" type="curve" smooth="yes"/>
      <point x="370" y="437"/>
      <point x="340" y="414"/>
      <point x="298" y="414" type="curve" smooth="yes"/>
      <point x="268" y="414"/>
      <point x="243" y="430"/>
      <point x="243" y="466" type="curve" smooth="yes"/>
      <point x="243" y="518"/>
      <point x="292" y="578"/>
      <point x="345" y="624" type="curve"/>
      <point x="244" y="624" type="line"/>
      <point x="203" y="579"/>
      <point x="173" y="529"/>
      <point x="173" y="492" type="curve" smooth="yes"/>
      <point x="173" y="416"/>
      <point x="250" y="351"/>
      <point x="328" y="351" type="curve" smooth="yes"/>
      <point x="375" y="351"/>
      <point x="401" y="373"/>
      <point x="426" y="373" type="curve" smooth="yes"/>
      <point x="443" y="373"/>
      <point x="453" y="365"/>
      <point x="453" y="353" type="curve" smooth="yes"/>
      <point x="453" y="330"/>
      <point x="415" y="303"/>
      <point x="368" y="282" type="curve"/>
    </contour>
    <contour>
      <point x="512" y="606" type="line"/>
      <point x="514" y="615" type="line"/>
      <point x="486" y="672" type="line"/>
      <point x="147" y="672" type="line"/>
      <point x="145" y="663" type="line"/>
      <point x="173" y="606" type="line"/>
    </contour>
  </outline>
</glyph>
<glyph name="dFive.ss04" format="2">
  <advance width="557"/>
  <outline>
    <contour>
      <point x="380" y="269" type="line"/>
      <point x="354" y="224"/>
      <point x="298" y="192"/>
      <point x="250" y="192" type="curve" smooth="yes"/>
      <point x="195" y="192"/>
      <point x="158" y="223"/>
      <point x="158" y="283" type="curve" smooth="yes"/>
      <point x="158" y="332"/>
      <point x="199" y="437"/>
      <point x="262" y="532" type="curve"/>
      <point x="192" y="592" type="line"/>
      <point x="182" y="592" type="line"/>
      <point x="122" y="488"/>
      <point x="85" y="384"/>
      <point x="85" y="324" type="curve" smooth="yes"/>
      <point x="85" y="212"/>
      <point x="182" y="118"/>
      <point x="278" y="118" type="curve" smooth="yes"/>
      <point x="337" y="118"/>
      <point x="385" y="149"/>
      <point x="421" y="178" type="curve" smooth="yes"/>
      <point x="471" y="218"/>
      <point x="498" y="256"/>
      <point x="498" y="285" type="curve" smooth="yes"/>
      <point x="498" y="326"/>
      <point x="429" y="367"/>
      <point x="398" y="367" type="curve" smooth="yes"/>
      <point x="369" y="367"/>
      <point x="361" y="346"/>
      <point x="361" y="322" type="curve" smooth="yes"/>
      <point x="361" y="296"/>
      <point x="370" y="239"/>
      <point x="380" y="220" type="curve"/>
      <point x="440" y="-143" type="line"/>
      <point x="450" y="-145" type="line"/>
      <point x="516" y="-123" type="line"/>
      <point x="412" y="271" type="line"/>
    </contour>
  </outline>
</glyph>
<glyph name="dGJa" format="2">
  <advance width="1033"/>
  <outline>
    <contour>
      <point x="188" y="170" type="curve" smooth="yes"/>
      <point x="203" y="170"/>
      <point x="213" y="178"/>
      <point x="216" y="195" type="curve" smooth="yes"/>
      <point x="289" y="581" type="line"/>
      <point x="207" y="581" type="line"/>
      <point x="161" y="347" type="line"/>
      <point x="97" y="347" type="line" smooth="yes"/>
      <point x="76" y="347"/>
      <point x="67" y="333"/>
      <point x="67" y="316" type="curve" smooth="yes"/>
      <point x="67" y="262"/>
      <point x="147" y="170"/>
    </contour>
    <contour>
      <point x="1118" y="545" type="line"/>
      <point x="1120" y="555" type="line"/>
      <point x="1089" y="620" type="line"/>
      <point x="34" y="620" type="line"/>
      <point x="32" y="610" type="line"/>
      <point x="63" y="545" type="line"/>
    </contour>
    <contour>
      <point x="895" y="-10" type="line"/>
      <point x="1008" y="581" type="line"/>
      <point x="924" y="581" type="line"/>
      <point x="818" y="52" type="line"/>
      <point x="885" y="-10" type="line"/>
    </contour>
    <contour>
      <point x="907" y="355" type="line"/>
      <point x="923" y="430" type="line"/>
      <point x="583" y="430" type="line"/>
      <point x="581" y="419" type="line"/>
      <point x="607" y="361" type="line"/>
      <point x="685" y="355" type="line"/>
    </contour>
    <contour>
      <point x="607" y="85" type="curve" smooth="yes"/>
      <point x="681" y="85"/>
      <point x="756" y="125"/>
      <point x="756" y="219" type="curve" smooth="yes"/>
      <point x="756" y="274"/>
      <point x="733" y="318"/>
      <point x="679" y="371" type="curve"/>
      <point x="607" y="361" type="line"/>
      <point x="658" y="336"/>
      <point x="684" y="295"/>
      <point x="684" y="254" type="curve" smooth="yes"/>
      <point x="684" y="204"/>
      <point x="651" y="166"/>
      <point x="590" y="166" type="curve" smooth="yes"/>
      <point x="498" y="166"/>
      <point x="433" y="265"/>
      <point x="392" y="411" type="curve"/>
      <point x="353" y="395" type="line"/>
      <point x="394" y="245"/>
      <point x="454" y="85"/>
    </contour>
  </outline>
</glyph>
<glyph name="dGNYa" format="2">
  <advance width="872"/>
  <outline>
    <component base="dYa" xOffset="290"/>
    <contour>
      <point x="689" y="545" type="line"/>
      <point x="691" y="555" type="line"/>
      <point x="660" y="620" type="line"/>
      <point x="34" y="620" type="line"/>
      <point x="32" y="610" type="line"/>
      <point x="63" y="545" type="line"/>
    </contour>
    <contour>
      <point x="169" y="389" type="line"/>
      <point x="108" y="389" type="line" smooth="yes"/>
      <point x="87" y="389"/>
      <point x="78" y="377"/>
      <point x="78" y="360" type="curve" smooth="yes"/>
      <point x="78" y="316"/>
      <point x="157" y="212"/>
      <point x="196" y="212" type="curve" smooth="yes"/>
      <point x="211" y="212"/>
      <point x="221" y="220"/>
      <point x="224" y="237" type="curve" smooth="yes"/>
      <point x="289" y="581" type="line"/>
      <point x="207" y="581" type="line"/>
    </contour>
    <contour>
      <point x="191" y="124" type="line" smooth="yes"/>
      <point x="152" y="96"/>
      <point x="129" y="78"/>
      <point x="129" y="59" type="curve" smooth="yes"/>
      <point x="129" y="27"/>
      <point x="224" y="-14"/>
      <point x="260" y="-14" type="curve" smooth="yes"/>
      <point x="284" y="-14"/>
      <point x="290" y="-3"/>
      <point x="290" y="9" type="curve" smooth="yes"/>
      <point x="290" y="26"/>
      <point x="283" y="45"/>
      <point x="272" y="90" type="curve"/>
      <point x="436" y="212" type="line"/>
      <point x="398" y="272" type="line"/>
    </contour>
  </outline>
</glyph>
<glyph name="dGg.half" format="2">
  <advance width="307"/>
  <outline>
    <contour>
      <point x="190" y="180" type="curve" smooth="yes"/>
      <point x="205" y="180"/>
      <point x="215" y="188"/>
      <point x="218" y="205" type="curve" smooth="yes"/>
      <point x="289" y="581" type="line"/>
      <point x="207" y="581" type="line"/>
      <point x="163" y="357" type="line"/>
      <point x="99" y="357" type="line" smooth="yes"/>
      <point x="78" y="357"/>
      <point x="68" y="343"/>
      <point x="68" y="326" type="curve" smooth="yes"/>
      <point x="68" y="279"/>
      <point x="154" y="180"/>
    </contour>
    <contour>
      <point x="366" y="0" type="line"/>
      <point x="368" y="10" type="line"/>
      <point x="343" y="57" type="line"/>
      <point x="56" y="57" type="line"/>
      <point x="54" y="47" type="line"/>
      <point x="79" y="0" type="line"/>
    </contour>
    <contour>
      <point x="464" y="545" type="line"/>
      <point x="466" y="555" type="line"/>
      <point x="435" y="620" type="line"/>
      <point x="34" y="620" type="line"/>
      <point x="32" y="610" type="line"/>
      <point x="63" y="545" type="line"/>
    </contour>
  </outline>
  <guideline angle="90" x="53" y="0"/>
</glyph>
<glyph name="dGh.half" format="2">
  <advance width="376"/>
  <outline>
    <contour>
      <point x="154" y="577" type="line"/>
      <point x="111" y="538"/>
      <point x="103" y="513"/>
      <point x="103" y="486" type="curve" smooth="yes"/>
      <point x="103" y="433"/>
      <point x="146" y="393"/>
      <point x="183" y="359" type="curve"/>
      <point x="229" y="388" type="line"/>
      <point x="199" y="410"/>
      <point x="188" y="442"/>
      <point x="188" y="465" type="curve" smooth="yes"/>
      <point x="188" y="511"/>
      <point x="225" y="541"/>
      <point x="302" y="549" type="curve"/>
    </contour>
    <contour>
      <point x="358" y="428" type="line"/>
      <point x="236" y="423"/>
      <point x="143" y="386"/>
      <point x="143" y="297" type="curve" smooth="yes"/>
      <point x="143" y="223"/>
      <point x="210" y="133"/>
      <point x="315" y="133" type="curve" smooth="yes"/>
      <point x="359" y="133"/>
      <point x="428" y="148"/>
      <point x="509" y="218" type="curve"/>
      <point x="473" y="288" type="line"/>
      <point x="378" y="212"/>
      <point x="320" y="198"/>
      <point x="283" y="198" type="curve" smooth="yes"/>
      <point x="236" y="198"/>
      <point x="209" y="226"/>
      <point x="209" y="259" type="curve" smooth="yes"/>
      <point x="209" y="305"/>
      <point x="259" y="344"/>
      <point x="382" y="346" type="curve"/>
    </contour>
    <contour>
      <point x="523" y="545" type="line"/>
      <point x="525" y="555" type="line"/>
      <point x="494" y="620" type="line"/>
      <point x="34" y="620" type="line"/>
      <point x="32" y="610" type="line"/>
      <point x="63" y="545" type="line"/>
    </contour>
  </outline>
</glyph>
<glyph name="dHVa" format="2">
  <advance width="591"/>
  <outline>
    <contour>
      <point x="476" y="75" type="line"/>
      <point x="397" y="21"/>
      <point x="347" y="-2"/>
      <point x="311" y="-2" type="curve" smooth="yes"/>
      <point x="283" y="-2"/>
      <point x="261" y="12"/>
      <point x="261" y="42" type="curve" smooth="yes"/>
      <point x="261" y="80"/>
      <point x="298" y="108"/>
      <point x="350" y="108" type="curve" smooth="yes"/>
      <point x="398" y="108"/>
      <point x="438" y="85"/>
      <point x="459" y="60" type="curve"/>
      <point x="466" y="104" type="line"/>
      <point x="444" y="138"/>
      <point x="393" y="172"/>
      <point x="334" y="172" type="curve" smooth="yes"/>
      <point x="262" y="172"/>
      <point x="201" y="128"/>
      <point x="201" y="64" type="curve" smooth="yes"/>
      <point x="201" y="11"/>
      <point x="244" y="-60"/>
      <point x="327" y="-60" type="curve" smooth="yes"/>
      <point x="371" y="-60"/>
      <point x="415" y="-36"/>
      <point x="456" y="-4" type="curve"/>
    </contour>
    <contour>
      <point x="419" y="-81" type="line"/>
      <point x="480" y="-137" type="line"/>
      <point x="488" y="-137" type="line"/>
      <point x="526" y="67" type="line" smooth="yes"/>
      <point x="529" y="83"/>
      <point x="531" y="99"/>
      <point x="531" y="113" type="curve" smooth="yes"/>
      <point x="531" y="230"/>
      <point x="439" y="300"/>
      <point x="317" y="300" type="curve" smooth="yes"/>
      <point x="174" y="300"/>
      <point x="43" y="208"/>
      <point x="43" y="69" type="curve" smooth="yes"/>
      <point x="43" y="-34"/>
      <point x="123" y="-145"/>
      <point x="290" y="-195" type="curve"/>
      <point x="307" y="-157" type="line"/>
      <point x="165" y="-112"/>
      <point x="122" y="-26"/>
      <point x="122" y="45" type="curve" smooth="yes"/>
      <point x="122" y="159"/>
      <point x="224" y="244"/>
      <point x="341" y="244" type="curve" smooth="yes"/>
      <point x="396" y="244"/>
      <point x="429" y="230"/>
      <point x="448" y="207" type="curve" smooth="yes"/>
      <point x="459" y="193"/>
      <point x="465" y="176"/>
      <point x="465" y="149" type="curve" smooth="yes"/>
      <point x="465" y="120"/>
      <point x="458" y="80"/>
      <point x="443" y="21" type="curve"/>
    </contour>
    <contour>
      <point x="676" y="545" type="line"/>
      <point x="678" y="555" type="line"/>
      <point x="647" y="620" type="line"/>
      <point x="34" y="620" type="line"/>
      <point x="32" y="610" type="line"/>
      <point x="63" y="545" type="line"/>
    </contour>
    <contour>
      <point x="159" y="234" type="line"/>
      <point x="146" y="248"/>
      <point x="138" y="273"/>
      <point x="138" y="296" type="curve" smooth="yes"/>
      <point x="138" y="357"/>
      <point x="188" y="385"/>
      <point x="275" y="385" type="curve" smooth="yes"/>
      <point x="465" y="385" type="line"/>
      <point x="479" y="393" type="line"/>
      <point x="489" y="445"/>
      <point x="504" y="527"/>
      <point x="514" y="581" type="curve"/>
      <point x="433" y="581" type="line"/>
      <point x="409" y="460" type="line"/>
      <point x="266" y="460" type="line" smooth="yes"/>
      <point x="127" y="460"/>
      <point x="70" y="409"/>
      <point x="70" y="325" type="curve" smooth="yes"/>
      <point x="70" y="281"/>
      <point x="91" y="229"/>
      <point x="119" y="200" type="curve"/>
    </contour>
  </outline>
</glyph>
<glyph name="dJJVa" format="2">
  <advance width="1408"/>
  <outline>
    <component base="dVa" xOffset="811"/>
    <contour>
      <point x="308" y="85" type="curve" smooth="yes"/>
      <point x="376" y="85"/>
      <point x="435" y="119"/>
      <point x="454" y="197" type="curve"/>
      <point x="386" y="371" type="line"/>
      <point x="311" y="361" type="line"/>
      <point x="360" y="335"/>
      <point x="386" y="293"/>
      <point x="386" y="253" type="curve" smooth="yes"/>
      <point x="386" y="206"/>
      <point x="348" y="166"/>
      <point x="290" y="166" type="curve" smooth="yes"/>
      <point x="193" y="166"/>
      <point x="135" y="265"/>
      <point x="94" y="411" type="curve"/>
      <point x="53" y="394" type="line"/>
      <point x="96" y="235"/>
      <point x="164" y="85"/>
    </contour>
    <contour>
      <point x="622" y="85" type="curve" smooth="yes"/>
      <point x="697" y="85"/>
      <point x="769" y="129"/>
      <point x="769" y="222" type="curve" smooth="yes"/>
      <point x="769" y="271"/>
      <point x="741" y="318"/>
      <point x="697" y="371" type="curve"/>
      <point x="619" y="364" type="line"/>
      <point x="669" y="338"/>
      <point x="697" y="298"/>
      <point x="697" y="251" type="curve" smooth="yes"/>
      <point x="697" y="202"/>
      <point x="659" y="166"/>
      <point x="600" y="166" type="curve" smooth="yes"/>
      <point x="506" y="166"/>
      <point x="441" y="256"/>
      <point x="395" y="393" type="curve"/>
      <point x="364" y="371" type="line"/>
      <point x="437" y="124"/>
      <point x="541" y="85"/>
    </contour>
    <contour>
      <point x="891" y="355" type="line"/>
      <point x="998" y="430" type="line"/>
      <point x="287" y="430" type="line"/>
      <point x="285" y="419" type="line"/>
      <point x="311" y="361" type="line"/>
      <point x="398" y="355" type="line"/>
    </contour>
    <contour>
      <point x="1127" y="545" type="line"/>
      <point x="1129" y="555" type="line"/>
      <point x="1098" y="620" type="line"/>
      <point x="34" y="620" type="line"/>
      <point x="32" y="610" type="line"/>
      <point x="63" y="545" type="line"/>
    </contour>
  </outline>
</glyph>
<glyph name="dJJYa" format="2">
  <advance width="1368"/>
  <outline>
    <contour>
      <point x="955" y="331" type="curve" smooth="yes"/>
      <point x="1054" y="331"/>
      <point x="1088" y="383"/>
      <point x="1088" y="443" type="curve" smooth="yes"/>
      <point x="1088" y="478"/>
      <point x="1077" y="519"/>
      <point x="1060" y="560" type="curve"/>
      <point x="1006" y="558" type="line"/>
      <point x="1018" y="534"/>
      <point x="1025" y="504"/>
      <point x="1025" y="476" type="curve" smooth="yes"/>
      <point x="1025" y="431"/>
      <point x="992" y="405"/>
      <point x="939" y="405" type="curve" smooth="yes"/>
      <point x="911" y="405"/>
      <point x="886" y="412"/>
      <point x="863" y="425" type="curve"/>
      <point x="288" y="425" type="line"/>
      <point x="286" y="414" type="line"/>
      <point x="312" y="356" type="line"/>
      <point x="399" y="350" type="line"/>
      <point x="871" y="350" type="line"/>
      <point x="885" y="344"/>
      <point x="912" y="331"/>
    </contour>
    <contour>
      <point x="308" y="85" type="curve" smooth="yes"/>
      <point x="376" y="85"/>
      <point x="435" y="119"/>
      <point x="454" y="197" type="curve"/>
      <point x="386" y="371" type="line"/>
      <point x="312" y="356" type="line"/>
      <point x="360" y="335"/>
      <point x="386" y="293"/>
      <point x="386" y="253" type="curve" smooth="yes"/>
      <point x="386" y="206"/>
      <point x="348" y="166"/>
      <point x="290" y="166" type="curve" smooth="yes"/>
      <point x="193" y="166"/>
      <point x="135" y="265"/>
      <point x="94" y="411" type="curve"/>
      <point x="53" y="394" type="line"/>
      <point x="96" y="235"/>
      <point x="164" y="85"/>
    </contour>
    <contour>
      <point x="622" y="85" type="curve" smooth="yes"/>
      <point x="697" y="85"/>
      <point x="769" y="129"/>
      <point x="769" y="222" type="curve" smooth="yes"/>
      <point x="769" y="271"/>
      <point x="741" y="318"/>
      <point x="697" y="371" type="curve"/>
      <point x="619" y="364" type="line"/>
      <point x="669" y="338"/>
      <point x="697" y="298"/>
      <point x="697" y="251" type="curve" smooth="yes"/>
      <point x="697" y="202"/>
      <point x="659" y="166"/>
      <point x="600" y="166" type="curve" smooth="yes"/>
      <point x="506" y="166"/>
      <point x="441" y="256"/>
      <point x="395" y="393" type="curve"/>
      <point x="364" y="371" type="line"/>
      <point x="437" y="124"/>
      <point x="541" y="85"/>
    </contour>
    <contour>
      <point x="1067" y="136" type="curve" smooth="yes"/>
      <point x="1114" y="136"/>
      <point x="1155" y="150"/>
      <point x="1194" y="176" type="curve"/>
      <point x="1214" y="279" type="line"/>
      <point x="1145" y="226"/>
      <point x="1083" y="199"/>
      <point x="1031" y="199" type="curve" smooth="yes"/>
      <point x="967" y="199"/>
      <point x="907" y="233"/>
      <point x="925" y="358" type="curve"/>
      <point x="855" y="370" type="line"/>
      <point x="854" y="226"/>
      <point x="947" y="136"/>
    </contour>
    <contour>
      <point x="1453" y="545" type="line"/>
      <point x="1455" y="555" type="line"/>
      <point x="1424" y="620" type="line"/>
      <point x="34" y="620" type="line"/>
      <point x="32" y="610" type="line"/>
      <point x="63" y="545" type="line"/>
    </contour>
    <contour>
      <point x="1230" y="-10" type="line"/>
      <point x="1342" y="572" type="line"/>
      <point x="1258" y="572" type="line"/>
      <point x="1153" y="52" type="line"/>
      <point x="1220" y="-10" type="line"/>
    </contour>
  </outline>
</glyph>
<glyph name="dJNy.half" format="2">
  <advance width="379"/>
  <outline>
    <contour>
      <point x="124" y="356" type="line"/>
      <point x="188" y="330"/>
      <point x="263" y="261"/>
      <point x="263" y="189" type="curve" smooth="yes"/>
      <point x="263" y="128"/>
      <point x="221" y="92"/>
      <point x="150" y="99" type="curve"/>
      <point x="139" y="42" type="line"/>
      <point x="212" y="-150" type="line"/>
      <point x="221" y="-150" type="line"/>
      <point x="275" y="-119" type="line"/>
      <point x="186" y="52" type="line"/>
      <point x="179" y="77" type="line"/>
      <point x="147" y="147"/>
      <point x="98" y="181"/>
      <point x="69" y="181" type="curve" smooth="yes"/>
      <point x="40" y="181"/>
      <point x="28" y="154"/>
      <point x="28" y="126" type="curve" smooth="yes"/>
      <point x="28" y="52"/>
      <point x="121" y="25"/>
      <point x="176" y="25" type="curve" smooth="yes"/>
      <point x="272" y="25"/>
      <point x="341" y="78"/>
      <point x="341" y="163" type="curve" smooth="yes"/>
      <point x="341" y="232"/>
      <point x="288" y="298"/>
      <point x="229" y="348" type="curve"/>
      <point x="232" y="366" type="line"/>
    </contour>
    <contour>
      <point x="536" y="545" type="line"/>
      <point x="538" y="555" type="line"/>
      <point x="507" y="620" type="line"/>
      <point x="34" y="620" type="line"/>
      <point x="32" y="610" type="line"/>
      <point x="63" y="545" type="line"/>
    </contour>
    <contour>
      <point x="217" y="350" type="line"/>
      <point x="527" y="350" type="line"/>
      <point x="557" y="425" type="line"/>
      <point x="101" y="425" type="line"/>
      <point x="99" y="414" type="line"/>
      <point x="124" y="356" type="line"/>
    </contour>
  </outline>
</glyph>
<glyph name="dJNya" format="2">
  <advance width="617"/>
  <outline>
    <contour>
      <point x="191" y="50" type="curve" smooth="yes"/>
      <point x="268" y="50"/>
      <point x="346" y="101"/>
      <point x="346" y="189" type="curve" smooth="yes"/>
      <point x="346" y="267"/>
      <point x="291" y="330"/>
      <point x="234" y="373" type="curve"/>
      <point x="237" y="391" type="line"/>
      <point x="129" y="381" type="line"/>
      <point x="193" y="355"/>
      <point x="268" y="297"/>
      <point x="268" y="215" type="curve" smooth="yes"/>
      <point x="268" y="164"/>
      <point x="234" y="122"/>
      <point x="176" y="122" type="curve"/>
      <point x="139" y="179"/>
      <point x="104" y="204"/>
      <point x="79" y="204" type="curve" smooth="yes"/>
      <point x="50" y="204"/>
      <point x="31" y="184"/>
      <point x="31" y="152" type="curve" smooth="yes"/>
      <point x="31" y="80"/>
      <point x="135" y="50"/>
    </contour>
    <contour>
      <point x="226" y="-125" type="line"/>
      <point x="280" y="-94" type="line"/>
      <point x="189" y="78" type="line"/>
      <point x="140" y="79" type="line"/>
      <point x="217" y="-125" type="line"/>
    </contour>
    <contour>
      <point x="493" y="375" type="line"/>
      <point x="508" y="450" type="line"/>
      <point x="106" y="450" type="line"/>
      <point x="104" y="439" type="line"/>
      <point x="129" y="381" type="line"/>
      <point x="222" y="375" type="line"/>
    </contour>
    <contour>
      <point x="479" y="-10" type="line"/>
      <point x="592" y="581" type="line"/>
      <point x="508" y="581" type="line"/>
      <point x="402" y="52" type="line"/>
      <point x="469" y="-10" type="line"/>
    </contour>
    <contour>
      <point x="702" y="545" type="line"/>
      <point x="704" y="555" type="line"/>
      <point x="673" y="620" type="line"/>
      <point x="34" y="620" type="line"/>
      <point x="32" y="610" type="line"/>
      <point x="63" y="545" type="line"/>
    </contour>
  </outline>
</glyph>
<glyph name="dJR.half" format="2">
  <advance width="501"/>
  <outline>
    <contour>
      <point x="616" y="228" type="line"/>
      <point x="291" y="-14" type="line"/>
      <point x="347" y="-69" type="line"/>
      <point x="663" y="172" type="line"/>
    </contour>
    <contour>
      <point x="650" y="355" type="line"/>
      <point x="680" y="430" type="line"/>
      <point x="285" y="430" type="line"/>
      <point x="283" y="419" type="line"/>
      <point x="309" y="361" type="line"/>
      <point x="387" y="355" type="line"/>
    </contour>
    <contour>
      <point x="668" y="545" type="line"/>
      <point x="670" y="555" type="line"/>
      <point x="639" y="620" type="line"/>
      <point x="34" y="620" type="line"/>
      <point x="32" y="610" type="line"/>
      <point x="63" y="545" type="line"/>
    </contour>
    <contour>
      <point x="309" y="361" type="line"/>
      <point x="354" y="345"/>
      <point x="382" y="304"/>
      <point x="382" y="264" type="curve" smooth="yes"/>
      <point x="382" y="208"/>
      <point x="339" y="171"/>
      <point x="282" y="171" type="curve" smooth="yes"/>
      <point x="189" y="171"/>
      <point x="135" y="265"/>
      <point x="94" y="411" type="curve"/>
      <point x="54" y="394" type="line"/>
      <point x="97" y="235"/>
      <point x="164" y="90"/>
      <point x="303" y="90" type="curve" smooth="yes"/>
      <point x="383" y="90"/>
      <point x="455" y="137"/>
      <point x="455" y="222" type="curve" smooth="yes"/>
      <point x="455" y="275"/>
      <point x="429" y="320"/>
      <point x="385" y="371" type="curve"/>
    </contour>
  </outline>
</glyph>
<glyph name="dJjy.half" format="2">
  <advance width="312"/>
  <outline>
    <contour>
      <point x="443" y="202" type="line"/>
      <point x="258" y="574" type="line"/>
      <point x="209" y="574" type="line"/>
      <point x="393" y="205" type="line"/>
    </contour>
    <contour>
      <point x="469" y="545" type="line"/>
      <point x="471" y="555" type="line"/>
      <point x="440" y="620" type="line"/>
      <point x="34" y="620" type="line"/>
      <point x="32" y="610" type="line"/>
      <point x="63" y="545" type="line"/>
    </contour>
    <contour>
      <point x="391" y="256" type="line"/>
      <point x="340" y="215"/>
      <point x="280" y="194"/>
      <point x="241" y="194" type="curve" smooth="yes"/>
      <point x="171" y="194"/>
      <point x="129" y="242"/>
      <point x="138" y="302" type="curve"/>
      <point x="238" y="328"/>
      <point x="287" y="363"/>
      <point x="296" y="432" type="curve"/>
      <point x="257" y="565" type="line"/>
      <point x="210" y="565" type="line"/>
      <point x="227" y="530"/>
      <point x="235" y="501"/>
      <point x="235" y="480" type="curve" smooth="yes"/>
      <point x="235" y="423"/>
      <point x="180" y="395"/>
      <point x="63" y="370" type="curve"/>
      <point x="62" y="238"/>
      <point x="152" y="131"/>
      <point x="278" y="131" type="curve" smooth="yes"/>
      <point x="323" y="131"/>
      <point x="380" y="147"/>
      <point x="443" y="202" type="curve"/>
    </contour>
  </outline>
</glyph>
<glyph name="dKLa" format="2">
  <advance width="1244"/>
  <outline>
    <contour>
      <point x="403" y="-10" type="line"/>
      <point x="515" y="581" type="line"/>
      <point x="433" y="581" type="line"/>
      <point x="324" y="44" type="line"/>
      <point x="393" y="-10" type="line"/>
    </contour>
    <contour>
      <point x="771" y="-10" type="line"/>
      <point x="816" y="22" type="line"/>
      <point x="717" y="114"/>
      <point x="687" y="169"/>
      <point x="687" y="238" type="curve" smooth="yes"/>
      <point x="687" y="323"/>
      <point x="740" y="376"/>
      <point x="805" y="376" type="curve" smooth="yes"/>
      <point x="839" y="376"/>
      <point x="866" y="358"/>
      <point x="883" y="333" type="curve"/>
      <point x="910" y="365" type="line"/>
      <point x="883" y="407"/>
      <point x="833" y="450"/>
      <point x="771" y="450" type="curve" smooth="yes"/>
      <point x="678" y="450"/>
      <point x="613" y="370"/>
      <point x="613" y="280" type="curve" smooth="yes"/>
      <point x="613" y="183"/>
      <point x="673" y="95"/>
      <point x="761" y="-10" type="curve"/>
    </contour>
    <contour>
      <point x="1329" y="545" type="line"/>
      <point x="1331" y="555" type="line"/>
      <point x="1300" y="620" type="line"/>
      <point x="34" y="620" type="line"/>
      <point x="32" y="610" type="line"/>
      <point x="63" y="545" type="line"/>
    </contour>
    <contour>
      <point x="895" y="224" type="line"/>
      <point x="965" y="330"/>
      <point x="1011" y="374"/>
      <point x="1063" y="374" type="curve" smooth="yes"/>
      <point x="1078" y="374"/>
      <point x="1090" y="368"/>
      <point x="1101" y="365" type="curve"/>
      <point x="1111" y="406" type="line"/>
      <point x="1088" y="428"/>
      <point x="1059" y="439"/>
      <point x="1033" y="439" type="curve" smooth="yes"/>
      <point x="948" y="439"/>
      <point x="871" y="349"/>
      <point x="822" y="264" type="curve"/>
    </contour>
    <contour>
      <point x="1106" y="-10" type="line"/>
      <point x="1219" y="581" type="line"/>
      <point x="1135" y="581" type="line"/>
      <point x="1029" y="52" type="line"/>
      <point x="1096" y="-10" type="line"/>
    </contour>
    <contour>
      <point x="214" y="138" type="curve" smooth="yes"/>
      <point x="272" y="138"/>
      <point x="321" y="170"/>
      <point x="411" y="229" type="curve" smooth="yes"/>
      <point x="495" y="284"/>
      <point x="561" y="338"/>
      <point x="614" y="338" type="curve" smooth="yes"/>
      <point x="624" y="338"/>
      <point x="634" y="335"/>
      <point x="647" y="334" type="curve"/>
      <point x="676" y="369" type="line"/>
      <point x="650" y="398"/>
      <point x="630" y="412"/>
      <point x="599" y="412" type="curve" smooth="yes"/>
      <point x="540" y="412"/>
      <point x="472" y="363"/>
      <point x="413" y="323" type="curve" smooth="yes"/>
      <point x="335" y="270"/>
      <point x="241" y="202"/>
      <point x="179" y="202" type="curve" smooth="yes"/>
      <point x="144" y="202"/>
      <point x="120" y="227"/>
      <point x="120" y="270" type="curve" smooth="yes"/>
      <point x="120" y="341"/>
      <point x="184" y="378"/>
      <point x="242" y="378" type="curve" smooth="yes"/>
      <point x="304" y="378"/>
      <point x="358" y="342"/>
      <point x="385" y="301" type="curve"/>
      <point x="395" y="352" type="line"/>
      <point x="363" y="409"/>
      <point x="293" y="455"/>
      <point x="218" y="455" type="curve" smooth="yes"/>
      <point x="128" y="455"/>
      <point x="55" y="393"/>
      <point x="55" y="300" type="curve" smooth="yes"/>
      <point x="55" y="217"/>
      <point x="117" y="138"/>
    </contour>
  </outline>
</glyph>
<glyph name="dKR.half" format="2">
  <advance width="572"/>
  <outline>
    <contour>
      <point x="433" y="581" type="line"/>
      <point x="326" y="54" type="line"/>
      <point x="393" y="-10" type="line"/>
      <point x="403" y="-10" type="line"/>
      <point x="515" y="581" type="line"/>
    </contour>
    <contour>
      <point x="416" y="239" type="line"/>
      <point x="325" y="261" type="line"/>
      <point x="30" y="81" type="line"/>
      <point x="79" y="20" type="line"/>
    </contour>
    <contour>
      <point x="347" y="230" type="line"/>
      <point x="420" y="230" type="line"/>
      <point x="472" y="278"/>
      <point x="560" y="338"/>
      <point x="615" y="338" type="curve" smooth="yes"/>
      <point x="625" y="338"/>
      <point x="638" y="336"/>
      <point x="648" y="329" type="curve"/>
      <point x="674" y="366" type="line"/>
      <point x="648" y="396"/>
      <point x="625" y="412"/>
      <point x="589" y="412" type="curve" smooth="yes"/>
      <point x="546" y="412"/>
      <point x="512" y="389"/>
      <point x="406" y="321" type="curve" smooth="yes"/>
      <point x="331" y="273"/>
      <point x="242" y="202"/>
      <point x="179" y="202" type="curve" smooth="yes"/>
      <point x="144" y="202"/>
      <point x="120" y="223"/>
      <point x="120" y="270" type="curve" smooth="yes"/>
      <point x="120" y="330"/>
      <point x="171" y="378"/>
      <point x="242" y="378" type="curve" smooth="yes"/>
      <point x="292" y="378"/>
      <point x="351" y="352"/>
      <point x="385" y="301" type="curve"/>
      <point x="395" y="355" type="line"/>
      <point x="365" y="409"/>
      <point x="303" y="455"/>
      <point x="223" y="455" type="curve" smooth="yes"/>
      <point x="134" y="455"/>
      <point x="55" y="397"/>
      <point x="55" y="300" type="curve" smooth="yes"/>
      <point x="55" y="214"/>
      <point x="115" y="150"/>
      <point x="215" y="150" type="curve"/>
    </contour>
    <contour>
      <point x="699" y="545" type="line"/>
      <point x="701" y="555" type="line"/>
      <point x="670" y="620" type="line"/>
      <point x="34" y="620" type="line"/>
      <point x="32" y="610" type="line"/>
      <point x="63" y="545" type="line"/>
    </contour>
  </outline>
</glyph>
<glyph name="dKRa" format="2">
  <advance width="763"/>
  <outline>
    <contour>
      <point x="609" y="68" type="line"/>
      <point x="679" y="138"/>
      <point x="718" y="196"/>
      <point x="718" y="272" type="curve" smooth="yes"/>
      <point x="718" y="370"/>
      <point x="642" y="425"/>
      <point x="594" y="425" type="curve" smooth="yes"/>
      <point x="557" y="425"/>
      <point x="505" y="387"/>
      <point x="460" y="358" type="curve" smooth="yes"/>
      <point x="392" y="314" type="line" smooth="yes"/>
      <point x="317" y="265"/>
      <point x="237" y="202"/>
      <point x="182" y="202" type="curve" smooth="yes"/>
      <point x="147" y="202"/>
      <point x="119" y="223"/>
      <point x="119" y="265" type="curve" smooth="yes"/>
      <point x="119" y="339"/>
      <point x="179" y="378"/>
      <point x="242" y="378" type="curve" smooth="yes"/>
      <point x="299" y="378"/>
      <point x="357" y="342"/>
      <point x="384" y="301" type="curve"/>
      <point x="395" y="351" type="line"/>
      <point x="362" y="401"/>
      <point x="300" y="455"/>
      <point x="222" y="455" type="curve" smooth="yes"/>
      <point x="135" y="455"/>
      <point x="54" y="400"/>
      <point x="54" y="300" type="curve" smooth="yes"/>
      <point x="54" y="232"/>
      <point x="109" y="151"/>
      <point x="204" y="151" type="curve" smooth="yes"/>
      <point x="349" y="151"/>
      <point x="534" y="350"/>
      <point x="618" y="350" type="curve" smooth="yes"/>
      <point x="640" y="350"/>
      <point x="662" y="335"/>
      <point x="662" y="305" type="curve" smooth="yes"/>
      <point x="662" y="260"/>
      <point x="602" y="190"/>
      <point x="540" y="130" type="curve"/>
      <point x="601" y="68" type="line"/>
    </contour>
    <contour>
      <point x="402" y="229" type="line"/>
      <point x="410" y="314" type="line"/>
      <point x="15" y="77" type="line"/>
      <point x="65" y="16" type="line"/>
    </contour>
    <contour>
      <point x="403" y="-10" type="line"/>
      <point x="513" y="571" type="line"/>
      <point x="431" y="571" type="line"/>
      <point x="325" y="54" type="line"/>
      <point x="393" y="-10" type="line"/>
    </contour>
    <contour>
      <point x="848" y="545" type="line"/>
      <point x="849" y="555" type="line"/>
      <point x="818" y="620" type="line"/>
      <point x="33" y="620" type="line"/>
      <point x="31" y="610" type="line"/>
      <point x="63" y="545" type="line"/>
    </contour>
  </outline>
</glyph>
<glyph name="dKSha" format="2">
  <advance width="1268"/>
  <outline>
    <component base="dSha" xOffset="560"/>
    <contour>
      <point x="403" y="-10" type="line"/>
      <point x="517" y="591" type="line"/>
      <point x="435" y="591" type="line"/>
      <point x="326" y="54" type="line"/>
      <point x="393" y="-10" type="line"/>
    </contour>
    <contour>
      <point x="679" y="545" type="line"/>
      <point x="681" y="555" type="line"/>
      <point x="650" y="620" type="line"/>
      <point x="34" y="620" type="line"/>
      <point x="32" y="610" type="line"/>
      <point x="63" y="545" type="line"/>
    </contour>
    <contour>
      <point x="210" y="138" type="curve" smooth="yes"/>
      <point x="270" y="138"/>
      <point x="313" y="166"/>
      <point x="396" y="215" type="curve" smooth="yes"/>
      <point x="474" y="261"/>
      <point x="546" y="320"/>
      <point x="591" y="320" type="curve" smooth="yes"/>
      <point x="612" y="320"/>
      <point x="625" y="310"/>
      <point x="634" y="281" type="curve"/>
      <point x="683" y="274" type="line"/>
      <point x="658" y="375"/>
      <point x="608" y="394"/>
      <point x="576" y="394" type="curve" smooth="yes"/>
      <point x="535" y="394"/>
      <point x="485" y="366"/>
      <point x="410" y="319" type="curve" smooth="yes"/>
      <point x="296" y="248"/>
      <point x="242" y="202"/>
      <point x="181" y="202" type="curve" smooth="yes"/>
      <point x="147" y="202"/>
      <point x="120" y="222"/>
      <point x="120" y="265" type="curve" smooth="yes"/>
      <point x="120" y="332"/>
      <point x="182" y="378"/>
      <point x="242" y="378" type="curve" smooth="yes"/>
      <point x="304" y="378"/>
      <point x="358" y="342"/>
      <point x="385" y="301" type="curve"/>
      <point x="395" y="355" type="line"/>
      <point x="366" y="409"/>
      <point x="295" y="455"/>
      <point x="222" y="455" type="curve" smooth="yes"/>
      <point x="135" y="455"/>
      <point x="55" y="393"/>
      <point x="55" y="292" type="curve" smooth="yes"/>
      <point x="55" y="207"/>
      <point x="128" y="138"/>
    </contour>
  </outline>
</glyph>
<glyph name="dKSsa" format="2">
  <advance width="719"/>
  <outline>
    <contour>
      <point x="390" y="-126" type="line"/>
      <point x="444" y="-96" type="line"/>
      <point x="349" y="89" type="line"/>
      <point x="308" y="70" type="line"/>
      <point x="380" y="-126" type="line"/>
    </contour>
    <contour>
      <point x="580" y="-15" type="line"/>
      <point x="694" y="581" type="line"/>
      <point x="610" y="581" type="line"/>
      <point x="502" y="47" type="line"/>
      <point x="570" y="-15" type="line"/>
    </contour>
    <contour>
      <point x="804" y="545" type="line"/>
      <point x="806" y="555" type="line"/>
      <point x="774" y="620" type="line"/>
      <point x="465" y="620" type="line"/>
      <point x="463" y="610" type="line"/>
      <point x="495" y="545" type="line"/>
    </contour>
    <contour>
      <point x="274" y="31" type="curve" smooth="yes"/>
      <point x="368" y="31"/>
      <point x="424" y="89"/>
      <point x="424" y="132" type="curve" smooth="yes"/>
      <point x="424" y="179"/>
      <point x="348" y="222"/>
      <point x="315" y="222" type="curve" smooth="yes"/>
      <point x="290" y="222"/>
      <point x="281" y="204"/>
      <point x="281" y="176" type="curve" smooth="yes"/>
      <point x="281" y="155"/>
      <point x="288" y="131"/>
      <point x="294" y="114" type="curve"/>
      <point x="277" y="104"/>
      <point x="256" y="98"/>
      <point x="232" y="98" type="curve" smooth="yes"/>
      <point x="174" y="98"/>
      <point x="142" y="135"/>
      <point x="142" y="183" type="curve" smooth="yes"/>
      <point x="142" y="253"/>
      <point x="216" y="286"/>
      <point x="302" y="330" type="curve" smooth="yes"/>
      <point x="368" y="364"/>
      <point x="429" y="404"/>
      <point x="429" y="479" type="curve" smooth="yes"/>
      <point x="429" y="560"/>
      <point x="357" y="633"/>
      <point x="268" y="633" type="curve" smooth="yes"/>
      <point x="184" y="633"/>
      <point x="131" y="574"/>
      <point x="131" y="508" type="curve" smooth="yes"/>
      <point x="131" y="382"/>
      <point x="323" y="288"/>
      <point x="470" y="288" type="curve" smooth="yes"/>
      <point x="507" y="288"/>
      <point x="538" y="294"/>
      <point x="568" y="303" type="curve"/>
      <point x="587" y="399" type="line"/>
      <point x="530" y="368"/>
      <point x="484" y="351"/>
      <point x="422" y="351" type="curve" smooth="yes"/>
      <point x="312" y="351"/>
      <point x="202" y="404"/>
      <point x="202" y="479" type="curve" smooth="yes"/>
      <point x="202" y="530"/>
      <point x="253" y="567"/>
      <point x="302" y="567" type="curve" smooth="yes"/>
      <point x="342" y="567"/>
      <point x="367" y="542"/>
      <point x="367" y="508" type="curve" smooth="yes"/>
      <point x="367" y="450"/>
      <point x="306" y="421"/>
      <point x="237" y="383" type="curve" smooth="yes"/>
      <point x="133" y="326"/>
      <point x="67" y="295"/>
      <point x="67" y="213" type="curve" smooth="yes"/>
      <point x="67" y="127"/>
      <point x="157" y="31"/>
    </contour>
  </outline>
</glyph>
<glyph name="dKTRa" format="2">
  <advance width="1182"/>
  <outline>
    <contour>
      <point x="1267" y="545" type="line"/>
      <point x="1269" y="555" type="line"/>
      <point x="1238" y="620" type="line"/>
      <point x="34" y="620" type="line"/>
      <point x="32" y="610" type="line"/>
      <point x="63" y="545" type="line"/>
    </contour>
    <contour>
      <point x="515" y="581" type="line"/>
      <point x="433" y="581" type="line"/>
      <point x="326" y="54" type="line"/>
      <point x="393" y="-10" type="line"/>
      <point x="403" y="-10" type="line"/>
    </contour>
    <contour>
      <point x="969" y="52" type="line"/>
      <point x="1034" y="-10" type="line"/>
      <point x="1044" y="-10" type="line"/>
      <point x="1157" y="581" type="line"/>
      <point x="1073" y="581" type="line"/>
    </contour>
    <contour>
      <point x="1048" y="307" type="line"/>
      <point x="1067" y="411" type="line"/>
      <point x="779" y="199" type="line"/>
      <point x="832" y="141" type="line"/>
    </contour>
    <contour>
      <point x="731" y="-10" type="line"/>
      <point x="778" y="23" type="line"/>
      <point x="700" y="128"/>
      <point x="683" y="175"/>
      <point x="683" y="232" type="curve" smooth="yes"/>
      <point x="683" y="343"/>
      <point x="770" y="374"/>
      <point x="881" y="374" type="curve" smooth="yes"/>
      <point x="938" y="374"/>
      <point x="1005" y="364"/>
      <point x="1060" y="354" type="curve"/>
      <point x="1058" y="433" type="line"/>
      <point x="1005" y="441"/>
      <point x="933" y="449"/>
      <point x="873" y="449" type="curve" smooth="yes"/>
      <point x="734" y="449"/>
      <point x="615" y="408"/>
      <point x="615" y="269" type="curve" smooth="yes"/>
      <point x="615" y="185"/>
      <point x="657" y="100"/>
      <point x="721" y="-10" type="curve"/>
    </contour>
    <contour>
      <point x="214" y="138" type="curve" smooth="yes"/>
      <point x="272" y="138"/>
      <point x="321" y="170"/>
      <point x="411" y="229" type="curve" smooth="yes"/>
      <point x="495" y="284"/>
      <point x="561" y="338"/>
      <point x="614" y="338" type="curve" smooth="yes"/>
      <point x="624" y="338"/>
      <point x="634" y="335"/>
      <point x="647" y="334" type="curve"/>
      <point x="676" y="369" type="line"/>
      <point x="650" y="398"/>
      <point x="630" y="412"/>
      <point x="599" y="412" type="curve" smooth="yes"/>
      <point x="540" y="412"/>
      <point x="472" y="363"/>
      <point x="413" y="323" type="curve" smooth="yes"/>
      <point x="335" y="270"/>
      <point x="241" y="202"/>
      <point x="179" y="202" type="curve" smooth="yes"/>
      <point x="144" y="202"/>
      <point x="120" y="227"/>
      <point x="120" y="270" type="curve" smooth="yes"/>
      <point x="120" y="341"/>
      <point x="184" y="378"/>
      <point x="242" y="378" type="curve" smooth="yes"/>
      <point x="304" y="378"/>
      <point x="358" y="342"/>
      <point x="385" y="301" type="curve"/>
      <point x="395" y="352" type="line"/>
      <point x="363" y="409"/>
      <point x="303" y="455"/>
      <point x="228" y="455" type="curve" smooth="yes"/>
      <point x="138" y="455"/>
      <point x="55" y="393"/>
      <point x="55" y="301" type="curve" smooth="yes"/>
      <point x="55" y="217"/>
      <point x="117" y="138"/>
    </contour>
  </outline>
</glyph>
<glyph name="dKTRa.ss02" format="2">
  <advance width="803"/>
  <outline>
    <contour>
      <point x="490" y="262" type="line" smooth="yes"/>
      <point x="545" y="301"/>
      <point x="620" y="355"/>
      <point x="663" y="355" type="curve" smooth="yes"/>
      <point x="686" y="355"/>
      <point x="703" y="337"/>
      <point x="703" y="310" type="curve" smooth="yes"/>
      <point x="703" y="261"/>
      <point x="644" y="189"/>
      <point x="582" y="129" type="curve"/>
      <point x="642" y="68" type="line"/>
      <point x="650" y="68" type="line"/>
      <point x="722" y="139"/>
      <point x="759" y="192"/>
      <point x="759" y="268" type="curve" smooth="yes"/>
      <point x="759" y="366"/>
      <point x="680" y="430"/>
      <point x="638" y="430" type="curve" smooth="yes"/>
      <point x="601" y="430"/>
      <point x="545" y="396"/>
      <point x="501" y="365" type="curve"/>
      <point x="430" y="299" type="line"/>
      <point x="98" y="80" type="line"/>
      <point x="154" y="24" type="line"/>
    </contour>
    <contour>
      <point x="473" y="291" type="line"/>
      <point x="482" y="358" type="line"/>
      <point x="86" y="299" type="line"/>
      <point x="104" y="221" type="line"/>
    </contour>
    <contour>
      <point x="448" y="354" type="line"/>
      <point x="332" y="470"/>
      <point x="310" y="485"/>
      <point x="246" y="485" type="curve" smooth="yes"/>
      <point x="214" y="485"/>
      <point x="146" y="482"/>
      <point x="84" y="474" type="curve"/>
      <point x="83" y="469" type="line"/>
      <point x="104" y="393" type="line"/>
      <point x="156" y="400"/>
      <point x="245" y="407"/>
      <point x="275" y="407" type="curve" smooth="yes"/>
      <point x="311" y="407"/>
      <point x="347" y="398"/>
      <point x="431" y="316" type="curve"/>
    </contour>
    <contour>
      <point x="443" y="-10" type="line"/>
      <point x="555" y="581" type="line"/>
      <point x="474" y="581" type="line"/>
      <point x="367" y="54" type="line"/>
      <point x="433" y="-10" type="line"/>
    </contour>
    <contour>
      <point x="888" y="545" type="line"/>
      <point x="890" y="555" type="line"/>
      <point x="859" y="620" type="line"/>
      <point x="34" y="620" type="line"/>
      <point x="32" y="610" type="line"/>
      <point x="63" y="545" type="line"/>
    </contour>
  </outline>
</glyph>
<glyph name="dKTVa" format="2">
  <advance width="1436"/>
  <outline>
    <contour>
      <point x="403" y="-10" type="line"/>
      <point x="514" y="574" type="line"/>
      <point x="432" y="574" type="line"/>
      <point x="326" y="54" type="line"/>
      <point x="393" y="-10" type="line"/>
    </contour>
    <contour>
      <point x="734" y="-10" type="line"/>
      <point x="780" y="22" type="line"/>
      <point x="709" y="128"/>
      <point x="684" y="170"/>
      <point x="684" y="226" type="curve" smooth="yes"/>
      <point x="684" y="280"/>
      <point x="722" y="355"/>
      <point x="822" y="355" type="curve" smooth="yes"/>
      <point x="854" y="355"/>
      <point x="881" y="348"/>
      <point x="912" y="334" type="curve"/>
      <point x="945" y="379" type="line"/>
      <point x="889" y="414"/>
      <point x="839" y="428"/>
      <point x="795" y="428" type="curve" smooth="yes"/>
      <point x="691" y="428"/>
      <point x="615" y="365"/>
      <point x="615" y="268" type="curve" smooth="yes"/>
      <point x="615" y="189"/>
      <point x="662" y="96"/>
      <point x="724" y="-10" type="curve"/>
    </contour>
    <contour>
      <point x="1521" y="545" type="line"/>
      <point x="1523" y="555" type="line"/>
      <point x="1492" y="620" type="line"/>
      <point x="34" y="620" type="line"/>
      <point x="32" y="610" type="line"/>
      <point x="63" y="545" type="line"/>
    </contour>
    <contour>
      <point x="1298" y="-10" type="line"/>
      <point x="1411" y="581" type="line"/>
      <point x="1327" y="581" type="line"/>
      <point x="1221" y="52" type="line"/>
      <point x="1288" y="-10" type="line"/>
    </contour>
    <contour>
      <point x="214" y="138" type="curve" smooth="yes"/>
      <point x="272" y="138"/>
      <point x="321" y="170"/>
      <point x="411" y="229" type="curve" smooth="yes"/>
      <point x="495" y="284"/>
      <point x="561" y="338"/>
      <point x="614" y="338" type="curve" smooth="yes"/>
      <point x="624" y="338"/>
      <point x="634" y="335"/>
      <point x="647" y="334" type="curve"/>
      <point x="676" y="369" type="line"/>
      <point x="650" y="398"/>
      <point x="630" y="412"/>
      <point x="599" y="412" type="curve" smooth="yes"/>
      <point x="540" y="412"/>
      <point x="472" y="363"/>
      <point x="413" y="323" type="curve" smooth="yes"/>
      <point x="335" y="270"/>
      <point x="241" y="202"/>
      <point x="179" y="202" type="curve" smooth="yes"/>
      <point x="144" y="202"/>
      <point x="120" y="227"/>
      <point x="120" y="270" type="curve" smooth="yes"/>
      <point x="120" y="341"/>
      <point x="184" y="378"/>
      <point x="242" y="378" type="curve" smooth="yes"/>
      <point x="304" y="378"/>
      <point x="358" y="342"/>
      <point x="385" y="301" type="curve"/>
      <point x="395" y="352" type="line"/>
      <point x="363" y="409"/>
      <point x="303" y="455"/>
      <point x="228" y="455" type="curve" smooth="yes"/>
      <point x="138" y="455"/>
      <point x="55" y="393"/>
      <point x="55" y="301" type="curve" smooth="yes"/>
      <point x="55" y="217"/>
      <point x="117" y="138"/>
    </contour>
    <contour>
      <point x="1075" y="133" type="curve" smooth="yes"/>
      <point x="1140" y="133"/>
      <point x="1205" y="161"/>
      <point x="1272" y="208" type="curve"/>
      <point x="1296" y="322" type="line"/>
      <point x="1209" y="250"/>
      <point x="1115" y="197"/>
      <point x="1045" y="197" type="curve" smooth="yes"/>
      <point x="990" y="197"/>
      <point x="957" y="228"/>
      <point x="957" y="278" type="curve" smooth="yes"/>
      <point x="957" y="342"/>
      <point x="1015" y="389"/>
      <point x="1104" y="389" type="curve" smooth="yes"/>
      <point x="1186" y="389"/>
      <point x="1247" y="349"/>
      <point x="1281" y="304" type="curve"/>
      <point x="1295" y="349" type="line"/>
      <point x="1256" y="404"/>
      <point x="1188" y="467"/>
      <point x="1085" y="467" type="curve" smooth="yes"/>
      <point x="984" y="467"/>
      <point x="891" y="412"/>
      <point x="891" y="308" type="curve" smooth="yes"/>
      <point x="891" y="223"/>
      <point x="953" y="133"/>
    </contour>
  </outline>
</glyph>
<glyph name="dKTYa" format="2">
  <advance width="1416"/>
  <outline>
    <contour>
      <point x="1307" y="581" type="line"/>
      <point x="1201" y="52" type="line"/>
      <point x="1268" y="-10" type="line"/>
      <point x="1278" y="-10" type="line"/>
      <point x="1391" y="581" type="line"/>
    </contour>
    <contour>
      <point x="517" y="591" type="line"/>
      <point x="435" y="591" type="line"/>
      <point x="326" y="54" type="line"/>
      <point x="393" y="-10" type="line"/>
      <point x="403" y="-10" type="line"/>
    </contour>
    <contour>
      <point x="961" y="370" type="line"/>
      <point x="893" y="412"/>
      <point x="842" y="428"/>
      <point x="789" y="428" type="curve" smooth="yes"/>
      <point x="683" y="428"/>
      <point x="615" y="365"/>
      <point x="615" y="273" type="curve" smooth="yes"/>
      <point x="615" y="189"/>
      <point x="662" y="96"/>
      <point x="724" y="-10" type="curve"/>
      <point x="734" y="-10" type="line"/>
      <point x="780" y="22" type="line"/>
      <point x="709" y="128"/>
      <point x="684" y="171"/>
      <point x="684" y="228" type="curve" smooth="yes"/>
      <point x="684" y="280"/>
      <point x="722" y="355"/>
      <point x="825" y="355" type="curve" smooth="yes"/>
      <point x="855" y="355"/>
      <point x="882" y="348"/>
      <point x="912" y="334" type="curve"/>
    </contour>
    <contour>
      <point x="1501" y="545" type="line"/>
      <point x="1503" y="555" type="line"/>
      <point x="1472" y="620" type="line"/>
      <point x="34" y="620" type="line"/>
      <point x="32" y="610" type="line"/>
      <point x="63" y="545" type="line"/>
    </contour>
    <contour>
      <point x="1046" y="563" type="line"/>
      <point x="1062" y="528"/>
      <point x="1069" y="500"/>
      <point x="1069" y="480" type="curve" smooth="yes"/>
      <point x="1069" y="428"/>
      <point x="1016" y="398"/>
      <point x="898" y="371" type="curve"/>
      <point x="896" y="239"/>
      <point x="989" y="136"/>
      <point x="1108" y="136" type="curve" smooth="yes"/>
      <point x="1153" y="136"/>
      <point x="1196" y="146"/>
      <point x="1241" y="177" type="curve"/>
      <point x="1262" y="286" type="line"/>
      <point x="1192" y="232"/>
      <point x="1125" y="199"/>
      <point x="1074" y="199" type="curve" smooth="yes"/>
      <point x="996" y="199"/>
      <point x="951" y="266"/>
      <point x="981" y="337" type="curve"/>
      <point x="930" y="296" type="line"/>
      <point x="1078" y="328"/>
      <point x="1133" y="368"/>
      <point x="1133" y="444" type="curve" smooth="yes"/>
      <point x="1133" y="475"/>
      <point x="1122" y="514"/>
      <point x="1103" y="562" type="curve"/>
    </contour>
    <contour>
      <point x="214" y="138" type="curve" smooth="yes"/>
      <point x="272" y="138"/>
      <point x="321" y="170"/>
      <point x="411" y="229" type="curve" smooth="yes"/>
      <point x="495" y="284"/>
      <point x="561" y="338"/>
      <point x="614" y="338" type="curve" smooth="yes"/>
      <point x="624" y="338"/>
      <point x="634" y="335"/>
      <point x="647" y="334" type="curve"/>
      <point x="676" y="369" type="line"/>
      <point x="650" y="398"/>
      <point x="630" y="412"/>
      <point x="599" y="412" type="curve" smooth="yes"/>
      <point x="540" y="412"/>
      <point x="472" y="363"/>
      <point x="413" y="323" type="curve" smooth="yes"/>
      <point x="335" y="270"/>
      <point x="241" y="202"/>
      <point x="179" y="202" type="curve" smooth="yes"/>
      <point x="144" y="202"/>
      <point x="120" y="227"/>
      <point x="120" y="270" type="curve" smooth="yes"/>
      <point x="120" y="341"/>
      <point x="184" y="378"/>
      <point x="242" y="378" type="curve" smooth="yes"/>
      <point x="304" y="378"/>
      <point x="358" y="342"/>
      <point x="385" y="301" type="curve"/>
      <point x="395" y="352" type="line"/>
      <point x="363" y="409"/>
      <point x="293" y="455"/>
      <point x="218" y="455" type="curve" smooth="yes"/>
      <point x="128" y="455"/>
      <point x="55" y="393"/>
      <point x="55" y="300" type="curve" smooth="yes"/>
      <point x="55" y="217"/>
      <point x="117" y="138"/>
    </contour>
  </outline>
</glyph>
<glyph name="dKTa" format="2">
  <advance width="1135"/>
  <outline>
    <contour>
      <point x="403" y="-10" type="line"/>
      <point x="517" y="591" type="line"/>
      <point x="435" y="591" type="line"/>
      <point x="326" y="54" type="line"/>
      <point x="393" y="-10" type="line"/>
    </contour>
    <contour>
      <point x="1220" y="545" type="line"/>
      <point x="1222" y="555" type="line"/>
      <point x="1191" y="620" type="line"/>
      <point x="34" y="620" type="line"/>
      <point x="32" y="610" type="line"/>
      <point x="63" y="545" type="line"/>
    </contour>
    <contour>
      <point x="997" y="-10" type="line"/>
      <point x="1110" y="581" type="line"/>
      <point x="1026" y="581" type="line"/>
      <point x="920" y="52" type="line"/>
      <point x="987" y="-10" type="line"/>
    </contour>
    <contour>
      <point x="734" y="-10" type="line"/>
      <point x="781" y="22" type="line"/>
      <point x="707" y="128"/>
      <point x="684" y="172"/>
      <point x="684" y="226" type="curve" smooth="yes"/>
      <point x="684" y="306"/>
      <point x="742" y="360"/>
      <point x="853" y="360" type="curve" smooth="yes"/>
      <point x="1007" y="360" type="line"/>
      <point x="1023" y="435" type="line"/>
      <point x="845" y="435" type="line" smooth="yes"/>
      <point x="741" y="435"/>
      <point x="615" y="405"/>
      <point x="615" y="271" type="curve" smooth="yes"/>
      <point x="615" y="188"/>
      <point x="663" y="96"/>
      <point x="724" y="-10" type="curve"/>
    </contour>
    <contour>
      <point x="214" y="138" type="curve" smooth="yes"/>
      <point x="272" y="138"/>
      <point x="321" y="170"/>
      <point x="411" y="229" type="curve" smooth="yes"/>
      <point x="495" y="284"/>
      <point x="561" y="338"/>
      <point x="614" y="338" type="curve" smooth="yes"/>
      <point x="624" y="338"/>
      <point x="634" y="335"/>
      <point x="647" y="334" type="curve"/>
      <point x="676" y="369" type="line"/>
      <point x="650" y="398"/>
      <point x="630" y="412"/>
      <point x="599" y="412" type="curve" smooth="yes"/>
      <point x="540" y="412"/>
      <point x="472" y="363"/>
      <point x="413" y="323" type="curve" smooth="yes"/>
      <point x="335" y="270"/>
      <point x="241" y="202"/>
      <point x="179" y="202" type="curve" smooth="yes"/>
      <point x="144" y="202"/>
      <point x="120" y="227"/>
      <point x="120" y="270" type="curve" smooth="yes"/>
      <point x="120" y="341"/>
      <point x="184" y="378"/>
      <point x="242" y="378" type="curve" smooth="yes"/>
      <point x="304" y="378"/>
      <point x="358" y="342"/>
      <point x="385" y="301" type="curve"/>
      <point x="395" y="352" type="line"/>
      <point x="363" y="409"/>
      <point x="293" y="455"/>
      <point x="218" y="455" type="curve" smooth="yes"/>
      <point x="128" y="455"/>
      <point x="55" y="393"/>
      <point x="55" y="300" type="curve" smooth="yes"/>
      <point x="55" y="217"/>
      <point x="117" y="138"/>
    </contour>
  </outline>
</glyph>
<glyph name="dKhhSha" format="2">
  <advance width="1299"/>
  <outline>
    <component base="dSha" xOffset="591"/>
    <component base="dNukta" xOffset="303" yOffset="90"/>
    <contour>
      <point x="728" y="545" type="line"/>
      <point x="730" y="555" type="line"/>
      <point x="709" y="620" type="line"/>
      <point x="34" y="620" type="line"/>
      <point x="32" y="610" type="line"/>
      <point x="63" y="545" type="line"/>
    </contour>
    <contour>
      <point x="469" y="217" type="curve" smooth="yes"/>
      <point x="430" y="217"/>
      <point x="405" y="242"/>
      <point x="405" y="286" type="curve" smooth="yes"/>
      <point x="405" y="344"/>
      <point x="454" y="389"/>
      <point x="523" y="389" type="curve" smooth="yes"/>
      <point x="572" y="389"/>
      <point x="622" y="362"/>
      <point x="639" y="316" type="curve"/>
      <point x="608" y="272"/>
      <point x="536" y="217"/>
    </contour>
    <contour>
      <point x="499" y="155" type="curve" smooth="yes"/>
      <point x="595" y="155"/>
      <point x="663" y="224"/>
      <point x="694" y="285" type="curve"/>
      <point x="678" y="385"/>
      <point x="607" y="463"/>
      <point x="507" y="463" type="curve" smooth="yes"/>
      <point x="420" y="463"/>
      <point x="340" y="407"/>
      <point x="340" y="320" type="curve" smooth="yes"/>
      <point x="340" y="236"/>
      <point x="411" y="155"/>
    </contour>
    <contour>
      <point x="270" y="-20" type="line"/>
      <point x="324" y="19" type="line"/>
      <point x="156" y="236" type="line"/>
      <point x="232" y="253"/>
      <point x="279" y="307"/>
      <point x="311" y="471" type="curve" smooth="yes"/>
      <point x="314" y="487"/>
      <point x="324" y="544"/>
      <point x="324" y="576" type="curve"/>
      <point x="242" y="576" type="line"/>
      <point x="239" y="543"/>
      <point x="237" y="523"/>
      <point x="229" y="482" type="curve" smooth="yes"/>
      <point x="223" y="449"/>
      <point x="212" y="401"/>
      <point x="199" y="368" type="curve"/>
      <point x="176" y="371"/>
      <point x="140" y="374"/>
      <point x="121" y="374" type="curve" smooth="yes"/>
      <point x="79" y="374"/>
      <point x="63" y="361"/>
      <point x="63" y="334" type="curve" smooth="yes"/>
      <point x="63" y="312"/>
      <point x="77" y="275"/>
      <point x="109" y="223" type="curve" smooth="yes"/>
      <point x="260" y="-20" type="line"/>
    </contour>
  </outline>
</glyph>
<glyph name="dLDda" format="2">
  <advance width="982"/>
  <outline>
    <component base="dL.half"/>
    <contour>
      <point x="1067" y="545" type="line"/>
      <point x="1069" y="555" type="line"/>
      <point x="1037" y="620" type="line"/>
      <point x="442" y="620" type="line"/>
      <point x="440" y="610" type="line"/>
      <point x="472" y="545" type="line"/>
    </contour>
    <contour>
      <point x="732" y="7" type="curve" smooth="yes"/>
      <point x="848" y="7"/>
      <point x="922" y="70"/>
      <point x="922" y="156" type="curve" smooth="yes"/>
      <point x="922" y="228"/>
      <point x="863" y="298"/>
      <point x="812" y="298" type="curve" smooth="yes"/>
      <point x="774" y="298"/>
      <point x="671" y="273"/>
      <point x="648" y="273" type="curve" smooth="yes"/>
      <point x="627" y="273"/>
      <point x="606" y="293"/>
      <point x="606" y="326" type="curve" smooth="yes"/>
      <point x="606" y="366"/>
      <point x="633" y="385"/>
      <point x="689" y="385" type="curve" smooth="yes"/>
      <point x="892" y="385" type="line"/>
      <point x="906" y="393" type="line"/>
      <point x="916" y="445"/>
      <point x="929" y="517"/>
      <point x="939" y="571" type="curve"/>
      <point x="858" y="571" type="line"/>
      <point x="836" y="460" type="line"/>
      <point x="686" y="460" type="line" smooth="yes"/>
      <point x="584" y="460"/>
      <point x="541" y="419"/>
      <point x="541" y="359" type="curve" smooth="yes"/>
      <point x="541" y="280"/>
      <point x="607" y="199"/>
      <point x="667" y="199" type="curve" smooth="yes"/>
      <point x="701" y="199"/>
      <point x="791" y="223"/>
      <point x="830" y="223" type="curve" smooth="yes"/>
      <point x="851" y="223"/>
      <point x="862" y="209"/>
      <point x="862" y="191" type="curve" smooth="yes"/>
      <point x="862" y="159"/>
      <point x="832" y="82"/>
      <point x="708" y="82" type="curve" smooth="yes"/>
      <point x="569" y="82"/>
      <point x="509" y="175"/>
      <point x="478" y="270" type="curve"/>
      <point x="442" y="251" type="line"/>
      <point x="485" y="96"/>
      <point x="590" y="7"/>
    </contour>
  </outline>
</glyph>
<glyph name="dLRa" format="2">
  <advance width="692"/>
  <outline>
    <contour>
      <point x="583" y="581" type="line"/>
      <point x="477" y="52" type="line"/>
      <point x="544" y="-10" type="line"/>
      <point x="554" y="-10" type="line"/>
      <point x="667" y="581" type="line"/>
    </contour>
    <contour>
      <point x="537" y="291" type="line"/>
      <point x="296" y="112" type="line"/>
      <point x="353" y="57" type="line"/>
      <point x="516" y="183" type="line"/>
    </contour>
    <contour>
      <point x="777" y="545" type="line"/>
      <point x="779" y="555" type="line"/>
      <point x="748" y="620" type="line"/>
      <point x="34" y="620" type="line"/>
      <point x="32" y="610" type="line"/>
      <point x="63" y="545" type="line"/>
    </contour>
    <contour>
      <point x="213" y="-10" type="line"/>
      <point x="258" y="22" type="line"/>
      <point x="159" y="114"/>
      <point x="129" y="169"/>
      <point x="129" y="238" type="curve" smooth="yes"/>
      <point x="129" y="323"/>
      <point x="182" y="380"/>
      <point x="247" y="380" type="curve" smooth="yes"/>
      <point x="281" y="380"/>
      <point x="308" y="358"/>
      <point x="325" y="333" type="curve"/>
      <point x="353" y="365" type="line"/>
      <point x="326" y="407"/>
      <point x="273" y="454"/>
      <point x="208" y="454" type="curve" smooth="yes"/>
      <point x="118" y="454"/>
      <point x="55" y="370"/>
      <point x="55" y="280" type="curve" smooth="yes"/>
      <point x="55" y="183"/>
      <point x="115" y="95"/>
      <point x="203" y="-10" type="curve"/>
    </contour>
    <contour>
      <point x="341" y="228" type="line"/>
      <point x="411" y="334"/>
      <point x="457" y="378"/>
      <point x="509" y="378" type="curve" smooth="yes"/>
      <point x="524" y="378"/>
      <point x="538" y="373"/>
      <point x="550" y="367" type="curve"/>
      <point x="560" y="405" type="line"/>
      <point x="537" y="430"/>
      <point x="502" y="443"/>
      <point x="476" y="443" type="curve" smooth="yes"/>
      <point x="391" y="443"/>
      <point x="316" y="353"/>
      <point x="267" y="268" type="curve"/>
    </contour>
  </outline>
</glyph>
<glyph name="dM.half" format="2">
  <advance width="347"/>
  <outline>
    <contour>
      <point x="172" y="138" type="curve" smooth="yes"/>
      <point x="187" y="138"/>
      <point x="197" y="146"/>
      <point x="200" y="163" type="curve" smooth="yes"/>
      <point x="279" y="581" type="line"/>
      <point x="197" y="581" type="line"/>
      <point x="129" y="235" type="line"/>
      <point x="458" y="235" type="line"/>
      <point x="455" y="310" type="line"/>
      <point x="90" y="310" type="line" smooth="yes"/>
      <point x="69" y="310"/>
      <point x="59" y="298"/>
      <point x="59" y="282" type="curve" smooth="yes"/>
      <point x="59" y="238"/>
      <point x="134" y="138"/>
    </contour>
    <contour>
      <point x="454" y="545" type="line"/>
      <point x="456" y="555" type="line"/>
      <point x="425" y="620" type="line"/>
      <point x="34" y="620" type="line"/>
      <point x="32" y="610" type="line"/>
      <point x="63" y="545" type="line"/>
    </contour>
  </outline>
</glyph>
<glyph name="dMRa" format="2">
  <advance width="611"/>
  <outline>
    <contour>
      <point x="696" y="545" type="line"/>
      <point x="698" y="555" type="line"/>
      <point x="667" y="620" type="line"/>
      <point x="34" y="620" type="line"/>
      <point x="32" y="610" type="line"/>
      <point x="63" y="545" type="line"/>
    </contour>
    <contour>
      <point x="417" y="160" type="line"/>
      <point x="440" y="149" type="line"/>
      <point x="464" y="271" type="line"/>
      <point x="100" y="54" type="line"/>
      <point x="149" y="-7" type="line"/>
    </contour>
    <contour>
      <point x="502" y="581" type="line"/>
      <point x="396" y="52" type="line"/>
      <point x="463" y="-10" type="line"/>
      <point x="473" y="-10" type="line"/>
      <point x="586" y="581" type="line"/>
    </contour>
    <contour>
      <point x="181" y="169" type="curve" smooth="yes"/>
      <point x="194" y="169"/>
      <point x="203" y="177"/>
      <point x="206" y="194" type="curve" smooth="yes"/>
      <point x="279" y="581" type="line"/>
      <point x="197" y="581" type="line"/>
      <point x="134" y="259" type="line"/>
      <point x="473" y="259" type="line"/>
      <point x="488" y="332" type="line"/>
      <point x="95" y="332" type="line" smooth="yes"/>
      <point x="74" y="332"/>
      <point x="64" y="322"/>
      <point x="64" y="306" type="curve" smooth="yes"/>
      <point x="64" y="254"/>
      <point x="148" y="169"/>
    </contour>
  </outline>
</glyph>
<glyph name="dNCa" format="2">
  <advance width="927"/>
  <outline>
    <contour>
      <point x="166" y="158" type="curve" smooth="yes"/>
      <point x="197" y="158"/>
      <point x="206" y="185"/>
      <point x="222" y="263" type="curve"/>
      <point x="428" y="263" type="line"/>
      <point x="436" y="333" type="line"/>
      <point x="323" y="337"/>
      <point x="187" y="340"/>
      <point x="150" y="340" type="curve" smooth="yes"/>
      <point x="91" y="340"/>
      <point x="56" y="335"/>
      <point x="56" y="286" type="curve" smooth="yes"/>
      <point x="56" y="227"/>
      <point x="114" y="158"/>
    </contour>
    <contour>
      <point x="460" y="382" type="line"/>
      <point x="658" y="403" type="line"/>
      <point x="679" y="385" type="line"/>
      <point x="693" y="385"/>
      <point x="699" y="385"/>
      <point x="721" y="384" type="curve"/>
      <point x="723" y="394" type="line"/>
      <point x="692" y="458" type="line"/>
      <point x="318" y="458" type="line"/>
      <point x="317" y="448" type="line"/>
      <point x="349" y="382" type="line"/>
    </contour>
    <contour>
      <point x="1012" y="545" type="line"/>
      <point x="1014" y="555" type="line"/>
      <point x="983" y="620" type="line"/>
      <point x="34" y="620" type="line"/>
      <point x="32" y="610" type="line"/>
      <point x="63" y="545" type="line"/>
    </contour>
    <contour>
      <point x="789" y="-10" type="line"/>
      <point x="902" y="581" type="line"/>
      <point x="818" y="581" type="line"/>
      <point x="712" y="52" type="line"/>
      <point x="779" y="-10" type="line"/>
    </contour>
    <contour>
      <point x="597" y="128" type="curve" smooth="yes"/>
      <point x="653" y="128"/>
      <point x="710" y="149"/>
      <point x="758" y="190" type="curve"/>
      <point x="781" y="305" type="line"/>
      <point x="684" y="221"/>
      <point x="611" y="192"/>
      <point x="560" y="192" type="curve" smooth="yes"/>
      <point x="518" y="192"/>
      <point x="476" y="212"/>
      <point x="476" y="268" type="curve" smooth="yes"/>
      <point x="476" y="345"/>
      <point x="552" y="388"/>
      <point x="679" y="385" type="curve"/>
      <point x="669" y="432" type="line"/>
      <point x="504" y="432" type="line"/>
      <point x="441" y="394"/>
      <point x="410" y="355"/>
      <point x="410" y="300" type="curve" smooth="yes"/>
      <point x="410" y="191"/>
      <point x="505" y="128"/>
    </contour>
  </outline>
</glyph>
<glyph name="dNDhVa" format="2">
  <advance width="1251"/>
  <outline>
    <component base="dVa" xOffset="654"/>
    <component base="dDh.half" xOffset="232"/>
    <contour>
      <point x="392" y="545" type="line"/>
      <point x="439" y="620" type="line"/>
      <point x="34" y="620" type="line"/>
      <point x="32" y="610" type="line"/>
      <point x="63" y="545" type="line"/>
    </contour>
    <contour>
      <point x="452" y="365" type="line"/>
      <point x="322" y="368"/>
      <point x="182" y="371"/>
      <point x="149" y="371" type="curve" smooth="yes"/>
      <point x="90" y="371"/>
      <point x="62" y="363"/>
      <point x="62" y="328" type="curve" smooth="yes"/>
      <point x="62" y="260"/>
      <point x="134" y="189"/>
      <point x="174" y="189" type="curve" smooth="yes"/>
      <point x="205" y="189"/>
      <point x="212" y="221"/>
      <point x="228" y="294" type="curve"/>
      <point x="432" y="294" type="line"/>
    </contour>
  </outline>
</glyph>
<glyph name="dNMa" format="2">
  <advance width="889"/>
  <outline>
    <component base="dMa" xOffset="277"/>
    <contour>
      <point x="408" y="545" type="line"/>
      <point x="413" y="620" type="line"/>
      <point x="34" y="620" type="line"/>
      <point x="32" y="610" type="line"/>
      <point x="63" y="545" type="line"/>
    </contour>
    <contour>
      <point x="484" y="448" type="line"/>
      <point x="371" y="452"/>
      <point x="193" y="455"/>
      <point x="165" y="455" type="curve" smooth="yes"/>
      <point x="106" y="455"/>
      <point x="78" y="445"/>
      <point x="78" y="410" type="curve" smooth="yes"/>
      <point x="78" y="342"/>
      <point x="150" y="271"/>
      <point x="190" y="271" type="curve" smooth="yes"/>
      <point x="221" y="271"/>
      <point x="229" y="303"/>
      <point x="244" y="378" type="curve"/>
      <point x="469" y="378" type="line"/>
    </contour>
  </outline>
</glyph>
<glyph name="dNine.ss04sups" format="2">
  <advance width="421"/>
  <outline>
    <contour>
      <point x="347" y="218" type="line"/>
      <point x="387" y="236"/>
      <point x="406" y="257"/>
      <point x="406" y="286" type="curve" smooth="yes"/>
      <point x="406" y="314"/>
      <point x="371" y="371"/>
      <point x="274" y="485" type="curve" smooth="yes"/>
      <point x="242" y="522"/>
      <point x="234" y="542"/>
      <point x="234" y="568" type="curve" smooth="yes"/>
      <point x="234" y="621"/>
      <point x="278" y="658"/>
      <point x="327" y="658" type="curve" smooth="yes"/>
      <point x="360" y="658"/>
      <point x="383" y="639"/>
      <point x="383" y="606" type="curve" smooth="yes"/>
      <point x="383" y="557"/>
      <point x="320" y="510"/>
      <point x="244" y="501" type="curve"/>
      <point x="289" y="445" type="line"/>
      <point x="363" y="458"/>
      <point x="447" y="504"/>
      <point x="447" y="583" type="curve" smooth="yes"/>
      <point x="447" y="650"/>
      <point x="381" y="717"/>
      <point x="303" y="717" type="curve" smooth="yes"/>
      <point x="220" y="717"/>
      <point x="169" y="658"/>
      <point x="169" y="601" type="curve" smooth="yes"/>
      <point x="169" y="554"/>
      <point x="193" y="519"/>
      <point x="250" y="449" type="curve" smooth="yes"/>
      <point x="326" y="357"/>
      <point x="339" y="332"/>
      <point x="339" y="315" type="curve" smooth="yes"/>
      <point x="339" y="296"/>
      <point x="330" y="284"/>
      <point x="306" y="273" type="curve"/>
    </contour>
  </outline>
</glyph>
<glyph name="dNyCYa" format="2">
  <advance width="1057"/>
  <outline>
    <contour>
      <point x="327" y="76" type="line"/>
      <point x="419" y="124" type="line"/>
      <point x="500" y="135" type="line"/>
      <point x="458" y="192" type="line"/>
      <point x="121" y="82" type="line"/>
      <point x="167" y="24" type="line"/>
    </contour>
    <contour>
      <point x="1142" y="545" type="line"/>
      <point x="1144" y="555" type="line"/>
      <point x="1113" y="620" type="line"/>
      <point x="34" y="620" type="line"/>
      <point x="32" y="610" type="line"/>
      <point x="63" y="545" type="line"/>
    </contour>
    <contour>
      <point x="910" y="-60" type="line"/>
      <point x="1032" y="581" type="line"/>
      <point x="948" y="581" type="line"/>
      <point x="832" y="2" type="line"/>
      <point x="900" y="-60" type="line"/>
    </contour>
    <contour>
      <point x="307" y="197" type="curve" smooth="yes"/>
      <point x="404" y="197"/>
      <point x="471" y="249"/>
      <point x="471" y="343" type="curve" smooth="yes"/>
      <point x="471" y="442"/>
      <point x="401" y="500"/>
      <point x="330" y="500" type="curve" smooth="yes"/>
      <point x="291" y="500"/>
      <point x="252" y="489"/>
      <point x="214" y="468" type="curve"/>
      <point x="241" y="394" type="line"/>
      <point x="277" y="411"/>
      <point x="317" y="427"/>
      <point x="357" y="427" type="curve" smooth="yes"/>
      <point x="400" y="427"/>
      <point x="415" y="404"/>
      <point x="415" y="374" type="curve" smooth="yes"/>
      <point x="415" y="308"/>
      <point x="356" y="272"/>
      <point x="289" y="272" type="curve" smooth="yes"/>
      <point x="178" y="272"/>
      <point x="120" y="357"/>
      <point x="89" y="434" type="curve"/>
      <point x="53" y="414" type="line"/>
      <point x="114" y="260"/>
      <point x="193" y="197"/>
    </contour>
    <contour>
      <point x="423" y="-89" type="curve" smooth="yes"/>
      <point x="568" y="-89"/>
      <point x="649" y="34"/>
      <point x="708" y="150" type="curve"/>
      <point x="634" y="181" type="line"/>
      <point x="533" y="-4"/>
      <point x="453" y="-40"/>
      <point x="403" y="-40" type="curve" smooth="yes"/>
      <point x="371" y="-40"/>
      <point x="347" y="-24"/>
      <point x="347" y="13" type="curve" smooth="yes"/>
      <point x="347" y="85"/>
      <point x="448" y="118"/>
      <point x="500" y="135" type="curve"/>
      <point x="435" y="150" type="line"/>
      <point x="300" y="88" type="line"/>
      <point x="281" y="68"/>
      <point x="274" y="48"/>
      <point x="274" y="24" type="curve" smooth="yes"/>
      <point x="274" y="-43"/>
      <point x="333" y="-89"/>
    </contour>
    <contour>
      <point x="746" y="136" type="curve" smooth="yes"/>
      <point x="798" y="136"/>
      <point x="837" y="148"/>
      <point x="882" y="179" type="curve"/>
      <point x="903" y="283" type="line"/>
      <point x="833" y="229"/>
      <point x="766" y="199"/>
      <point x="717" y="199" type="curve" smooth="yes"/>
      <point x="653" y="199"/>
      <point x="612" y="235"/>
      <point x="612" y="295" type="curve" smooth="yes"/>
      <point x="612" y="304"/>
      <point x="613" y="314"/>
      <point x="616" y="324" type="curve"/>
      <point x="545" y="315" type="line"/>
      <point x="563" y="211"/>
      <point x="645" y="136"/>
    </contour>
    <contour>
      <point x="563" y="299" type="curve" smooth="yes"/>
      <point x="611" y="299"/>
      <point x="774" y="335"/>
      <point x="774" y="442" type="curve" smooth="yes"/>
      <point x="774" y="475"/>
      <point x="763" y="514"/>
      <point x="744" y="562" type="curve"/>
      <point x="687" y="563" type="line"/>
      <point x="703" y="528"/>
      <point x="710" y="500"/>
      <point x="710" y="480" type="curve" smooth="yes"/>
      <point x="710" y="410"/>
      <point x="599" y="374"/>
      <point x="531" y="374" type="curve" smooth="yes"/>
      <point x="496" y="374"/>
      <point x="475" y="379"/>
      <point x="461" y="386" type="curve"/>
      <point x="456" y="324" type="line"/>
      <point x="474" y="332" type="line"/>
      <point x="496" y="309"/>
      <point x="533" y="299"/>
    </contour>
  </outline>
</glyph>
<glyph name="dNyChVa" format="2">
  <advance width="1235"/>
  <outline>
    <component base="dChVa" xOffset="490"/>
    <contour>
      <point x="314" y="117" type="curve" smooth="yes"/>
      <point x="406" y="117"/>
      <point x="494" y="169"/>
      <point x="494" y="286" type="curve" smooth="yes"/>
      <point x="494" y="379"/>
      <point x="439" y="470"/>
      <point x="342" y="470" type="curve" smooth="yes"/>
      <point x="308" y="470"/>
      <point x="268" y="459"/>
      <point x="222" y="437" type="curve"/>
      <point x="250" y="360" type="line"/>
      <point x="288" y="379"/>
      <point x="330" y="394"/>
      <point x="368" y="394" type="curve" smooth="yes"/>
      <point x="409" y="394"/>
      <point x="436" y="371"/>
      <point x="436" y="321" type="curve" smooth="yes"/>
      <point x="436" y="246"/>
      <point x="378" y="193"/>
      <point x="295" y="193" type="curve" smooth="yes"/>
      <point x="191" y="193"/>
      <point x="137" y="278"/>
      <point x="92" y="393" type="curve"/>
      <point x="54" y="372" type="line"/>
      <point x="118" y="201"/>
      <point x="196" y="117"/>
    </contour>
    <contour>
      <point x="570" y="222" type="curve" smooth="yes"/>
      <point x="588" y="222"/>
      <point x="609" y="227"/>
      <point x="632" y="241" type="curve"/>
      <point x="641" y="334" type="line"/>
      <point x="606" y="310"/>
      <point x="572" y="297"/>
      <point x="543" y="297" type="curve" smooth="yes"/>
      <point x="522" y="297"/>
      <point x="503" y="305"/>
      <point x="482" y="318" type="curve"/>
      <point x="476" y="254" type="line"/>
      <point x="494" y="262" type="line"/>
      <point x="512" y="241"/>
      <point x="537" y="222"/>
    </contour>
    <contour>
      <point x="713" y="545" type="line"/>
      <point x="715" y="555" type="line"/>
      <point x="684" y="620" type="line"/>
      <point x="34" y="620" type="line"/>
      <point x="32" y="610" type="line"/>
      <point x="63" y="545" type="line"/>
    </contour>
  </outline>
</glyph>
<glyph name="dNyJYa" format="2">
  <advance width="1062"/>
  <outline>
    <contour>
      <point x="1147" y="545" type="line"/>
      <point x="1149" y="555" type="line"/>
      <point x="1118" y="620" type="line"/>
      <point x="34" y="620" type="line"/>
      <point x="32" y="610" type="line"/>
      <point x="63" y="545" type="line"/>
    </contour>
    <contour>
      <point x="915" y="-60" type="line"/>
      <point x="1037" y="581" type="line"/>
      <point x="953" y="581" type="line"/>
      <point x="837" y="2" type="line"/>
      <point x="905" y="-60" type="line"/>
    </contour>
    <contour>
      <point x="372" y="-147" type="curve" smooth="yes"/>
      <point x="460" y="-147"/>
      <point x="523" y="-103"/>
      <point x="523" y="-27" type="curve" smooth="yes"/>
      <point x="523" y="28"/>
      <point x="486" y="75"/>
      <point x="429" y="96" type="curve"/>
      <point x="348" y="69" type="line"/>
      <point x="410" y="69"/>
      <point x="449" y="42"/>
      <point x="449" y="-1" type="curve" smooth="yes"/>
      <point x="449" y="-41"/>
      <point x="416" y="-76"/>
      <point x="355" y="-76" type="curve" smooth="yes"/>
      <point x="253" y="-76"/>
      <point x="187" y="13"/>
      <point x="156" y="87" type="curve"/>
      <point x="120" y="67" type="line"/>
      <point x="180" y="-85"/>
      <point x="269" y="-147"/>
    </contour>
    <contour>
      <point x="430" y="88" type="line"/>
      <point x="685" y="165" type="line"/>
      <point x="618" y="221" type="line"/>
      <point x="305" y="125" type="line"/>
      <point x="303" y="117" type="line"/>
      <point x="348" y="69" type="line"/>
    </contour>
    <contour>
      <point x="310" y="197" type="curve" smooth="yes"/>
      <point x="411" y="197"/>
      <point x="478" y="248"/>
      <point x="478" y="340" type="curve" smooth="yes"/>
      <point x="478" y="413"/>
      <point x="432" y="500"/>
      <point x="333" y="500" type="curve" smooth="yes"/>
      <point x="296" y="500"/>
      <point x="255" y="489"/>
      <point x="219" y="468" type="curve"/>
      <point x="246" y="394" type="line"/>
      <point x="282" y="410"/>
      <point x="323" y="427"/>
      <point x="359" y="427" type="curve" smooth="yes"/>
      <point x="397" y="427"/>
      <point x="420" y="404"/>
      <point x="420" y="367" type="curve" smooth="yes"/>
      <point x="420" y="306"/>
      <point x="355" y="272"/>
      <point x="288" y="272" type="curve" smooth="yes"/>
      <point x="183" y="272"/>
      <point x="125" y="357"/>
      <point x="94" y="434" type="curve"/>
      <point x="57" y="414" type="line"/>
      <point x="118" y="260"/>
      <point x="211" y="197"/>
    </contour>
    <contour>
      <point x="746" y="136" type="curve" smooth="yes"/>
      <point x="798" y="136"/>
      <point x="837" y="148"/>
      <point x="882" y="179" type="curve"/>
      <point x="903" y="283" type="line"/>
      <point x="833" y="229"/>
      <point x="766" y="199"/>
      <point x="717" y="199" type="curve" smooth="yes"/>
      <point x="653" y="199"/>
      <point x="612" y="235"/>
      <point x="612" y="295" type="curve" smooth="yes"/>
      <point x="612" y="304"/>
      <point x="613" y="314"/>
      <point x="616" y="324" type="curve"/>
      <point x="545" y="315" type="line"/>
      <point x="563" y="211"/>
      <point x="645" y="136"/>
    </contour>
    <contour>
      <point x="563" y="299" type="curve" smooth="yes"/>
      <point x="611" y="299"/>
      <point x="774" y="335"/>
      <point x="774" y="442" type="curve" smooth="yes"/>
      <point x="774" y="475"/>
      <point x="763" y="514"/>
      <point x="744" y="562" type="curve"/>
      <point x="687" y="563" type="line"/>
      <point x="703" y="528"/>
      <point x="710" y="500"/>
      <point x="710" y="480" type="curve" smooth="yes"/>
      <point x="710" y="410"/>
      <point x="599" y="374"/>
      <point x="531" y="374" type="curve" smooth="yes"/>
      <point x="496" y="374"/>
      <point x="475" y="379"/>
      <point x="461" y="386" type="curve"/>
      <point x="456" y="324" type="line"/>
      <point x="474" y="332" type="line"/>
      <point x="496" y="309"/>
      <point x="533" y="299"/>
    </contour>
  </outline>
</glyph>
<glyph name="dNyJa" format="2">
  <advance width="767"/>
  <outline>
    <contour>
      <point x="310" y="197" type="curve" smooth="yes"/>
      <point x="411" y="197"/>
      <point x="478" y="248"/>
      <point x="478" y="340" type="curve" smooth="yes"/>
      <point x="478" y="413"/>
      <point x="432" y="500"/>
      <point x="333" y="500" type="curve" smooth="yes"/>
      <point x="296" y="500"/>
      <point x="255" y="489"/>
      <point x="219" y="468" type="curve"/>
      <point x="246" y="394" type="line"/>
      <point x="282" y="410"/>
      <point x="323" y="427"/>
      <point x="359" y="427" type="curve" smooth="yes"/>
      <point x="397" y="427"/>
      <point x="420" y="404"/>
      <point x="420" y="367" type="curve" smooth="yes"/>
      <point x="420" y="306"/>
      <point x="355" y="272"/>
      <point x="288" y="272" type="curve" smooth="yes"/>
      <point x="183" y="272"/>
      <point x="125" y="357"/>
      <point x="94" y="434" type="curve"/>
      <point x="57" y="414" type="line"/>
      <point x="118" y="260"/>
      <point x="211" y="197"/>
    </contour>
    <contour>
      <point x="297" y="-166" type="curve" smooth="yes"/>
      <point x="388" y="-166"/>
      <point x="449" y="-121"/>
      <point x="449" y="-43" type="curve" smooth="yes"/>
      <point x="449" y="11"/>
      <point x="413" y="56"/>
      <point x="356" y="77" type="curve"/>
      <point x="278" y="49" type="line"/>
      <point x="340" y="49"/>
      <point x="375" y="18"/>
      <point x="375" y="-22" type="curve" smooth="yes"/>
      <point x="375" y="-62"/>
      <point x="341" y="-95"/>
      <point x="278" y="-95" type="curve" smooth="yes"/>
      <point x="176" y="-95"/>
      <point x="118" y="-10"/>
      <point x="86" y="67" type="curve"/>
      <point x="51" y="48" type="line"/>
      <point x="110" y="-103"/>
      <point x="191" y="-166"/>
    </contour>
    <contour>
      <point x="360" y="65" type="line"/>
      <point x="617" y="143" type="line"/>
      <point x="632" y="225" type="line"/>
      <point x="235" y="103" type="line"/>
      <point x="233" y="95" type="line"/>
      <point x="278" y="49" type="line"/>
    </contour>
    <contour>
      <point x="596" y="-182" type="line"/>
      <point x="742" y="581" type="line"/>
      <point x="658" y="581" type="line"/>
      <point x="520" y="-115" type="line"/>
      <point x="586" y="-182" type="line"/>
    </contour>
    <contour>
      <point x="561" y="292" type="curve" smooth="yes"/>
      <point x="586" y="292"/>
      <point x="602" y="299"/>
      <point x="619" y="305" type="curve"/>
      <point x="644" y="404" type="line"/>
      <point x="594" y="374"/>
      <point x="564" y="365"/>
      <point x="530" y="365" type="curve" smooth="yes"/>
      <point x="506" y="365"/>
      <point x="482" y="374"/>
      <point x="468" y="385" type="curve"/>
      <point x="461" y="321" type="line"/>
      <point x="479" y="329" type="line"/>
      <point x="492" y="314"/>
      <point x="520" y="292"/>
    </contour>
    <contour>
      <point x="852" y="545" type="line"/>
      <point x="854" y="555" type="line"/>
      <point x="823" y="620" type="line"/>
      <point x="34" y="620" type="line"/>
      <point x="32" y="610" type="line"/>
      <point x="63" y="545" type="line"/>
    </contour>
  </outline>
</glyph>
<glyph name="dNyRa" format="2">
  <advance width="785"/>
  <outline>
    <contour>
      <point x="622" y="149" type="line"/>
      <point x="642" y="254" type="line"/>
      <point x="310" y="7" type="line"/>
      <point x="366" y="-47" type="line"/>
    </contour>
    <contour>
      <point x="580" y="227" type="curve" smooth="yes"/>
      <point x="593" y="227"/>
      <point x="609" y="230"/>
      <point x="619" y="235" type="curve"/>
      <point x="641" y="342" type="line"/>
      <point x="611" y="318"/>
      <point x="584" y="305"/>
      <point x="548" y="305" type="curve" smooth="yes"/>
      <point x="517" y="305"/>
      <point x="502" y="313"/>
      <point x="487" y="324" type="curve"/>
      <point x="479" y="260" type="line"/>
      <point x="496" y="268" type="line"/>
      <point x="510" y="252"/>
      <point x="540" y="227"/>
    </contour>
    <contour>
      <point x="644" y="-30" type="line"/>
      <point x="758" y="571" type="line"/>
      <point x="674" y="571" type="line"/>
      <point x="566" y="32" type="line"/>
      <point x="634" y="-30" type="line"/>
    </contour>
    <contour>
      <point x="870" y="545" type="line"/>
      <point x="872" y="555" type="line"/>
      <point x="841" y="620" type="line"/>
      <point x="34" y="620" type="line"/>
      <point x="32" y="610" type="line"/>
      <point x="63" y="545" type="line"/>
    </contour>
    <contour>
      <point x="322" y="127" type="curve" smooth="yes"/>
      <point x="410" y="127"/>
      <point x="496" y="176"/>
      <point x="496" y="300" type="curve" smooth="yes"/>
      <point x="496" y="389"/>
      <point x="435" y="480"/>
      <point x="347" y="480" type="curve" smooth="yes"/>
      <point x="311" y="480"/>
      <point x="271" y="471"/>
      <point x="223" y="447" type="curve"/>
      <point x="251" y="370" type="line"/>
      <point x="291" y="387"/>
      <point x="334" y="404"/>
      <point x="372" y="404" type="curve" smooth="yes"/>
      <point x="413" y="404"/>
      <point x="438" y="381"/>
      <point x="438" y="333" type="curve" smooth="yes"/>
      <point x="438" y="246"/>
      <point x="372" y="203"/>
      <point x="296" y="203" type="curve" smooth="yes"/>
      <point x="202" y="203"/>
      <point x="138" y="288"/>
      <point x="94" y="403" type="curve"/>
      <point x="55" y="382" type="line"/>
      <point x="127" y="193"/>
      <point x="210" y="127"/>
    </contour>
  </outline>
</glyph>
<glyph name="dOne.ss04" format="2">
  <advance width="496"/>
  <outline>
    <contour>
      <point x="312" y="-157" type="line"/>
      <point x="364" y="-126"/>
      <point x="382" y="-100"/>
      <point x="382" y="-74" type="curve" smooth="yes"/>
      <point x="382" y="-31"/>
      <point x="338" y="13"/>
      <point x="205" y="154" type="curve"/>
      <point x="379" y="279"/>
      <point x="447" y="331"/>
      <point x="447" y="418" type="curve" smooth="yes"/>
      <point x="447" y="515"/>
      <point x="368" y="598"/>
      <point x="273" y="598" type="curve" smooth="yes"/>
      <point x="182" y="598"/>
      <point x="116" y="537"/>
      <point x="116" y="458" type="curve" smooth="yes"/>
      <point x="116" y="382"/>
      <point x="181" y="320"/>
      <point x="248" y="273" type="curve"/>
      <point x="284" y="302" type="line"/>
      <point x="220" y="347"/>
      <point x="197" y="396"/>
      <point x="197" y="431" type="curve" smooth="yes"/>
      <point x="197" y="472"/>
      <point x="227" y="530"/>
      <point x="297" y="530" type="curve" smooth="yes"/>
      <point x="353" y="530"/>
      <point x="377" y="488"/>
      <point x="377" y="454" type="curve" smooth="yes"/>
      <point x="377" y="397"/>
      <point x="329" y="357"/>
      <point x="251" y="295" type="curve" smooth="yes"/>
      <point x="233" y="281"/>
      <point x="189" y="246"/>
      <point x="106" y="193" type="curve"/>
      <point x="105" y="186" type="line"/>
      <point x="260" y="26"/>
      <point x="297" y="-11"/>
      <point x="297" y="-44" type="curve" smooth="yes"/>
      <point x="297" y="-64"/>
      <point x="287" y="-75"/>
      <point x="263" y="-90" type="curve"/>
    </contour>
  </outline>
</glyph>
<glyph name="dOne.ss04sups" format="2">
  <advance width="402"/>
  <outline>
    <contour>
      <point x="259" y="492" type="curve" smooth="yes"/>
      <point x="227" y="468"/>
      <point x="200" y="451"/>
      <point x="170" y="432" type="curve"/>
      <point x="169" y="426" type="line"/>
      <point x="255" y="333"/>
      <point x="283" y="315"/>
      <point x="283" y="289" type="curve" smooth="yes"/>
      <point x="283" y="273"/>
      <point x="274" y="262"/>
      <point x="254" y="250" type="curve"/>
      <point x="295" y="194" type="line"/>
      <point x="330" y="215"/>
      <point x="355" y="235"/>
      <point x="355" y="262" type="curve" smooth="yes"/>
      <point x="355" y="295"/>
      <point x="319" y="330"/>
      <point x="250" y="400" type="curve"/>
      <point x="371" y="480"/>
      <point x="417" y="517"/>
      <point x="417" y="581" type="curve" smooth="yes"/>
      <point x="417" y="639"/>
      <point x="359" y="717"/>
      <point x="278" y="717" type="curve" smooth="yes"/>
      <point x="212" y="717"/>
      <point x="166" y="672"/>
      <point x="166" y="615" type="curve" smooth="yes"/>
      <point x="166" y="565"/>
      <point x="210" y="510"/>
      <point x="257" y="476" type="curve"/>
      <point x="292" y="498" type="line"/>
      <point x="247" y="533"/>
      <point x="234" y="564"/>
      <point x="234" y="588" type="curve" smooth="yes"/>
      <point x="234" y="623"/>
      <point x="259" y="658"/>
      <point x="304" y="658" type="curve" smooth="yes"/>
      <point x="340" y="658"/>
      <point x="356" y="630"/>
      <point x="356" y="608" type="curve" smooth="yes"/>
      <point x="356" y="574"/>
      <point x="332" y="547"/>
    </contour>
  </outline>
</glyph>
<glyph name="dPNa" format="2">
  <advance width="574"/>
  <outline>
    <contour>
      <point x="148" y="-23" type="curve" smooth="yes"/>
      <point x="166" y="-23"/>
      <point x="178" y="-15"/>
      <point x="178" y="11" type="curve" smooth="yes"/>
      <point x="178" y="20"/>
      <point x="176" y="45"/>
      <point x="169" y="80" type="curve"/>
      <point x="442" y="250" type="line"/>
      <point x="304" y="251" type="line"/>
      <point x="81" y="117" type="line" smooth="yes"/>
      <point x="43" y="94"/>
      <point x="27" y="82"/>
      <point x="27" y="63" type="curve" smooth="yes"/>
      <point x="27" y="33"/>
      <point x="108" y="-23"/>
    </contour>
    <contour>
      <point x="437" y="-10" type="line"/>
      <point x="550" y="583" type="line"/>
      <point x="466" y="583" type="line"/>
      <point x="411" y="301" type="line"/>
      <point x="404" y="279" type="line"/>
      <point x="359" y="52" type="line"/>
      <point x="427" y="-10" type="line"/>
    </contour>
    <contour>
      <point x="659" y="545" type="line"/>
      <point x="661" y="555" type="line"/>
      <point x="630" y="620" type="line"/>
      <point x="34" y="620" type="line"/>
      <point x="32" y="610" type="line"/>
      <point x="63" y="545" type="line"/>
    </contour>
    <contour>
      <point x="413" y="237" type="line"/>
      <point x="433" y="333" type="line"/>
      <point x="360" y="277"/>
      <point x="289" y="243"/>
      <point x="247" y="243" type="curve" smooth="yes"/>
      <point x="217" y="243"/>
      <point x="190" y="263"/>
      <point x="190" y="309" type="curve" smooth="yes"/>
      <point x="190" y="317"/>
      <point x="191" y="325"/>
      <point x="193" y="335" type="curve" smooth="yes"/>
      <point x="241" y="592" type="line"/>
      <point x="157" y="592" type="line"/>
      <point x="144" y="529"/>
      <point x="129" y="459"/>
      <point x="119" y="406" type="curve" smooth="yes"/>
      <point x="113" y="374"/>
      <point x="110" y="360"/>
      <point x="110" y="352" type="curve" smooth="yes"/>
      <point x="110" y="284"/>
      <point x="192" y="178"/>
      <point x="288" y="178" type="curve"/>
    </contour>
  </outline>
</glyph>
<glyph name="dPTa" format="2">
  <advance width="877"/>
  <outline>
    <contour>
      <point x="468" y="545" type="line"/>
      <point x="470" y="555" type="line"/>
      <point x="439" y="620" type="line"/>
      <point x="34" y="620" type="line"/>
      <point x="32" y="610" type="line"/>
      <point x="63" y="545" type="line"/>
    </contour>
    <contour>
      <point x="765" y="565" type="line"/>
      <point x="662" y="52" type="line"/>
      <point x="729" y="-10" type="line"/>
      <point x="739" y="-10" type="line"/>
      <point x="849" y="565" type="line"/>
    </contour>
    <contour>
      <point x="962" y="545" type="line"/>
      <point x="964" y="555" type="line"/>
      <point x="933" y="620" type="line"/>
      <point x="338" y="620" type="line"/>
      <point x="336" y="610" type="line"/>
      <point x="367" y="545" type="line"/>
    </contour>
    <contour>
      <point x="476" y="-10" type="line"/>
      <point x="523" y="22" type="line"/>
      <point x="449" y="128"/>
      <point x="426" y="172"/>
      <point x="426" y="226" type="curve" smooth="yes"/>
      <point x="426" y="306"/>
      <point x="484" y="360"/>
      <point x="595" y="360" type="curve" smooth="yes"/>
      <point x="749" y="360" type="line"/>
      <point x="765" y="435" type="line"/>
      <point x="587" y="435" type="line" smooth="yes"/>
      <point x="483" y="435"/>
      <point x="357" y="405"/>
      <point x="357" y="271" type="curve" smooth="yes"/>
      <point x="357" y="188"/>
      <point x="405" y="96"/>
      <point x="466" y="-10" type="curve"/>
    </contour>
    <contour>
      <point x="270" y="168" type="curve" smooth="yes"/>
      <point x="314" y="168"/>
      <point x="337" y="180"/>
      <point x="390" y="211" type="curve"/>
      <point x="415" y="323" type="line"/>
      <point x="342" y="267"/>
      <point x="271" y="233"/>
      <point x="229" y="233" type="curve" smooth="yes"/>
      <point x="199" y="233"/>
      <point x="172" y="253"/>
      <point x="172" y="299" type="curve" smooth="yes"/>
      <point x="172" y="307"/>
      <point x="173" y="315"/>
      <point x="175" y="325" type="curve" smooth="yes"/>
      <point x="223" y="582" type="line"/>
      <point x="139" y="582" type="line"/>
      <point x="126" y="519"/>
      <point x="111" y="449"/>
      <point x="101" y="396" type="curve" smooth="yes"/>
      <point x="95" y="364"/>
      <point x="92" y="350"/>
      <point x="92" y="342" type="curve" smooth="yes"/>
      <point x="92" y="274"/>
      <point x="174" y="168"/>
    </contour>
  </outline>
</glyph>
<glyph name="dPTta" format="2">
  <advance width="571"/>
  <outline>
    <contour>
      <point x="54" y="87" type="curve" smooth="yes"/>
      <point x="54" y="-23"/>
      <point x="169" y="-109"/>
      <point x="281" y="-109" type="curve" smooth="yes"/>
      <point x="354" y="-109"/>
      <point x="416" y="-81"/>
      <point x="475" y="-23" type="curve"/>
      <point x="422" y="45" type="line"/>
      <point x="364" y="0"/>
      <point x="312" y="-35"/>
      <point x="235" y="-35" type="curve" smooth="yes"/>
      <point x="160" y="-35"/>
      <point x="122" y="-4"/>
      <point x="122" y="52" type="curve" smooth="yes"/>
      <point x="122" y="132"/>
      <point x="189" y="151"/>
      <point x="300" y="179" type="curve" smooth="yes"/>
      <point x="430" y="212"/>
      <point x="481" y="245"/>
      <point x="500" y="347" type="curve" smooth="yes"/>
      <point x="520" y="449"/>
      <point x="534" y="521"/>
      <point x="545" y="582" type="curve"/>
      <point x="463" y="582" type="line"/>
      <point x="420" y="365" type="line" smooth="yes"/>
      <point x="409" y="307"/>
      <point x="383" y="285"/>
      <point x="318" y="264" type="curve" smooth="yes"/>
      <point x="294" y="256"/>
      <point x="274" y="251"/>
      <point x="254" y="251" type="curve" smooth="yes"/>
      <point x="222" y="251"/>
      <point x="195" y="266"/>
      <point x="195" y="312" type="curve" smooth="yes"/>
      <point x="195" y="319"/>
      <point x="196" y="329"/>
      <point x="198" y="340" type="curve" smooth="yes"/>
      <point x="243" y="582" type="line"/>
      <point x="158" y="582" type="line"/>
      <point x="145" y="516"/>
      <point x="117" y="383"/>
      <point x="117" y="353" type="curve" smooth="yes"/>
      <point x="117" y="308"/>
      <point x="135" y="259"/>
      <point x="202" y="217" type="curve"/>
      <point x="198" y="231" type="line"/>
      <point x="104" y="204"/>
      <point x="54" y="172"/>
    </contour>
    <contour>
      <point x="34" y="620" type="line"/>
      <point x="32" y="610" type="line"/>
      <point x="63" y="545" type="line"/>
      <point x="656" y="545" type="line"/>
      <point x="658" y="555" type="line"/>
      <point x="627" y="620" type="line"/>
    </contour>
  </outline>
</glyph>
<glyph name="dPhSha" format="2">
  <advance width="1266"/>
  <outline>
    <contour>
      <point x="261" y="168" type="curve" smooth="yes"/>
      <point x="307" y="168"/>
      <point x="328" y="182"/>
      <point x="394" y="220" type="curve"/>
      <point x="416" y="232" type="line"/>
      <point x="485" y="270"/>
      <point x="545" y="320"/>
      <point x="591" y="320" type="curve" smooth="yes"/>
      <point x="604" y="320"/>
      <point x="620" y="313"/>
      <point x="632" y="281" type="curve"/>
      <point x="681" y="274" type="line"/>
      <point x="663" y="342"/>
      <point x="632" y="394"/>
      <point x="576" y="394" type="curve" smooth="yes"/>
      <point x="528" y="394"/>
      <point x="490" y="365"/>
      <point x="437" y="338" type="curve"/>
      <point x="409" y="324" type="line"/>
      <point x="340" y="289"/>
      <point x="276" y="233"/>
      <point x="224" y="233" type="curve" smooth="yes"/>
      <point x="199" y="233"/>
      <point x="173" y="254"/>
      <point x="173" y="298" type="curve" smooth="yes"/>
      <point x="173" y="306"/>
      <point x="174" y="315"/>
      <point x="176" y="325" type="curve" smooth="yes"/>
      <point x="226" y="592" type="line"/>
      <point x="142" y="592" type="line"/>
      <point x="130" y="532"/>
      <point x="112" y="447"/>
      <point x="102" y="396" type="curve" smooth="yes"/>
      <point x="96" y="364"/>
      <point x="93" y="340"/>
      <point x="93" y="339" type="curve"/>
      <point x="93" y="270"/>
      <point x="172" y="168"/>
    </contour>
    <contour>
      <point x="401" y="-10" type="line"/>
      <point x="515" y="591" type="line"/>
      <point x="433" y="591" type="line"/>
      <point x="324" y="54" type="line"/>
      <point x="391" y="-10" type="line"/>
    </contour>
    <contour>
      <point x="769" y="545" type="line"/>
      <point x="871" y="586" type="line"/>
      <point x="960" y="545" type="line"/>
      <point x="1351" y="545" type="line"/>
      <point x="1353" y="555" type="line"/>
      <point x="1322" y="620" type="line"/>
      <point x="34" y="620" type="line"/>
      <point x="32" y="610" type="line"/>
      <point x="63" y="545" type="line"/>
    </contour>
    <contour>
      <point x="1128" y="-15" type="line"/>
      <point x="1241" y="581" type="line"/>
      <point x="1157" y="581" type="line"/>
      <point x="1050" y="47" type="line"/>
      <point x="1118" y="-15" type="line"/>
    </contour>
    <contour>
      <point x="715" y="177" type="curve" smooth="yes"/>
      <point x="826" y="177"/>
      <point x="1023" y="266"/>
      <point x="1023" y="435" type="curve" smooth="yes"/>
      <point x="1023" y="528"/>
      <point x="940" y="610"/>
      <point x="858" y="610" type="curve" smooth="yes"/>
      <point x="772" y="610"/>
      <point x="697" y="556"/>
      <point x="697" y="481" type="curve" smooth="yes"/>
      <point x="697" y="410"/>
      <point x="752" y="341"/>
      <point x="864" y="297" type="curve"/>
      <point x="902" y="324" type="line"/>
      <point x="816" y="363"/>
      <point x="779" y="410"/>
      <point x="779" y="458" type="curve" smooth="yes"/>
      <point x="779" y="497"/>
      <point x="800" y="552"/>
      <point x="870" y="552" type="curve" smooth="yes"/>
      <point x="904" y="552"/>
      <point x="952" y="536"/>
      <point x="952" y="465" type="curve" smooth="yes"/>
      <point x="952" y="370"/>
      <point x="870" y="288"/>
      <point x="746" y="257" type="curve"/>
      <point x="716" y="280"/>
      <point x="679" y="302"/>
      <point x="642" y="302" type="curve" smooth="yes"/>
      <point x="612" y="302"/>
      <point x="602" y="289"/>
      <point x="602" y="269" type="curve" smooth="yes"/>
      <point x="602" y="232"/>
      <point x="652" y="177"/>
    </contour>
    <contour>
      <point x="873" y="-20" type="line"/>
      <point x="928" y="19" type="line"/>
      <point x="764" y="228" type="line"/>
      <point x="717" y="217" type="line"/>
      <point x="863" y="-20" type="line"/>
    </contour>
  </outline>
</glyph>
<glyph name="dR.half" format="2">
  <advance width="309"/>
  <outline>
    <contour>
      <point x="404" y="347" type="line"/>
      <point x="330" y="310"/>
      <point x="282" y="300"/>
      <point x="240" y="300" type="curve" smooth="yes"/>
      <point x="170" y="300"/>
      <point x="118" y="320"/>
      <point x="63" y="364" type="curve"/>
      <point x="36" y="334" type="line"/>
      <point x="107" y="259"/>
      <point x="174" y="223"/>
      <point x="255" y="223" type="curve" smooth="yes"/>
      <point x="302" y="223"/>
      <point x="359" y="233"/>
      <point x="424" y="271" type="curve"/>
    </contour>
    <contour>
      <point x="466" y="545" type="line"/>
      <point x="468" y="555" type="line"/>
      <point x="436" y="620" type="line"/>
      <point x="33" y="620" type="line"/>
      <point x="31" y="610" type="line"/>
      <point x="63" y="545" type="line"/>
    </contour>
  </outline>
</glyph>
<glyph name="dReph" format="2">
  <outline>
    <contour>
      <point x="100" y="830" type="line"/>
      <point x="91" y="877"/>
      <point x="44" y="911"/>
      <point x="-18" y="911" type="curve" smooth="yes"/>
      <point x="-103" y="911"/>
      <point x="-153" y="849"/>
      <point x="-153" y="773" type="curve" smooth="yes"/>
      <point x="-153" y="715"/>
      <point x="-124" y="659"/>
      <point x="-83" y="608" type="curve"/>
      <point x="-33" y="608" type="line"/>
      <point x="-68" y="655"/>
      <point x="-87" y="700"/>
      <point x="-87" y="742" type="curve" smooth="yes"/>
      <point x="-87" y="802"/>
      <point x="-48" y="840"/>
      <point x="17" y="840" type="curve" smooth="yes"/>
      <point x="43" y="840"/>
      <point x="76" y="833"/>
      <point x="95" y="824" type="curve"/>
    </contour>
  </outline>
  <guideline angle="0" x="0" y="911"/>
</glyph>
